<mxfile host="65bd71144e">
    <diagram id="8H-vxdWfXyE2lz6HY3Nk" name="第 1 页">
        <mxGraphModel dx="2083" dy="1766" grid="1" gridSize="10" guides="1" tooltips="1" connect="1" arrows="1" fold="1" page="1" pageScale="1" pageWidth="827" pageHeight="1169" math="0" shadow="0">
            <root>
                <mxCell id="0"/>
                <mxCell id="1" parent="0"/>
                <mxCell id="2" value="&lt;div style=&quot;color: rgb(147, 157, 165); background-color: rgb(35, 42, 47); font-family: &amp;quot;Input Mono&amp;quot;, &amp;quot;Fira Code&amp;quot;, monospace, Menlo, Monaco, &amp;quot;Courier New&amp;quot;, monospace; line-height: 18px;&quot;&gt;&lt;span style=&quot;color: #5bec95;&quot;&gt;rightRotation(1)&lt;/span&gt;&lt;/div&gt;" style="text;html=1;strokeColor=none;fillColor=none;align=center;verticalAlign=middle;whiteSpace=wrap;rounded=0;" parent="1" vertex="1">
                    <mxGeometry x="180" y="210" width="130" height="30" as="geometry"/>
                </mxCell>
                <mxCell id="7" style="edgeStyle=none;html=1;exitX=0;exitY=1;exitDx=0;exitDy=0;" parent="1" source="4" target="6" edge="1">
                    <mxGeometry relative="1" as="geometry"/>
                </mxCell>
                <mxCell id="4" value="0" style="ellipse;whiteSpace=wrap;html=1;aspect=fixed;" parent="1" vertex="1">
                    <mxGeometry x="170" y="140" width="40" height="40" as="geometry"/>
                </mxCell>
                <mxCell id="9" style="edgeStyle=none;html=1;" parent="1" source="6" target="8" edge="1">
                    <mxGeometry relative="1" as="geometry"/>
                </mxCell>
                <mxCell id="6" value="1" style="ellipse;whiteSpace=wrap;html=1;aspect=fixed;fillColor=#FF3333;" parent="1" vertex="1">
                    <mxGeometry x="120" y="190" width="40" height="40" as="geometry"/>
                </mxCell>
                <mxCell id="11" style="edgeStyle=none;html=1;" parent="1" source="8" target="10" edge="1">
                    <mxGeometry relative="1" as="geometry"/>
                </mxCell>
                <mxCell id="8" value="2" style="ellipse;whiteSpace=wrap;html=1;aspect=fixed;" parent="1" vertex="1">
                    <mxGeometry x="70" y="240" width="40" height="40" as="geometry"/>
                </mxCell>
                <mxCell id="10" value="3" style="ellipse;whiteSpace=wrap;html=1;aspect=fixed;" parent="1" vertex="1">
                    <mxGeometry x="20" y="290" width="40" height="40" as="geometry"/>
                </mxCell>
                <mxCell id="15" value="" style="shape=flexArrow;endArrow=classic;html=1;" parent="1" edge="1">
                    <mxGeometry width="50" height="50" relative="1" as="geometry">
                        <mxPoint x="160" y="270" as="sourcePoint"/>
                        <mxPoint x="260" y="270" as="targetPoint"/>
                    </mxGeometry>
                </mxCell>
                <mxCell id="16" style="edgeStyle=none;html=1;exitX=0;exitY=1;exitDx=0;exitDy=0;entryX=1;entryY=0;entryDx=0;entryDy=0;" parent="1" source="22" target="20" edge="1">
                    <mxGeometry relative="1" as="geometry"/>
                </mxCell>
                <mxCell id="17" style="edgeStyle=none;html=1;exitX=1;exitY=1;exitDx=0;exitDy=0;entryX=0;entryY=0;entryDx=0;entryDy=0;" parent="1" source="20" target="18" edge="1">
                    <mxGeometry relative="1" as="geometry">
                        <mxPoint x="330" y="310" as="targetPoint"/>
                    </mxGeometry>
                </mxCell>
                <mxCell id="18" value="1" style="ellipse;whiteSpace=wrap;html=1;aspect=fixed;" parent="1" vertex="1">
                    <mxGeometry x="354" y="280" width="40" height="40" as="geometry"/>
                </mxCell>
                <mxCell id="19" style="edgeStyle=none;html=1;" parent="1" source="20" target="21" edge="1">
                    <mxGeometry relative="1" as="geometry"/>
                </mxCell>
                <mxCell id="20" value="2" style="ellipse;whiteSpace=wrap;html=1;aspect=fixed;" parent="1" vertex="1">
                    <mxGeometry x="300" y="230" width="40" height="40" as="geometry"/>
                </mxCell>
                <mxCell id="21" value="3" style="ellipse;whiteSpace=wrap;html=1;aspect=fixed;" parent="1" vertex="1">
                    <mxGeometry x="250" y="280" width="40" height="40" as="geometry"/>
                </mxCell>
                <mxCell id="22" value="0" style="ellipse;whiteSpace=wrap;html=1;aspect=fixed;" parent="1" vertex="1">
                    <mxGeometry x="354" y="170" width="40" height="40" as="geometry"/>
                </mxCell>
                <mxCell id="23" value="&lt;div style=&quot;color: rgb(147, 157, 165); background-color: rgb(35, 42, 47); font-family: &amp;quot;Input Mono&amp;quot;, &amp;quot;Fira Code&amp;quot;, monospace, Menlo, Monaco, &amp;quot;Courier New&amp;quot;, monospace; line-height: 18px;&quot;&gt;&lt;span style=&quot;color: #5bec95;&quot;&gt;leftRotation(1)&lt;/span&gt;&lt;/div&gt;" style="text;html=1;strokeColor=none;fillColor=none;align=center;verticalAlign=middle;whiteSpace=wrap;rounded=0;" vertex="1" parent="1">
                    <mxGeometry x="170" y="730" width="127" height="30" as="geometry"/>
                </mxCell>
                <mxCell id="24" style="edgeStyle=none;html=1;exitX=0.825;exitY=1.025;exitDx=0;exitDy=0;exitPerimeter=0;" edge="1" source="25" target="27" parent="1">
                    <mxGeometry relative="1" as="geometry"/>
                </mxCell>
                <mxCell id="25" value="0" style="ellipse;whiteSpace=wrap;html=1;aspect=fixed;" vertex="1" parent="1">
                    <mxGeometry y="650" width="40" height="40" as="geometry"/>
                </mxCell>
                <mxCell id="26" style="edgeStyle=none;html=1;" edge="1" source="27" target="29" parent="1">
                    <mxGeometry relative="1" as="geometry"/>
                </mxCell>
                <mxCell id="27" value="1" style="ellipse;whiteSpace=wrap;html=1;aspect=fixed;fillColor=#FF3333;" vertex="1" parent="1">
                    <mxGeometry x="40" y="710" width="40" height="40" as="geometry"/>
                </mxCell>
                <mxCell id="28" style="edgeStyle=none;html=1;" edge="1" source="29" target="30" parent="1">
                    <mxGeometry relative="1" as="geometry"/>
                </mxCell>
                <mxCell id="29" value="2" style="ellipse;whiteSpace=wrap;html=1;aspect=fixed;" vertex="1" parent="1">
                    <mxGeometry x="80" y="775" width="40" height="40" as="geometry"/>
                </mxCell>
                <mxCell id="30" value="3" style="ellipse;whiteSpace=wrap;html=1;aspect=fixed;" vertex="1" parent="1">
                    <mxGeometry x="120" y="830" width="40" height="40" as="geometry"/>
                </mxCell>
                <mxCell id="31" value="" style="shape=flexArrow;endArrow=classic;html=1;" edge="1" parent="1">
                    <mxGeometry width="50" height="50" relative="1" as="geometry">
                        <mxPoint x="183" y="790" as="sourcePoint"/>
                        <mxPoint x="283" y="790" as="targetPoint"/>
                    </mxGeometry>
                </mxCell>
                <mxCell id="32" style="edgeStyle=none;html=1;exitX=1;exitY=1;exitDx=0;exitDy=0;entryX=0;entryY=0;entryDx=0;entryDy=0;" edge="1" source="38" target="36" parent="1">
                    <mxGeometry relative="1" as="geometry"/>
                </mxCell>
                <mxCell id="33" style="edgeStyle=none;html=1;exitX=1;exitY=1;exitDx=0;exitDy=0;entryX=0;entryY=0;entryDx=0;entryDy=0;" edge="1" source="36" target="34" parent="1">
                    <mxGeometry relative="1" as="geometry">
                        <mxPoint x="410" y="840" as="targetPoint"/>
                    </mxGeometry>
                </mxCell>
                <mxCell id="34" value="3" style="ellipse;whiteSpace=wrap;html=1;aspect=fixed;" vertex="1" parent="1">
                    <mxGeometry x="434" y="810" width="40" height="40" as="geometry"/>
                </mxCell>
                <mxCell id="35" style="edgeStyle=none;html=1;" edge="1" source="36" target="37" parent="1">
                    <mxGeometry relative="1" as="geometry"/>
                </mxCell>
                <mxCell id="36" value="2" style="ellipse;whiteSpace=wrap;html=1;aspect=fixed;" vertex="1" parent="1">
                    <mxGeometry x="380" y="760" width="40" height="40" as="geometry"/>
                </mxCell>
                <mxCell id="37" value="1" style="ellipse;whiteSpace=wrap;html=1;aspect=fixed;" vertex="1" parent="1">
                    <mxGeometry x="330" y="810" width="40" height="40" as="geometry"/>
                </mxCell>
                <mxCell id="38" value="0" style="ellipse;whiteSpace=wrap;html=1;aspect=fixed;" vertex="1" parent="1">
                    <mxGeometry x="330" y="700" width="40" height="40" as="geometry"/>
                </mxCell>
                <mxCell id="40" value="" style="shape=image;verticalLabelPosition=bottom;labelBackgroundColor=default;verticalAlign=top;aspect=fixed;imageAspect=0;image=data:image/png,iVBORw0KGgoAAAANSUhEUgAAA7QAAAF+CAYAAACyK1ZVAAAEDmlDQ1BrQ0dDb2xvclNwYWNlR2VuZXJpY1JHQgAAOI2NVV1oHFUUPpu5syskzoPUpqaSDv41lLRsUtGE2uj+ZbNt3CyTbLRBkMns3Z1pJjPj/KRpKT4UQRDBqOCT4P9bwSchaqvtiy2itFCiBIMo+ND6R6HSFwnruTOzu5O4a73L3PnmnO9+595z7t4LkLgsW5beJQIsGq4t5dPis8fmxMQ6dMF90A190C0rjpUqlSYBG+PCv9rt7yDG3tf2t/f/Z+uuUEcBiN2F2Kw4yiLiZQD+FcWyXYAEQfvICddi+AnEO2ycIOISw7UAVxieD/Cyz5mRMohfRSwoqoz+xNuIB+cj9loEB3Pw2448NaitKSLLRck2q5pOI9O9g/t/tkXda8Tbg0+PszB9FN8DuPaXKnKW4YcQn1Xk3HSIry5ps8UQ/2W5aQnxIwBdu7yFcgrxPsRjVXu8HOh0qao30cArp9SZZxDfg3h1wTzKxu5E/LUxX5wKdX5SnAzmDx4A4OIqLbB69yMesE1pKojLjVdoNsfyiPi45hZmAn3uLWdpOtfQOaVmikEs7ovj8hFWpz7EV6mel0L9Xy23FMYlPYZenAx0yDB1/PX6dledmQjikjkXCxqMJS9WtfFCyH9XtSekEF+2dH+P4tzITduTygGfv58a5VCTH5PtXD7EFZiNyUDBhHnsFTBgE0SQIA9pfFtgo6cKGuhooeilaKH41eDs38Ip+f4At1Rq/sjr6NEwQqb/I/DQqsLvaFUjvAx+eWirddAJZnAj1DFJL0mSg/gcIpPkMBkhoyCSJ8lTZIxk0TpKDjXHliJzZPO50dR5ASNSnzeLvIvod0HG/mdkmOC0z8VKnzcQ2M/Yz2vKldduXjp9bleLu0ZWn7vWc+l0JGcaai10yNrUnXLP/8Jf59ewX+c3Wgz+B34Df+vbVrc16zTMVgp9um9bxEfzPU5kPqUtVWxhs6OiWTVW+gIfywB9uXi7CGcGW/zk98k/kmvJ95IfJn/j3uQ+4c5zn3Kfcd+AyF3gLnJfcl9xH3OfR2rUee80a+6vo7EK5mmXUdyfQlrYLTwoZIU9wsPCZEtP6BWGhAlhL3p2N6sTjRdduwbHsG9kq32sgBepc+xurLPW4T9URpYGJ3ym4+8zA05u44QjST8ZIoVtu3qE7fWmdn5LPdqvgcZz8Ww8BWJ8X3w0PhQ/wnCDGd+LvlHs8dRy6bLLDuKMaZ20tZrqisPJ5ONiCq8yKhYM5cCgKOu66Lsc0aYOtZdo5QCwezI4wm9J/v0X23mlZXOfBjj8Jzv3WrY5D+CsA9D7aMs2gGfjve8ArD6mePZSeCfEYt8CONWDw8FXTxrPqx/r9Vt4biXeANh8vV7/+/16ffMD1N8AuKD/A/8leAvFY9bLAAAAbGVYSWZNTQAqAAAACAAEARoABQAAAAEAAAA+ARsABQAAAAEAAABGASgAAwAAAAEAAgAAh2kABAAAAAEAAABOAAAAAAAAAJAAAAABAAAAkAAAAAEAAqACAAQAAAABAAADtKADAAQAAAABAAABfgAAAAC+gIHCAAAACXBIWXMAABYlAAAWJQFJUiTwAABAAElEQVR4Aey92Y9l2VX/uc49d54ibgw5V2VNGFdhwHZ5AowHJgFGuI1otXihH0ACNe4Xup/pf6CRQGrxxAtIILX6R7eaB4TAgA3Y2IIGT2VXuaasqsyMebjzfE5/v/vcHXEiMiJyqIzMyMrvrjr3THs635uKfT9nrb12YPeY4jh+FkU/j+1FbJdSWxXHSlJACkgBKSAFpIAUkAJSQApIASkgBQ4r0MGFm6nt/8Px/xsEweuHM97JeXAnmXweQOw5HH8R2xewfcBf114KSAEpIAWkgBSQAlJACkgBKSAFpMC7UOC7KPv/YPs/ALfrd1rPHQEtQJZW1/8F2/+KTRbYO1VX+aSAFJACUkAKSAEpIAWkgBSQAlLgbhSgBfd/x/aHAFsen5huC7SA2V9DDX+C7fyJNemmFJACUkAKSAEpIAWkgBSQAlJACkiB+6PAGqr5nwC1//dJ1WWOuwmQDbD9b7j/37AJZo8TStelgBSQAlJACkgBKSAFpIAUkAJS4H4rQAb9b2RSsulxlR95AwVKKPBn2P774wrquhSQAlJACkgBKSAFpIAUkAJSQApIgQegwP+FNv5HWGv7h9u6BWhn9Pt/IqNg9rBaOpcCUkAKSAEpIAWkgBSQAlJACkiBh6EAofZ/ANTG6caPcjn+A2QQzKZV0rEUkAJSQApIASkgBaSAFJACUkAKPEwFyKhk1QPpgIUW1lkGgOKc2QPXD5TQiRSQAlJACkgBKSAFpIAUkAJSQApIgQevAK2zv54OFLUHroBZLsfzGjYFgHrwX4xalAJSQApIASkgBaSAFJACUkAKSIHbK8Dox88Bat2SPmmXY64zK5i9vYDKIQWkgBSQAlJACkgBKSAFpIAUkAIPRwEyK9nVJWehhXX2HM5ex0YrrZIUkAJSQApIASkgBaSAFJACUkAKSIGzqgCts8/CSrvuLbT/My4IZs/q16V+SQEpIAWkgBSQAlJACkgBKSAFpIBXgOz6RZ54oP3v/B3tpYAUkAJSQApIASkgBaSAFJACUkAKnHEFvsD+BXA3fhZ7BoNSkgJSQApIASkgBaSAFJACUkAKSAEp8Kgo8BwttJ9/VHqrfkoBKSAFpIAUkAJSQApIASkgBaSAFJgp8HkC7YuS48ErAMv4g29ULUoBKSAFpIAUkAJSQApIASkgBd47CrxIoL303nmed/ckhMzJZGIPAjYRkeuWzrLdB9H2LQ0funBW+nGoWzqVAlJACkgBKSAFpIAUkAJSQAqkFbiUxZmAdibJdDq18XjsoDKXy6WFeiDHURS5djKZjB0FvIc7QfC8k3yHyx0+9xDNunhMHXgchuHhrHvn6TJ7F29zcFwZf/2k4vfjOU+qX/dOV4H0d6zv8nS1Vu1SQApIASkgBaSAFHiMFBDQ+i/b/+D2P7Z57o99ntPeE2SZ7rTdO813u357kPYAy3p9X25X9m7uH9Vfr/vd1KO8UkAKSAEpIAWkgBSQAlJACkgBKHCJUY4fy8mchx+bUMdr3Dx4EfD88eH8/Ofj7z3K/5T4XIeB9vDzpDU5Sgef/271OFwX+3EcSN9t3b5P2p8NBdLftb7Ls/GdqBdSQApIASkgBaSAFHgvKECXYyUoQJAiUKV/bJ8EWPdDtPSPfA+V7Ee6D/ejncN1+HbZzp225cscrit9flKeO20nXZ+O3xsKnPTv4r3xhHoKKSAFpIAUkAJSQApIgYelgIA2pby3DjIwFOfS8txvBDJ/P1Xkrg/TP+59O6w7bQ1mO3cKgKyPMMzNH7Mu3292MF0X8/DZ2DbnCftn8vvjHohlOLfW99PXyfp4nZuH8nQdh5+F574O7n06qqy/p/3ZV4D/DpSkgBSQAlJACkgBKSAFpMCDVuCxBVoPZGnBPRD++7//u331q1+15557zp599lm7dOmSLS4uHgDDdLm7OU63+/Wvf93+/u//3j72sY/Zhz70IavX61atVu+6nU6nY9/61rfsnXfecaB65coVe/HFF21+fv6Wrg0GA/vyl79sr732mr3vfe+zZ555xi5cuODa9VCS7iMr6Pf79qUvfcl+8IMf2Ac+8AGnyfnz5x0Y37hxw773ve/ZN7/5TZfvcIO+LtbNbXl52Z5//nnXNtsnVPM6890Oqg/XrfOzrwBfVOh7Pfvfk3ooBaSAFJACUkAKSIFHVYHHFmiP+8IIVwS0v/qrv7JPfepTDrgImktLS8cVuefr3/72t+0v//IvXfmnn37aSqXSAZhlX5g8FLqT1Ie/3+12HdASKmlJ/dEf/VEHjPl83lqt1h4wsmi73XZAS2j/xCc+YSzLMo1Gw+UjfGSzWdeXSqXirvH+d7/7XfuXf/kXB62EFNbN66+//rp95Stfsb/+6792MM1nYPJ9832nRbjX69nly5ft05/+tIOcp556yrXl87qC+pACUkAKSAEpIAWkgBSQAlJACtyhAo8V0N4OnLzbLC2em5ubDsC8K+xxZf196u0tUR7iDn8Hvg5/n5bP7e3tWyybPp+3bvHcl/F1+r76Nml5JZyyzGg0suFwaP/xH/9hf/u3f2u8592QCaHf+MY37O2333b5X375ZQeZBFHe456W3Y9+9KMO6Fk/ragf/OAHXd3s79e+9jUHr+Vy2ZrNpqufwEprNl8CsG+si2X9xnL/9V//5UB3d3fXlWNf+VyHn80/o/ZSQApIASkgBaSAFJACUkAKSIGTFHhsgJaWSQIfQS8NW4QqD4zcc1tdXbWdnR3b2NiwtbU1B3/Mx8T76eTP5+bmnJWTbRBUCZVsx88T9eVZ1kPe+vq6g2a2Q8BkGcIek6+XxwQ+luG+Vqu5dgiSBG+2y3YIlHw2ts16WR/digm1tIyyH74vdE0mYPr22D4trgRfWmXpXk03a/aB/abF9v3vf7/rwz/90z852Cfws222R4Bl32hl/uVf/mXXF9btIZr7t956y7a2tpyeLMM+sW4+l5IUkAJSQApIASkgBaSAFJACUuBeFHgsgJZgRqCiK7GHOVoiCVqEMd4nWBHcCHYvvfSSg7tXXnnFacpyCwsLR+rLstw4D5autJxnynKEYrr7sj62kwbadDu8TndeWkHZBoGVcOgT62by/fvIRz5in/zkJ107r776qpuPSghlnSx38+ZNB5m8Rgsq5+YSdvmcbIPtEYQJlJw7e/XqVWdZpR6EcbbjrbRsm3Wy/5wzy0QQ5kbXYSZCKtvm3F/m+aEf+qG9/vu+szzbvnjxotOV+Zn8fbbhj90NfbxnFNALi/fMV6kHkQJSQApIASkgBaTAmVTgsQBaKk8Iu3btmoNNWl0JewQrWjcJU4QuHtOyeP36dQd1tHiurKw4ACwWi0d+gSzLjRZNlqd1lJZRb5Ek0LIdgqTPS8BkXgZUonsvLaOci0oILhQKB9phGSbWwXtsh3BKaObcVfb7KcxFZSI80BLNfrM+WkwJngRGPhfLs11CMwGTc4MJoQwixX6wHPtLGCbssh1aggm/tMb6gE5sg3OKCexsk31g3X6usQdW9onPzTzUn+0yH/tzOAlqDyvyaJ3r+3u0vi/1VgpIASkgBaSAFJAC7xUFHhugJZwRJP3GcyaeE7q4J7xeA/TS2kgYJIDxmIkgeFTykEoYJDRySx+zjG+DedkugZqWYgZieuGFFxzkEfR4n3Dr60y3R9AkGPq6aAn+53/+Z2f1ZB95nWDJ5J+V9RAu0xvvEz648TrLcCPg09WY0ErAJdSyHoLxm2++aT/2Yz9mTwGcqQv1Yn/5DL5NXyf3TB5k/X13MfXhn5H5jsuTyq7DR0AB/90f7iq/ayUpIAWkgBSQAlJACkgBKXAaCjw2QHvu3Dk3D5SQSqsjgYyASGgjgPo5nbTO0g334x//uIM6WmY9RB71BXgw4/I33q2WS9vQ8klLJqGRP/SZj3NHeY2J1liWoZuyh0H2hYDn6/Tt8T7rYZ+ffPJJ12+6DXPuK/eEbfaR7RNIaU1lpGNCMGGU9TKxDublPF2CM62mtBKzPV5jn+n2TOsrtaEu1wD4jIjMPvAaLbesnxDqIZt9Zr10WWadzMs2mZ+Je16nRZcasNzhxD4ovTcV4L8Hfb/vze9WTyUFpIAUkAJSQApIgYetwGMBtPxBzQi8tDx6+CNk+R/aBFyCHWGXgPiZz3zGfv3Xf90BLeeTesj0X9bhH+c8Zz5aOX/kR37ELZlDoEtDHesg1NEV2bv3EmZ/8zd/cw9oWT/7xbzHJbbjIZn9J1hy43PxOtfO5fquv/Irv+KW8mGUYz4T6yXwsq+EdgI8LdKETFp7CbMsR7dhRjRm3bQ2s7//+Z//6crzGtugRTitAWGa9fH5WDf7n35+AizbomWa7dH6m07putLXdSwFpIAUkAJSQApIASkgBaSAFDhJgccCaCkALa3pebAeuGiFfOONN+yrX/2qszB+9rOftR//8R93VkqCGCHQAy333AiQhDsPeB4w2Q6hlvCYTrRKMngS4ZBrubKOX/zFX3QBmwiHrMeX4bFPBD1/j236PLzOZyEYcs/2eZ/Jux7Tnfn555+3n/mZn3FWUd7nRvD98pe/7Ob5cn7tE0884UCflldadzlH19fBumnpZf8Jq1yux7fBfOwPrcbsI+GX6+r+2Z/9mYNdPiPv+/7z+QnOPGcZgjmPlR4PBfRdPx7fs55SCkgBKSAFpIAUkAIPWoHHBmjTwhIICbQENVoMuT7qn//5n9uLL75ov//7v+/AjkDG+9x8fkIbEyHXQyzBjOdMHkD5453185yJrrh0/eWc17/4i79wbsa/+7u/6yzCvHfUj31flhDKtgiXbIv94j2CMy293PM+N17n83BjIpjTYsv6CZesi9ZotknXZ97/yZ/8Sbd2LAGVz8f6vfsyLdY/93M/58D7D//wDx0I+3oI06yX/WK9LPutb33LRWx2jeOD15mfWvh6CdF8DvbbP7ff+2f25bWXAlJACkgBKSAFpIAUkAJSQAqcpMBjA7RpWPLWWQ+dBDjOKaWF8U//9E8dcBHEPDz6PYX0cOjB7qMf/ah97nOfc4DGfLzO5Pf+mHDHRPAjQP/RH/2RA2EPye7mER+EP4Ir4fNTn/qUA0jW/VM/9VPOQkv3YFpjafXkM9C110cm9sGifJ+5Z3tcm5YWVwIoLad8bualHh6eOYf4Z3/2Z9052yfYcs8ozv/2b//m3Jjpwk0Q5vNzbq+fz/uv//qvbokkwjKX8fnGN77hytGtmRZfWo3pmk0YVpICUkAKSAEpIAWkgBSQAlJACtyrAo8F0HqY9WDKc0IsN7occyPMcbmdawiCxERoTOfnNW9x9NeZh9ZQgh8tlh5amZfwyHZ8Xl7zia63tNielHxZAi0DWv3ar/2asyB7iyjh9id+4idcPxkcitcJtJynurOz42CVz0QXY/bLW5HZL7+xH9///vcP9JHP4YNCcY4vn5F1/8Iv/IL98A//sANxBokiCBN6f/VXf9X16wtf+IJrnxbtP/iDP3Duxb/0S7/kYPeP//iPneX2wx/+sLMIs14Gn/Lfy0k66J4UkAJSQApIASkgBaSAFJACUuA4BR4LoPVwSRF4TMgjkL300kvOjfbrX/+6s2rSPZdzaOlqS4unh0qCLxPBjmVp3SQM0rJJYD0qESYZKIlL23z3u9917sbf/OY3XX6CHa2UhNXjoI5WVkIvLa6bm5vO9TndDkHTRwsmsLIfPOec2KewvA4jNTPQFftIqyihm/n4/Hw276LsdXj77bedJu9///vt53/+5x14EoLZDvvo4ZgWXm7UgdeYmIf1sn7W6/X2z8b73Hjf5+Xea8d6eK4kBaSAFJACUkAKSAEpIAWkgBS4GwUeC6BNC0IQIywSNOly+4//+I/26quvOistgfY3fuM33NI0nOPJRCgj0HJPAPXzYf/u7/7OXnnllT0oS7fBvMxH99yXX37ZLXvDgEoETCau6frbv/3bzkrpoS5dnsc3b940uu4yWBUtsLQiM3nwIxz6RIBkPQTQixcvGuepfuITn3CuzXw2WlYZtdkDLcGcG8sRZAm4vMfydGGmBnQP5jVaoOlKTA1o/SV8Mn+6DrbNjfm4/A/7SDdo5vGJbfmN13jsoZZ6sbx/Nl9GeykgBaSAFJACUkAKSAEpIAWkwEkKPDZAS4AizDKiMa2r3/nOd5z1k3NgFxcXHXQSYhnpl+e0dnpQI3AxebddH12Ydfp7aZEJn3TlpQWY4ExLLa2knINKCGYiHLM9tnFUopWYUMi5rR5e2R4T2/THviyvEQhZL5fe4XOwnwRQztn9kz/5kz2gZH0eHgmg1IN9ZFtcY9aDKF2Yv/SlLzkrtm+XFljO333hhRccKPMZCO98ScC5uQRwAu9v/dZvuXm/bIcWXboie6sun9k/A+97S69/Fu2lgBSQAlJACkgBKSAFpIAUkAJ3osBjA7SM6ktXYQIlQZPrpRJQP/ShDzkXY14jxBIkCYIEN4KWB1YCJOGLlkqCH6HtMFRScIIdLbOs73vf+56rg/mfghswYZNAzcS2vcuwu3Dog3lZjnu2e1Rb6SIeEtlvlvFu07xOCy8BnvUw8Zk8UBJkaXllX3xwKfaN7fFZacHlnFlaanmdLtm0MBPQGRCK5agtn5tt/M3f/I1xPu3nP/95ZynmPdbDjW1yT0suoZqAS3im3rd7vvSz6lgKSAEpIAWkgBSQAlJACkgBKUAFHgugJUi9/vrrbi4rAz8xaBLdiznflNF5CWOEPeZLJ14jEHoQJHQRxNLutukyPKZllpbKawguRQsno/nSDZhl2S73BGUPoMeBnG+LgMr2ufm8fs/2eMw96/MA7ue58hrv8zk/85nP7D0HrzPxWWih5Rxfgifzemspj9n2+973PvvkJz9pX/nKVxyo8xot2LTk0jrrtSGosi66SrPepwDwhH6CMMsQfHnO+jkvmGvyEqSffvpp+8AHPuDu+7rS34GOpYAUkAJSQApIASkgBaSAFJACxynwWAAtH57WWVpl6R5LEONyMoRaD6fMQyDzwEsIYyIspkGLkMogTQym5K2OhDQPgoQ0BnPiOaMFsx3OaWV+Ah1hkmBLSy3bIzgelXx/mYfJ9+G4/B5qufebB1paaxkkimV5z/eVkEkrMAGT13wdvhzBlMBJzQi9hFUPuizLY7pXs6+cH0yQJugygjHdq3077D/r8s+/urrqYJbze9kmgVZJCkgBKSAFpIAUkAJSQApIASlwtwo8NkBL+KLLLK2VBE0GSuI8UwIjoYwQRyjjnFECIIGNieX8xjwEWpahSzGPeY3l6T5LCCagEd5o+SUMPvPMM84FmG6/fh4p59X+wz/8g2vHg+rhL45WY1qVackkOLNO9iOd0udsl4n18Tr3LMONfWTbzOPBlXlYL5+BfecxyzCvTzwnjPs9+8PydFPmnuUI6gR4ztNlnVxO6ClYZ9OJdbJtPzeX0E+YZVAu1s8+sg0lKSAFpIAUkAJSQApIASkgBaTA3Sjw2AAt13LlkjSEKloRGcWXx5zPSdjiRjjj0jqc00n49cmDI/MQXlnGWySZhzDmgYzzSjnHlHtuhGeCH6GOEMg92yHM+fmxvp30nlZRWkQJz4RN34d0nvQx++Zh1B9zzzZZBy3C6essy2ekSzABk+3RWusTn4f1UQu6GFMr/4wehKkFwZRWbVp5+YLgIx/5iLN8+3rYJhPLsB+Efu5XVladDv3+QEDrxdJeCkgBKSAFpIAUkAJSQApIgbtS4LEAWsLgs88+a1euXHFQx3O6HROyaB0k2PEa55Few9xXusZ6y6aHRN7nxjKEP4KgL09rrq+D7rN0Zea53whw6cSytHZ6t930PX9MWGQ57tmu74e/f3jv4ZV79osbQZobXXxpQfXJ18X+8VkY+Imwyuf2iW1SAwIxE8vwmNeZ/BI9rJeu3DxngK3Pfe5zDoKZh33hxjJ0R6a1me7JtArvYB9N96M1Mw/zHpeOu3PQZn1caV2XAlJACkgBKSAFpIAUkAJS4L2owGMBtPziCG/eJdjDGqHP3+NSN4zy+9M//dMOdj1geSDjOTcCJsGXbrbf/va3nZWVeQh8BEAPtwREbr4c26e1k/NL2Q4DLaWDKrmOpD4ImgRRbrR+EjZZ11GJ11k/6+OxB1Pu2RZh/tOf/rTrH++nwZHzeRnIis/E/Oy/t8T6fDynhZb9pzs2rxPI19c3bBXW3Qosu7R+P//88y4P++Lh1z8326WrNcsSsjOZ0OYwz5b18d7BdPj84F2dSQEpIAWkgBSQAlJACkgBKSAFqMBjA7QETgIsoZbg6SGKgEWQo1vtxz72MfviF7/o1nHldebxm4c8WhfpMvzlL3/ZRUcm5BHePNByT2BLgyHLsg26Ol+4cMFefPFF+53f+R0Ht77ew/8caZ2lOy+XzGFbR8Fvuo9+qR4+G/vERAilazVh9vd+7/dcn/j8TB4s6Tr9ta99zS1nRHBmPXxm3vdQynO2z0BP3Jhefvll5zbc7nTtwx/+oFumhy7LBH6W9dZn7vncBFsCLa3TrJdzZ1944QOor+Hq2/9IYPaARRaX7gVxD9Sx34A7upf6DlWhUykgBaSAFJACUkAKSAEpIAUesgKPDdASHAlz3BPQmHhO2KKrLEGUgZwItoRPD4vMl4ZOAhrLffSjH3VgTDAjyPk83BPe0u0QLDmf9uMf/7hrj4GpON/UwyPbOJwIpkwsy2V/2Df266hEKyf7w3rZLp+JZdgvWp5feOEFt+c9Xy/rIVgSsDnv9UlEQWYgKtbh28n4PgByP/vZzyDI1VOurkZjwbXRhpvxCPBOV25aW/N4bv/SgBqzPfaBgaLYH74IYHAqak3L8cWLl1x9bIfwiVcI+NxP++Gp8B3MLh/MMbuYJtdZhqS+/bqOOzqyvuMy67oUkAJSQApIASkgBaSAFJACZ0qBAOCWxoEz1Tl15mQF0tB9cs6T7x7+B0DI89eSfYKamMk7qwhr9gI+fR5e9GDo97OMJ+7S5d1x6gJbimeV+ToJtf7YVxykyrhryMBL/rKrx2dO7fm6gHUdri+VRYdSQApIASkgBaSAFJACUkAKnHEFHhsL7Rn/Hs509wiFiYXU20kPAiM7fxRs3s1DESwPQOgMTP11D54+jz8/3EYaZg/f07kUkAJSQApIASkgBaSAFJAC7y0FBLTvre/zPj0NsfAwMnqLbIKU3lbrc/I8cZK++y4kLSX1Io6ys8zyLLmy3xPf5j5WH2yLFl1fJn3n8JOk7+lYCkgBKSAFpIAUkAJSQApIgUdXAQHto/vd3beee1R16OiIEAg4o0BCJN2Lk8V72GSS20OiB0h/fjed2i+DWuKkJYfFIFPvbuzrT1rer51lee84iPU5E8sxlg9yF/Zb5NH+mc+tvRSQAlJACkgBKSAFpIAUkAKPkgIC2kfp2zrtvqbokXNTY3wQCCP8l9zyYMiOeHvsu8VC1jzDZjedG20FiELt2mc7CbiyFeY8rrXD1tt0Ph778jh0KX3fX9NeCkgBKSAFpIAUkAJSQApIgUdLAQHto/V9Heitj9Z84OJ9O4Hzr7OaToGuCXBitV1QJTYXJTpvUZAFZPrwSveh4Rl1BhHAOYMlk1BlAtL7MJs+T7eYdkP2sOr3HoP3z9MldSwFpIAUkAJSQApIASkgBaTAo6qAgPZR/eZOo98zgkzssBGAcmLBZID1fbDUzrBn8bhn09HApqDKabZuQXHeMpVFLGOEZYredX8S3HSWWdTF+tLwymNuzEX3Z+6Zh3uE6sYnD/Y+3Kn/8OX8+V5Fexd0IAWkgBSQAlJACkgBKSAFpMCjqICA9lH81u57nx0JuloJs1NYYTMBYNZGFo+aFnc3Ld5atcnuqvV31q03imxQvmDZ8++zued+3MLsXAKWd92vGYjulUv6QctwZoarhFfm8i7FzOpBljec4zPWtXUze2HVdXdn6wwzL8v6Vlzt/oT7/cdmViUpIAWkgBSQAlJACkgBKSAFHjEFBLSP2Bd2ut0l5REhMY81GuKwa+OdFZtsXLPRxooNAbXj7o6N4owN6qEVqheRZz9c1N31DW05l2aW8vZdujMjBBVuuTVvuSfcRnR/Zt+QCKuZDO4nLskk3SRMFQ5i4C0L4wrr9GvleovuLc7RPivrVZICUkAKSAEpIAWkgBSQAlLgkVNAQPvIfWWn1WHQXUyrLObMBoBDuBdHw10br1+z3hvft/bWhg3au7g3tUyx5pAxDIM9aymh8RZgPKmrMz5NZ2EIqkw8JU67ywTVkC7PkxH6xuvA1ADwG6KlDFsjuibwmkAsyyW94BF66qDWlcO5qxXZHfPiXEkKSAEpIAWkgBSQAlJACkiBR1sBAe2j/f3dv94DGOFfDAocWIBtuH3TxptvW+/mm9bdvGn94cRG2bLV5hesMH/BgoUnrdi4YLlcLnH7JS2SLe8kObL0GQGoNK46d+HkRuJSjGP0Ix7s2KS9aaOdm+DtiVk2j/8LlsmXLcjkwK9FC/MVC/JFXCu6+4Y5vTGgPIJVN1nXNglrxRbvCrp9F7WXAlJACkgBKSAFpIAUkAJS4EwqIKA9k1/Lw+gUqHKKObPjDiCyaaO1a9Z+4yXrb9ywXhNAmZu3uL5kuSc+YNWLz1iuumi5+qLlc0Vn8XQ86z7utO+g3yhxNSbMJig7cyTO4IyAPYXb83Dbxhs/sNar/2mTYR/wWrJ8ue62IF/D+ZxZfdmy1SWLKlVYj6ug1gwYObQxoldNGS0ZVl06KdNSS+ts0ipP7rSvyicFpIAUkAJSQApIASkgBaTAWVRAQHsWv5UH3qcZQMZDwOyuxbs3wJEr1tresPFoiIjGBatdumrlS++z8vJzlpu/aLlCxcGlx8N7ZcN9mE0CP4FF912CsXyPTcY2GXSt39y2YbdtQRYW2UIbhtldHFfgeQxLbWHdsuU5Ky8tW2kJ0A0rclCqWS6TB8xieaHb6ol2RLe3VUkZpIAUkAJSQApIASkgBaTAWVNAQHvWvpH71Z87ZTSfL5q4QFBxb9ei7etw8V21TnMHcZYyFpbqNnf5aVt67oMWIbpxnJuDETTEfNb9wEyJ3/G9dz6aETFjPx1YXxdBoaLx2Ib9nvU6bbgmw4ocYl5t2EU+uBxji+Ms3JDLtnDlCqy6TwB0x5bPwkabnwemhojVnD0BVynAfvJne4DuL+xnEfumtdCxFJACUkAKSAEpIAWkgBR4iAoIaB+i+KfWtIcw7vfI7IjWXORghGCawIaJ9WXpajzdAMy+9j0b7DRtCK/fyvkrVrvytBXOPY11Z+sIMIx5qogmTBdeRHBC/SiLqMMnN3RE27zk5s3uF/XdTnKjTsyXtdo5Kz3xI3YOltlxp4VpvlPM5x3bANu0B8DFlsEaudl+yyZrPWsPN2y0fc2KS5etdO4Zy8xdtlx5Gd1LoNa7G8eInIwHcc+QADTdnpMgUnuSHexQ0i1+8vpepv3LOpICUkAKSAEpIAWkgBSQAlLgwSogoH2wej/41o6DMtcTwCgtoNHYRTWO2wjAtInlea6/YeNJaHG2bsXlK1Z/5oOWr5yzTKGOUoBMLp1DoHNQxwZYD8It3Qvk7dUxK4zdnpUWQJspL1iR82YXL1oMK23cBbQ229ZqtW2yfcOi8AYiLw8s0+/apNW1QXcdQFuySXPLMoghlZ+GCIqMoFHZEvoHDGeUZCY0EnFJIH/KS+5Gst97FDzaLYllBLW3yKILUkAKSAEpIAWkgBSQAlLgQSsgoH3Qij+s9vbWZ511wFlnaaUcwlA6QkDhXRuuX8fc2XUbw/qZK1etsXDRKrB05rHPAm6NUDidESB3pD5aWbn3NIjDu0kJOCbL/yTsSOj0FElIhlsx2sjk4VqcqVpcGFu5OrHsIub7Xli2aHDZAkRjjndu2GAXa+QSbCdD622vWXv0XSu1BjYHU3OxcQ7r5jZQF+qDCzKtyxksO+TDUd1Nn5VXCkgBKSAFpIAUkAJSQApIgbOhgID2bHwPp9sLB7OERE+h5M8IwZcQRXjaR+AluOvCstnfuGnDZtMmyJerzVvh0pNWAszmKotgSlhmjTCIxKoSEp3tZ5Drbt79h69qv3ezOmgJJny6SFE5C8i3pdgKaL+AgFFxBMgeL1hUr9h0GxGOV29aZmfDhnBNHg/61u7AfXoUWxb1hJO+5blmD8A8yMFi6xpD/b5xHPBQhteZ9tpJASkgBaSAFJACUkAKSIFHQAEB7SPwJd11F0Fm3mCaWCBJoMkVfiZHuIZ1Xm20ZXEHILtzzXa3bmJpnLFlSgtWW3rC6lffZxkszePmy8ZY9ob8R+ojWHJP6yxdjZl4fi+JnUFZX9zvXVVJR2e18s4sM2EUvsLBuID1ZmsWzD9pIV2Tud9Zs+zKNbPNDXB6x6y9Yv03mpYf7loRYB82njSbq3gR4HnMxgmzHsrjWV9mPfGX0aSSFJACUkAKSAEpIAWkgBSQAmdLAQHt2fo+7ktv9jmQR4RZn3jsCQ3uxlEfgaC2YN28ZmO47fZaWLIHgFqauwCXXgRVWrpkUbEGSyjKzIr5aMSce3oAPn0T97KfceqB+vYegld9+7NncRl5DcvywHU4KANQy0uWqSxYWEEEZgSAwoK0gN2bNsa8YOeOHIbWwZq5eTxAIVfGsj9YPzdEgCtnqp09HFo60IeTnuWOM55Uie5JASkgBaSAFJACUkAKSAEp8G4UENC+G/XOYFnPgTNGPNRDuBl7wI0JtIhs3EUgqBtv2njlOtx0hwDCc5aDdTasX7AgX7UQ0YUjLNEDOnQW2njGfjRs0jbrvJnZytENHmr/hFPf8aOyOHMwCdJT5CwzwTVLsEVP8D+jFWeqcJe+EloFkFso5GywGiEi8i7m167ZCtyP5yeBzQOE88uA9uISaqQrdSqd1A+fzXfDn2svBaSAFJACUkAKSAEpIAWkwENRQED7UGQ/3UY9k9F5Nh1uyQix2IIY4X/HXYtacMvFerODjVU37zRGNOAsXIwL55+23Px5TJnFXFPMnc2QXmGSZQgpHvrk2sF56pK/dY9733MWT9c6a2Sv8Vk+wrULSkWaxXG24Cy2GVhjc7DqZrE0T4YzgjF/dtTuY34w5gmvvmb5gDD/Q3gkRDkuIlAUwN1BcbpJdkFJCkgBKSAFpIAUkAJSQApIgTOtgID2TH8996NzpDSSH9x1HdDCzXiM5W96dMVdscn6ivV2tm2IubNhtYLlcc5b6eIzANplwGEZoMj1W7GEDz7JjnT6JdjSOpt2YMapS4eDKfvrt917Uy+W0tlPaNAvs8PWeEyo5SPRJOz2PAKgs4e8nwHU5hC8qoqbiGKcxVbOBjZ45y0LW+/AtfoN6/bWEWpqaAVYd6PFjGVghXaV0dLrH2pWN5tRkgJSQApIASkgBaSAFJACUuBsKiCgPZvfy7vqFVmMHOaZLDkC7MFiaREiG49bFvU2rLN+wzpra9bpjSzGvNLa0kWrYt5sfm7RwgKWyMGSOS72755lNOkW8ZjJs97BtpJ79/ZJaE1V7EA8OXecC4uqg2ssOTSdwroK/sw4d2S2NkV/0DMAeAzyjt1qP1MEgRrBEhtbeRJbYzi0aWsHlmk88wrmDWdKVpzkLB/nLVvF3NtcAfXMoNY/nX9YJ+a+omzRZ0kJ7S7rQwpIASkgBaSAFJACUkAKSIEHo4CA9sHo/MBbOYRegC9cgYU2ZiCoEZbm6W5Yc/2m7a5t2Kg3xXqzNZs//6SVly+7wEqYYIo+owwtlp5ckyvuWVg/N2/QdBfv9IMFmVL1Jhdmn/6+ywM4xRI9U0BsMAXOgjcJs6PJFG7FsBrD+spIzsl/nCGcwaPCqozrmFBrmTncKRetjPKFaGTdNwfWhpt1e+26NQdZmwuqVoerdQZW3TDLZYlAsOwXrdnsB83Se4l0mz73D5C+hqLs6x5o7xXWgRSQAlJACkgBKSAFpIAUkAL3WQEB7X0W9GFXR7Tawyx/4Dvl5s7C3XjjLZte/4GNdrdtHGUt13jCCheeteKFp3C8iJV4wgPYxuIe2cCTDmJ9le9q7ys9qRLmIUeCL93j4JyuxbkszyIbT0fYwcKMZ5sGY4sQpXmCwE/AWivB3TiMGckYdtfqRctcjKw4nFg0ARAPszbo96wFK3WMubdhqWA5uipj3rBb8JZ9cv1DO4BTLyX37jLvg+Yj/EeATScXnIrLCglq07LoWApIASkgBaSAFJACUkAK3HcFBLT3XdKHX6HnMNcTmlB9AvTF475F62/b9O1XbLwLuIOFMr/4tJUuv9/yCAaVrTXcHFkXAsqtMYvaZgTHaa5kNPIlEe4gxvlGZjdmZVJX3+WhD3AFOCWoYhbsGHOBxwj4NMEzTQG2Ea5NYYkeIppxFuGYM8WC5TNZ9BfBrcrnMLe2ZIXxxELAcWd126a7Xetu3oAGgdWWlyyqz8PiW8IDAtvdgyZPSOsvRUCx2REPcC0AzMJaPJ3C8j2D2hAvAzJc00hJCkgBKSAFpIAUkAJSQApIgVNXQEB76hI/hAY8ae65C/MCLYkInoQ5tNN+2ybtFkCsiLmjdZu79KzVzz8FUEQQKKzTyui/xEfHpJh/6tbr8Y/hQI54lxCrb4q3DzAsbxy4gPND1/bL7h+xnnRiFbR0hi7gU3JnOo0twnzg3d2m7Wyv2bW3XrO11ZsgXboMZ20CmC3A6jqHIFfLsDifP7ds89Wc1TBPNli4AhjOWDUG1Mc3rT/GHFvMJ+6vX7cc5g0Xz5VgraWVFlW5/uID9cVs//ADwRV6NBpZs9kEXI9d5yqVis3NzaF/EfSkPVtJCkgBKSAFpIAUkAJSQApIgdNSQEB7Wso+rHo9GzqYJYzxgBvsi2OsOzvoYv5s28a9HiyRZctWGlY5f9XKi1cAsliTNQKEgd0ci8ICSZhziVV4w6MDveQyPx108sC3zWOmQ/mOvsZMrPzkFMAq61MMmJ3A0tpstu3GjRX7zrdfstdf/4Hli1h2KF+Ex3DW8gjwVClV7fKFS3BLRtlLi1auwQI7dwGW26KVEAgrAtjb9iq0QJTnzZvWK8/DQn0eXAwdZu3x8WmZZTwtsjx7GgKwHd/ivN/v28bGhnW7XWelXVxctHw+b0W0IaD135j2UkAKSAEpIAWkgBSQAlLgdBQQ0J6OrmekVlhkY8wx5WZji5trNl294dZkHVvBivVlyy5ctLDcQBAlWGddICXM/SS2kTOZSHA8Jk867sQBwRbX6JV7S2IeD76474vu1ccCR168paajL6BsBLKcwM230+nYxtYOrKOxVSrz9sTVq7a4fN5y+QLmyI5td2fX+sO+vf3O26DSoeXD2KoVgG5x0XKA21K9bMPdkU16bevvrlhQWbDq4pMWAWjprjwF1MLQaoPBEPVMsB+j3djqsPyWygUXL4rW2ZdfftnW19cxd3diFy9edP26fPmyOz76IXRVCkgBKSAFpIAUkAJSQApIgfuhgID2fqh4VutgpN4prLJRBxTYtfHOmo3WVm3YH9kYc0ULc0tWXDyHgMY1QBwsirTI+vVg+Uxwqd1LexDK69hmUJuYcnGeyurL7F3aO/B3uOdFVnS7xHz75Mz5rHQ3jiIC5sA67R5cp83yBbgXL1+yq08/BdgsW6vZcm7A3XbHNrc2rFzM2sJ8HdNj83AtztsQc21HqMOigQXjtg3aW2a76wDbdQtg5c1l6sbXAP3pBK7NXWvu9qwH3SIs/9NbmLf6XBXt5J278VtvvWXvvPOO608Plu9SqWT1el1Ae7uvVvelgBSQAlJACkgBKSAFpMC7VEBA+y4FPJPFyYncELAohnU27u9iW7P+zgqWrNm2EaZ7xrmaVeeXrbIAK20RLrYuCBIolVDrAJKWWGw89ekgW7qraf49kNeX4Z48egBqD5ykcx46Rv9n5Ozn7B7KkGAxqpsCviMH4AEiICNyM9x+c1iGhxGRpwD7Me4NYF1twdV4BCDefPu69V5/0+YGTctHsF4jwNSgvW0bazdsHnNxF/KhtWCZXdlu2o2ba7a6sokAUIxcnIXrcsnm5qt28fx5W99Yt+3tbdvZ2XFux41Gw7kh01qrJAWkgBSQAlJACkgBKSAFpMDpKiCgPV19H1rtDhlpoY1BrxPMFcW6s/3WDqyNbcvEmGNaqVlu/rwV5hdh3oSLLS2uzod4ZnrlsZ8/SyA9nNKge/gez1Nl2BdXddIpdw/4eVSpI64xX9InVzyVw9UA9+PBcGjdTs92W03b2ty0Ho77A2yY38qAUtUqgj3BahoAcDu4ttsc2i5dlTtdq+cysO7mrQff4sGgY+PNFYtpoUX+nc7AVtYAuetbANamFWDFzmJubn+zY91eC8v8hA5iPbxmAdLcuPyPIh2nvigdSgEpIAWkgBSQAlJACkiBU1JAQHtKwj60alMgmZhFAbRwO7ZJB+uutq3V7VkBc2bD6nmzxjKCJGH+bI7/DDwuEhNZiSPcZJdmT5/t8AOm2vVZ/J63eBzsmXOTCtP3D1d38NxbarFHZTEiL8euLuwBtF2AKS2l1ber1ofL72g4ckvp0Kq7iOV4Ll26ZAzWVCyWbHNzwzbXVy0cTaxSrmHLWzUcW7uNebmjgU1aG3C/LmA92qJt9Ke2vdNFx+GuvLhkc/U5Nz93deUmtBw4iB4jOBUDQC0sLDiI5RxatlWG27OSFJACUkAKSAEpIAWkgBSQAqergID2dPV9yLXDQotleuhyHG2t2LTbgWsulsAB0ObnEQwKQZC4NqsDWEY/mjFscjDrehpmeekIcJ3ldDZXF/0XF3wxB7I4x8I3LpsLOIWjpBp/1926zQehlomf3HwLvJakGG7FhNntLawxi4m1pXLJzsFtuo65s85KC9fqwaCPObWbdgFrzc4tLMF9eGI5G1p23LKgF9sU69p2YckeZW7aziRrPfBsFSA7j6V4FrAEUA7w3+nswmI7dJGW2U4eQag4Z5ZtnDt3zpaWltw8Wt8v7aWAFJACUkAKSAEpIAWkgBQ4HQUEtKej68OrNaE+ACOslwh6FGOpnmh306Lrb8LtOLJMNu+CQZWXrmDubBX9JMUice4sYNfNm3Xuxrg2m5Pq7vNjlpWHrhlaS3Hs0XLWtLuWHCefLMY8mVlOz8R7BttZPchyS/J1+jLskr/GzHQpLiAica1ac+u/EioZedi5ASNjmMlaqVC0QqHgXIGHI7gbw334yYtFWzpXs1INa+6OO5ZtTS036tsEi/R0B23D8rbWCao2xHa+UrUnrjwBKyyW/cHasqvrWOIHpDvFkkiTSQQ34xD11xCUatkBLefR0mqrJAWkgBSQAlJACkgBKSAFpMDpKiCgPV19H1LtnDtLhIS7MZfr4dqzu1vwPIY1NsA80HLdcliyJ8hXcM5/Alh7ljDLFAE/Pbj6oFAkSNymjXQ8GSPA0tDGmJ87iSc2gWV3iv0Y8JyB1TPMojD9glEJqwnxmQdU5jI5LJvDM+TBdeZJWkTlbAf/p0GVWdIpuTf7RHCnCQJeMYWYxzo/N+/mwT773LOwojZsfn7Otra3ML+15yIit9pttzYswZNryXJC7wggOhghWjLmCYfoW0yIxxMGANoQLs0hJhVnoQ16jmBQEebk9jFXF9qhDsJyTIs28odY2ofzZgnWtNYOMZ/XRzpGBiUpIAWkgBSQAlJACkgBKSAFTlEBAe0pivtwqgaxEWYRudcAmoSuCBF8J+0m4A0OvzmAJJbpydUXAIOY5xnkHFwmFItyBD7wsKNOMh6plJexn+K//rRn3VHXuuOuDeCeO0IU5QHWeB3A8pnNZxF8qWgZwHFA12bgYD7IWwVr3FbygGm4N/Oc9Bo4tCXIshH22V3Gx8HEnLyVZEjYN2LU4jFhPbY8LM4Liw1bDpftheeft8tXLtvGxqa9jaV0Xn75FeSbOBfkbJh1Vlq2ls/DyXg0QnCovtWL6FsWTwZAjaBbkIkQHTljNQaRiksoX7Ahoh0z2BRht1jIYZ4ulkCajlzXCbgMAsX+dLtY3gfW4a2tLc2h5VemJAWkgBSQAlJACkgBKSAFTlkBAe0pC/xgqycYAmIZ2TjG3Fm4zsYtuBsjaNIUVsYcgiLV6vNWhFtuWChbgOVpEnJN9xL0Curjeq9TbLC/2iSA5THuW2faRaAkLFPT3bJdzMttDlrW7ndshKBTtNhmEDE4i+Vuwim2GKAHoC3AItwoNmyhvGDLtWWbL8xZiWvgZgq4lwdA0moLaHVgy34QOZkSjOVRgrz71zMBUBnWXkJqyD2gluchoRXzWRvz85jn2oELch1rx/as1WlZtVZ1GtQw15VBoqKtN219dd2KI8ylzUc2BrRyiR9aWmvIW7t4xbZHJYtaAWB9YKurq7C8thDlOMSatDuuTw0E1KKFmBZbLtvDqMptWIMJtAwMpSQFpIAUkAJSQApIASkgBaTA6SogoD1dfR9w7YBRzAI1rj0bDxzQRtsbNgXcwcPW8rA61hoLANq6hYDbBGj3QdEhJCe2YuNc0glwdhSMEDKpbzvTbdser9s7vRu20r5pW4gGvNXesm2s3TqKRgkXw3UYHGtZfHDLxzkrZsq2VFq2i/XLdjV+ys7XLgJq6zaXq2M+ajVx6YVrLw3BHmb3AfYw1LpMKJe4+folcvII1ESYJYxyjmsV82nnAbV1BHOihbbXhbvwAHOJYYVlpGK6Pt/YfgsRjzet3MdTIqjxFFGNQacOsFmec2YLfVhjwz7Woe3A6rtmrRb6iWccIvBUvVazBubUVvBygNZZboRoblyXlnCrJAWkgBSQAlJACkgBKSAFpMDpKiCgPV19H2ztnCCKuawgWcz77Nqou22dtXUbYT3VcVzA2rMNKy9fsFJ1DpZGrD0LS6dPREdOo43gckvbbD/AOq7Ws/XBmq331+x695pd771j68NVa052bZQf2GgBc2kbiPaLgFJxGGM6LhyEYbHE1FTLoBsh1rvtTQvWG8ENd7xhN9auW2NzyZbzy3ahfNEuVy/bYnXJGtUG5qvm4KJMB+PbJ85vLcBtmJGFGVV4NEJ5uP1WAJkZWlnhMlyHJfrq1acc1HJO6xzm2fKZCavLS4tWgaW5i2eojzctHLatPcL8YEScimBhjrFsT4bAivqfrSLoVAGu1MWsg9YYlmhC7OLCop0/f96tb0srcQkvC3wgKB+A6vZPohxSQApIASkgBaSAFJACUkAKvBsFBLTvRr0zVxZYCpfjOOK6s20bdnetBSvkpAv3Y1hKS9VFqy9dwnI9NQRvwldPgy6Sg1nsp4DZSQBro42sFbdsxzbtzd5r9mbzNXuj9RqA9pq1M1s2ynUtU4KrcAnzZIuwrbIqlCXMZgoAwhEqHiOicpS14Ti09k7ONncLdr153aqTeVsKz9uT1avWQwClEWA4j3m3ZVp2A5hKD6Rk/uxhyGXwKfCrs5JGCMREy24I62qlVIGVli7IWasiMvHly1cc0NJqynmueQAtwbZerVht9IwN8n0LtrPW30FE410saTRmZGgsMBQWLCgjD9ykq40yXKkDrD+bde7Ek+nYLpy/mEQzXmjges7NlyXMEmRpmaUlmMdKUkAKSAEpIAWkgBSQAlJACpyuAgLa09X3lGongvqU4F5yhUA7BMxi8dThlk1AasM+l5eB7RNwFsyft3DxMkAU0Y0PJc6VRXgnQ7gn/Ne2G6N37Hr/mr2++4pd23nNWnlYZRsds9LYwjwgMgdwzsGWW0CbcPXlHNgArsBTbBYCaDEvNYNIUhms5YpCmLOL+7WcjWAt3eqtY5ovogw3ERE47Nk0O7HLlUuwcp5H3n2rse8in43r13qwTfYZqwBaaXXl/RAgm89jTi76wUSoJWQSZGnJ5XVuLg/chotYmzZrVyyuoXQ5Y7nxTcs0YXXGaeTWBorhXuwqtkYDUZQBtKMRIkYDVmkJLiGYFOfwsnG2QRdntueWC0IxLh8Uw2Lu+8M+KUkBKSAFpIAUOLsKcDS91+RH6Hstr3JSQApIgXtXQEB779o9pJIccGha9QMPATAZSBj9N8NlesYti7vrFsHleDjswf83D0tq3QxBmTJ1BCtCUCZkBWwlj8DdBD7CvaBvW7DKrkUr9tbwdXuj9wN7e/CmrU7fxhI/ANj6xIIqlucBxMb0Kc4gbBQss0n74T5yEmhDLImDOzGttmgohstuVIHbbje20Q5coGGd7QK8o97Ugh249cI9eTGch+UYfcUyOnw8lndza92CtTzCFbckEA6RCm59WURPRnLL8bij5IOWWu8CnAGZEi5pOaV1l7VmYYENg4bFsNJOo77lVrctbCNyMYu7ytAvdgLZq7UyrLAFXEYf8Cx0eWYdUcSwWciC8xogl1saYNmmkhSQAlJACkiBs68AxyuOuveS3Eh9LwVVRgpIASlwXxQQ0N4XGe9PJbfiz61XuHSMoz2HUhx8iF3h7Cryw0IbjHYs2n7Tpq0VuNEOLFOZs2DhksEsifsFm04AeCA3ciOmf7o0QeinHeDsm5NX7fuj78BC+xZA9oZ1a1juZw51FjFPFhtCF7s5qoi+5HqQwCznvjJWMQIzoS+IGZzco6UTKYZFd5qBKy4ssUE2ByDOY9kcADL6dnMA2+v2yGpRyZbiRathPm25hEb4aCgeoX+sOUnJoJlxa+ziHk/5IGwGc2f3BmNMBk5u8ZNb0ksGdGIk46RXuI5nCGhlDdECroe4nwew5gjQgN8kwBaXB0J9uB+5NwC0FSe1OjhOqj8AsrjtUhpu/TXtpYAUkAJSQAo8XAWSUfBgH2aD7sGLd3jmR0Wf3Y/Z/lx7KSAFpMDpKiCgPV1970PtHCj2E5fTcZZDIiwtgJiDSrxKhidYTeE4HA+bZls3zVrbcJGF1RauuYWlJyxbWUBWWBqnWbeuLAu5EFCYd8s5s6t2094Yv24vD75t29N1a4c7gFjUyQ3/UhhDKkDwJwIetwQbcegSQzpxI9SiT4BZD9+05sZ5lMvCAoqIxHERbsLjEdxz+xZuASabgd1svWPnx+fsMoEyj7VsYbElyNIATFZ1LAl45fMnOEmXZvafN5PeJA816w52tNLuJZeHSwQhzUCbdfqn4REtyVnArQNf3nHr+ALC8Vw0zgJ53Vq+rgq0zGBQSlJACkgBKSAFHh0FOOoxHfxtkVy710/Wma4PA2bKm+pea3Xl+HNDSQpIASlwGwUEtLcR6KzcTkAugVmuDpu4xXIQSSy2REnOg81EY4swbzba3jTrtgFngNnags1dumrFuSW4DiOC75guuCiKgWICaOtNsCzNdMPeGr9h12ChvTm8ZsOwZZPiEPNtAXII/pSkBKVnJ3s7gi1wEF1JCNGBrqNQZkH/6Jrs9igPuI1CuC0Dbm2Ss2G5ZONy31axFNArW5iXCtit1LC0Dubd5mhCRnLgORuDA4ZiRm3ulHN0+dx73fMHrthtP2JYemPoFU+4bm8yGIcZgDRBlbTsWuF1YvCsA7etVRmkgBSQAlJACpxFBfw4lox3t/bw7sbQBzIusst3261bH0xXpIAUeI8rIKA9Q18w/2b74ea4bu3/bUdul5lAy/mesCNOsFwPIDZqtixqdSwaThE0qWDFSt0qjXOWK1fBZrBSgtdguAUIYj4r1qzdxTI86/0Ve2fwtq3ZivUyuxblZm7GebjaogXWv982LvjxEG9hI4AsvXTjCVB7goqzuEmLLv91MUjU7KkciAMUyboOQmHtHReGNiwObGtnw8JWaI3OsjX656yOyMIZuAPTWsr5vmRKZ4zGIZOz2GJPMCdu+u7w3u0Tc2OjW/EYEaBHiAqNaMkB5sKGmJebzSLKMTvJig8NpA6uUYzzcpWkgBSQAlJACjxaCnD8O5zucDxzvzlSZd346OvzdfjzVD4dSgEpIAVOWQEB7SkLfLfV7+Pf4ZJpsuLAwUEDcMhla0h6uBSPexZvb9t0CxGJO3A9hmsxgx8VSojKW61jziyWkvFjDaqLUK6PJX52oxsuuQAAQABJREFURwgEBaC92bpuOwVER57DvNsibK5YmmcfRjmS0TKKPZvE5oyakxnMot4IC9DGCBPM1XeCIrKD/jJw4d23LuOaJ0RWjTJTWGuH2YHtxNs2AYBf6N205c4FxK0qWKlQQh85z9XZfFPkSi2oAdrG4eExFjcOJDfMug9cZj9RwDlp8yEwj9cAtM41G6SfQ5tZuDw7oEV06KS/xHkCfdKuWPaAvDqRAlJACkiBR0IBeCXhLbB/IZyMb8lYemL3jxtk3XWOk7PkAjj6E+2lgBSQAg9OAQHtg9P6jlsiNh0eP3htH67gwMsMU84g5eCEOa5wHY5GHRu1d23c6dl4moO1seYss8VaA0vtlJEzyyJuXmoMSynXm+1EHducbNj6YNU2sZxOD67GAaIYB4m3r2s1+WCDs15hQIxQUdTHurV9uDgDYrlaUEyXY3jvhlWsBVsPYZyFQzAsvPvPkoDhDCexQzkEiprASmtwa85g+ZyV/g2rby5Ybalh87l5xKBCnQze5IF0r0eJInuntzvAczsG3suHXtFMPQH4E2pxHOChMznM38Xmol+5AgnUOpdq3+T+A+3VpgMpIAWkgBSQAmdbAQ6kHAx9umVg9TeO3/viRxV182Z5ww+Wx1ejO1JACkiB+6mAgPZ+qnkf67p1OPCDBGkKIwr/B4+RTsMIQIsld+Jx28YA2lFviGV48gDEBsAQ67tWsVRPWER0Y7gHI2sCdlx3dmiduGlbk03bGK/azmjDRgDckECbZQ8Sckusk/4YEApX3WgEmEU7wx1EL27HOEZ29IelsuMc4kHksRYt1oUl5PKtLeCVQZVYlx/s6IIcYz3baRHzaesZLDEU2tpw1YprFXuy9BSWCbrsohC72EtJ8yh7dKI6fpw9nIPXbxl76atMX2a4adu0j8LUEP3FskGZkCZm5y+NkrP+4pU2VDlctc6lgBSQAlJACjxCCqRHw7sc09KD7JEDK2W4yzofIeXUVSkgBc6uAgLas/vdzHrmBx8/SHCPYEiExCzmmMaEMUDlcMPGu6vW3t6yIUAzyMLNuH7eistXLFOdh+suyqEqxDxCWRpSY+sHPWsHTduON6wVwOU3B9dbAGYASPbgyaBLBFviHP/bO6OVdgIghXWWMDtp4h665ObHIoLxtAmLMaERc2HDAqyv8NNleSbW4VOENWudhbYa2ATBqjpbLdsZblsLkZr7CG6Vz8Pai06ny/iyfp/0yT2ev+T2VG7KfoL8Yzx/yMnDLhGlYZFlAK1Bx+IOAmDR7TiswNW5amGpApCGidr5FqN2WppnJd2Olw5eSd/VsRSQAlJACkiBM6dAPIs8vL9GOsfkZHTbd0P23U7Ga565I8acwMGB1QPSgOuL3W7vf9LcLp/uSwEpIAXuQgEB7V2I9UCy7o8haO4ARu03j5GH66e61WfHgMopiLIL62pzxdo7mzaEG3C+OGdFAG2OQFubNxpms+A5x3RoI4Z1cgCrbgsW2u0gWaJnWhjA1Zhm3+TVq3NnxghGeEtglJ0D3HFAcnXgKiqOhwBEdIG95Uo50a7ZkO7QlYFl5xGECkGWQKW4y2jHSR17z5adWpQHAFcZsTi0fqtrre6utQdN6w7aVsYc4DzZ0kEkqjgusdqZXH6Mdd3Ec04mE7A/wBidY/vkbD6RAWithyBaXay1O4TVGS7PuVId82irzv0Y/tDJAyVP5qvfb+i4vui6FJACUkAKSIEzpEACsckgGTEqI4ZAjocB3kTz3a0bF2djaDKYJvNtk1wYLhl8AkCMsBhI7uPWp0MWl/gbhQd79SWX3acfoN0JCnBwV5ICUkAKvEsFBLTvUsCHWhwjkFt2hlbG3TWznXUwIyANkXrha4xtGcvOzgEmsfYsOoogxG7+LO2UUxcQqmOtaMeaINBe0HXzWQNGKHa5WcJvOHSJgxQGMgxA2TwGIUBoiHVtCzXg4TLWl4Wx2ODB24WVddTF3FQMgNEYdbg1ZXGfLsZ7dbJu1IF+xGgzyieux9P82CYIFNUbda3b61q9OrAiXJczsEZj5E26ccQnb7HGwynDQE/O2Joq6w6Rm8G0Bl0L0E4uwPpEObhJ40VBxOWCstjcyJ0qd7hynUsBKSAFpIAUeAQUCDBIElqZ9gMbJuOb+2SQRDeK8jcAXjQzLge2cTTEdCWsG4+gj1MGofSV7NEqSkf8VYHfA2HectwQhyLHgdetS8920TDbPgl0cVtJCkgBKXCvCgho71W5h1nODQyzDsQA2BFcjnc3LW5ugFrHsLJWLJwDzBJqERgKEaGS+aUoR68hWli5LmzPYA0FzHbiXVhrAbRwN07WX/WDHBvyG68lQMvlbehKnK/hnw+smpk6rMWDvE12MC93c2KDfB+QyCjLKII3wXini41Ai7myM6ilhdS1AvfmOITlFpbhKaEW+wnWqh1OhtYf9m00wkA6nYAtCc8cNJGS7iXHt/nksj8hIPXIhHqjAUzLcG3OYt1bAm2QLWGDRZlQS3Pz3TR2ZCO6KAWkgBSQAlLg4SvAoXPv58OR4+gE8ImxG2P1BCA7wXSmIYJNDvEbYzQc4H35GIElmcfXwkqwRRgv4xymCGHde2zlmEsEVlw8igBThtxvAeREqEg3/efIph++POqBFJACj7ACx/zSf4Sf6FHvOv/Sc6xg4otSpmO8e5KbyDwFKLa2AbVbsIgyGFTJykuXrdg4j4jFiG6M+aCuCmT1A0mMNXdG04ENpl0bwLQ6DVAH/jUEcM1F6KikavdJmyrJNOkEraw8ZtAoWmD5JncC9+JxfwKv5751r3UBzXRdRq4C+pJngCU+EutIEutP+rE/NzXCiBcRxjFYTvAWmNbkGfImOrBZFjqkBXuwl3gv3fXZDf9ymP1lFrc0LizZEV8EYN3eGBZaKyyAZ/NWm5tHEK05GKGTN857fXB1sfTMlWpWt3ZSQApIASkgBR68AgdGv1TzfpRPXfKHuMVYF8nYjePUXB6O0TGWKxiPW3ihDC8rt8F7q78LoEWciSkttRg3AbqRW7OPlbItbBHG+bho+UHdCrk6Ajw2rDScB9zOWS6LmBTw0gpdXIq8W/3AeT/5bvJ3hBvX/QXfWe2lgBSQAneugID2zrV6sDnTYJYw5MH2OZaR1GBl5LIzUWfXBTeK4gbWkC1baeGCFeaW3BvSmHNHOYjtkR3GH4xqU7gTTSK8iYWVN4allO65MYI0JVCYOAfTkppOyRkwjwMh6oOzMAY3dAPrCE1HsLAOYOXN4T69jZgFZBoxKvJePfuDFo+SDXkAxYyePEWgqTGeaYi3wb3BYGahjYwezi75QrNTt3OD4ewCjx1oI+Psuu+z6wLcjANs0RiDcq+HubPYOwswLLnFkluvt4igUJxsnMBsunLfiXTjOpYCUkAKSAEp8DAUSP9QYPvp8eqY/nAYA5D6nxUc4/mCexr3MI7DY2uwbp3+GiB20wajHXhKbQFumxis+VI6AdqYwTN8cvNx4eE0LdsgU7MsoLYPoC32F6yMF8WFbAPux2W8MK7hGJZbrCQQukCP6IibRoQ++874OrWXAlJACtylAgLauxTszGQntNH1h1CGKL10nY0wzyWTQ/CjYsXBbK5cB3hisEDWZAzDoAXwJIvyNW0Gvsd0x83CvTaEu1AG6+MkwxwRkJmYEhxMzl1BN/i4CMeEUNQXxGgTbs3VxSI8kBcR1AkRl4ctm3bxtncbAInowVwKhyv5MPTTwTSbl4vrEQJOTPFcw+HItnvbttpftTqCW5XCsuUrtDLjPw6AKU/gxH066WXSYwa4mI2ObrCcPQMeI0NYpzWbEY1biFzV3IWHNUAWkY0Ldax5W63jZQBdj52p2nUzgdp9NbwqB59BZ1JACkgBKSAFHoQCfkw+3NbhsfXwfX+O8iG9lTC6AVLpYjyBV9VovGl9LN+33XzT1rfeAMwiwORkB4U6yI9YFkX8XsgCfuHNlXhq+fqwn8JCi3F6NCraZAhg7VVRPwA2bMBKu2DV8jmrlrBVL1gJgRfzmTKglqvMc2oPQZkjK/uvERYiKEkBKXAPCgho70G0B17kwDiFP/6EWbwhjbGGatRr2qS1Y+MBLI0YEPKA2XwFbj5FLD+DtWddAsfRzYhDRTJcJAMio/7mA7gJWSEB2imsklyPdZaSvPz0Aw33oEm8kY2GsMYiMnCM9WiDEWbGYMmdfB6BIBpFuDG30B9kAztOu3ijO49Bk31wJMrKk/ZdvRHq5BbD/Rj7gMsKIO8Ic3UGeKZeF8GhSj0rZYrOVSkAbCb9mnWL1e0l1ovC3BjwCf3msM3zxM0Zz4ZwzNGkbZPODqJCN22MS9McgLa2aLl6A0sMcWDGnB/AsK8NFewpwGMlKSAFpIAUkAIPTwGOb/eSOKphybqA82BHsLx2MNbuOitsf7SK/Tu203nDmv03ALlNWG0RXyI3tHwBKwWUsrC0clzkb4RD7cd4Ww2X46CPsZPj56iEYFIl/FSpwoW5gZUFL6K+XbTXtfJwySplWG4LdQR8rCW/C9ygzjr5tlpJCkgBKXD3Cgho716zB1OCHHZLwmDE6ArBEGMSaZFgBneg3W0bDBEdGMGMao0lK84tYFjAm0+ODyjikBR7zgvN8A2rmyuDoE5BAaGQALTTkmXxVtWZbgtsw/MgO8HSuOAS3tBioi0DS00R9GncBtR2AYsY33Jc4gYDXQjQjsaYD4vuZTgRFuUZECoZqJK1aBNU5CfqBsTGsPAGBFrkC+GrnIc1twq33xLm305QV7fXh5V2COtzFhZgPAMnwaa65XvnHti97eUbXyYOjhQBbcWY1zvtQz4Ev4L7VL+zbb2dJnRDL+AG1agvWxku2mEOEaFTMJuUTmrxXwmbVpICUkAKSAEp8PAU8COfH5E4WvlR6lCvfFbCKAdsuA4TWLuD67bbect2dq/h+B0st3cd8TRWLSiuWzE3hnfwFODJDdN+igBaRP7n74ckeCTbmyUXFCqPKUM5jP857BFLY4JAkWPE9oCld4J5uc3eru3sbGBcv2Bz9cu22Lhi+Tm8TOeKAnBBTtKso/6ReJEvuX3/09dnJbSTAlJAClAB/1dEapwlBfhH2/8Bv6VfGIwQuAGhefH2s2P99rZ1drZhaYww+FSsUl+wIoMaMbJvanxz4wA+GPIJ72cdFzMM/whQOt4Zw6KK+bR4CxshynCGc20dMfrGWZpbAqSub7DSMsDytAfr62CKt7B4gxvAbQnL+EwQbCpA82EBi/wU4Wq8t0aAn5frQRlVMgryBL2K8vjHiHD/sBgXcyWbh6txo4h5OLSYIjHicaaHcjgtlHJ41uSfrh9SWSNrd8+JB/fyRQ5q2XO6ViGi8QSuxiO8BOhCt3YH1mQM0nA5tjpgtoYljhiREYXdtCBXJ1s/mA6rc/CuzqSAFJACUkAKnDEF4NkVZ+AujHFwDC+q/nDdmt3XrNl5zXa7r8O9+IZNw3WMrTtWLO8CYg0Qi/EWASy4FjxXznMvk/3omgy2yUO6Nfty+F2BDdOXYoyr00kWvwsymH5UslEH697jJXy308ZvFazvF4xh7Q2tXKzB/biGWT6sjC+g+TLaV3wMnCct6lMKSAEpcECBhAoOXNLJmVCAf9M9lfm/73xTyT/4iDYI3x4MHHDHhaVxZ3cH1sfAygCzTLVh2XICZgeew8Otqxd4h/mvnebAdtfb1lpDPeOeDWqwghYnwErAKiba+uaTjtDSSmSEqxIqzmAAynCdVphrx12E8wcYM7n1YrHsDqbTWHYOgFovw7JKKyyDPqHbe3CbPBTn3wZwdc7CXSkHe3Ee68FWsOzQ4tyincc6uoUs3JiiLAJUwKUawYgRvspqUdnqsNbykSLIwamy7vEO9Jmzgdljwi0HSvQJwB1jII8R9GIAl+NuFwM7XKXifMPiyoIZBteIAbTo0s26ki7ysW5J1OCE27fk1wUpIAWkgBSQAg9TAXoqTeId6w1XrNV7C/EuXrV2/zXrT6/BVXgDU5WaVqp3sc1AFo5beQyf5M1kvNv/VXDgOdx9BpfEW26Xky+GQ7zcDmyM1QRCjKcRBuseYn6MEDyy3Y+s0C1bpbRoNfyO4AoDLqGMK869S4dGWd/8ocuzzNpJASnwGCsgoD3LX/7hP9o4jzEoBJj7EnWxRE/rhk3gxjOeANayZYsqixbUsVUAthyBMvjr791n+bKTl7BNUcd4iMGl2bPedg/rx8J1GBAXwR0ZL06TjPhM7KlERY4i3Ai1IMgsXI9LGIRGOOsDjsfIicturTm4HGeqmC0Lo2d+oeBciiyHOrjeLPrAuayc15rgMuojkI4QmKoPV+MeYDau2VwB1tnavC00GpZHRESssGMDuB0zGnO/38GzoQY8XxZQG/K1cdI11MyH5EnysLTXzkJfQDcAN6A9bq5YtPY6IkJDP1zLYkDNz5+3ELpZCUCLsrTQQqZbkoNmXD3q3i2ZdUEKSAEpIAWkwKkpwJGI451PHPeOSC4LP7DWOwI8jaarsMi+DFfjH1h/9A6ssjcx9G0BKrtWrIwtj7iIhRLGVwytGOrdaHq45sPnvlWOkUmfsAQffkzkMU4z1GRcRpBIvPyuIu7HpI/fC4i7MZzUrdVewItxLgGPOBwMFIUX2PsjrEZaJ6c+pIAUuCMFBLR3JNPpZkoPSbdtCTAaIyJh3F61eP0NRDjecQAWIcBCDIumYR5oUKklr1QZ7RejhZvzikYczKKBMayzwxHgsDWw4Q7WlmsiH+alxhXAHOe0ziA4GZg4RCXDVNI3QCjeqIZlRihkZGLk54iEtrA8nXNDzs5jgFoAoC4CaOcBpLAoR5y7g8E3cQrmHkcMBsWm4ZaU6QFqW4iUjCASjeI8gLZhjfk5uDoVALQTa6L+brePpXzgas0IV7D0litYngiu1bTQMrHuJPBUUj91JdDS7TjA+nkxFoiPdm5adPNVs/YIV2EZBjgXFy5aBkGhEE0LblLsE0og4rMfTv3eNeLq3B9y/TXtpYAUkAJSQAo8WAX86ETE9MepHnAQdB5HGGg5RsdtuP7eBMy+ZFutlzA1aAurIjStVu1hPB1bpYIRlD8UZmn/yF9BNfuHxx753vCVcpjFC/giIiXDvyoM+zZo4QV1M4ffIXXbbc7jfsZNLSriJXmIF9h31sKxTeuGFJACj6kCAtoz9MVz7LldooXTUWMfS/W01jFGYL4qgz3BXTYoNbA0DhYxZ5AFR3kAO8Af15jlGrTRjPzo9tNuwfUWAZGKcPNt5BZtjEiGQR7W1gzmtwCauQW08CLth+j353jTC//hCBwbljNWQHApWmS5NB2ttGEZltMqlgJCVESWDgDLHBg9zLoBllXBHSkzBsgOC5ZrY2sWbKmybE9Un7B5RGrO5zCvFmUZiqpaL6EeFEG702hsu7u7UIKDJcJfAbCz2O+npD0Opux7Bh0LANXxAD7LCKAVr61hmSO4MocLVplftvriZURoxgMwkBZAOeZaQGR47CiZH9T9QO7P99vTkRSQAlJACkiBB6EARyA/Gp3cHqcIRfBsGvW7eImNYIjRG3iX+6p1hohiHF/HUjwA2erQqpWRFYoATo55J1R5u1Y5rCe/EvA7AMdJXTHGZ0yRKk0wV3YKq28RLsxdzKvdwdSfG9ZGbIwQL8UxWQr3q8nvjtkqBb6GE7qkW1JACkgBp4CA9oz9QyBHnZS4blyG1k6s82pwm8UEFTAYrKUIfx+WG5ZhFAf6CiElc0CJfYDADEP1Y34ogLPT61oTAZFsElglrNlSaRnuxohMjLmuvaDtIhRmcoBAzIXdIztHeMlw5TARVl7SXgYBmsJywUGtoz++3cUWuLe8HP6SJyKW+mPOpSUzZ9B+MMQghrXrcl0sHtQq2rn5c/bk0lUHtDm4FLPDIZYKqBXLDmi5nE+71cczdNwaukX4RwUMEgWLqmuKEZAxlDIIlHOPRmOBi7wMqzYCS0VY4ija2kCWc7DKFgC0F7B+7hW0UUE5uEJDowDPxSdlTdzSgzjPlaSAFJACUkAKPDwF7mwkijj2Yd5sb7Btrc4KYmW8bp3xq5hD+xZeSN9E0KcYVllseJ/LWUr+94eHUj6fbyk9Dp703KzDl/HlOSwHWQAzfmfksJxgFjFAWlPEsWhl0a/AJvgtUCjNY53a8zAkcxyetXanjZ7UId2TAlLgsVBAQHvGvubb/f1OUAuDFOZ/xhNGLMTwgbebhTLWUsUc0AznoGAwoKttMqrwGLCKbTIcYW3XsXXxtnYCEC5lS3auds4qxaLVMW+1Mj9vawUsrN5dBdRivmkO6MpJNPhX4gB1FtCJfchgzotzGZ4FbwhoCcZ/dGtiw7TGJlc4tPFaMkTSJZiLqbvIxm7uLNySe2WrjRdsMT5n5wsX7Fx52YroGw3ExHH+B/7FPJuszc/jGQHwjOI8xTNsbqzDNbkOi3DdsgXWDXSmRZgTYRmGmRGhuVxPZ9OiFcw5biEQFJYYyMICXFm4gDm+yzieR+CqggsI5UTj4DuTj99HenDefw7cOHSHV5SkgBSQAlJACpwFBTKwdAZY8i7OINZGvGKd0VvWBszmSjsA2Sk8nxDBGHNmZ85brsvJSL3fez96cwzmWJh1r3j5uphXEkss9z4fj49LztsrA0+p3C7iV4RWrOP1fD9EpOXAqq2LVs5fgqW46iIgZ/B7wxlqWRkHYiUpIAWkwAkKCGhPEOdB3zoITse1zuEGAwlhDa63oDCMMqFzmc0X6wBazkEhgbK2pEYOInxT2+v3rNvuwfUIbsUAvhLckxk6vxHMWx3L5BTn4LYMq+gQbsx9VD2ihRZuQgZQpDdukE/iBrNnbq6qA1yONBzK9u+xhwmG7g+NPE/6w5mriKMMqAwGmMM6LFoBwaDmJw27kLlo5/LnbaGIRdcDPgfrRcKoxvJZ9JVuyAHWqqUbcrPZhrV2F2H/cR2QiwV/3Fp5hG8H/giehXWFYOSF1bm9YaPVVayd28fADvdmRIMuNC5agcv14EUAzL0og//YpB88Ka3rwGxPSN7rk880y6CdFJACUkAKSIEzpQAG8swAoxaW9otXEQTqhtsaC22rN7gyAkJHYCjjOHcckHLUI7oyFgczTbHmPF9YjzE3lxEqHHhy4OSQiO22I2OmB4+oJqAaQFsLrImpT90eVl3oPm0dzOflj40Q4z9XR3BuWbiiJAWkgBS4nQIC2tsp9ADue2jax7+TGkUu+g0TZhnoCGu+ufDBYQEwy1etWIbGWWiTeMKcQ8OoxjEiIXdaTdvewvpyRcybbcwjYjDmsYxIqpjbUsB81WrRIkDqFGvarvbfhqUWa7/OA11zWFeOFuEptpBuyOmeJsNgAqzpO35YY0Tj5D8+VQaLredGiGY4AJgiEFSpU7ESgPZc7pw9XX7aFgsLCIoMmEUTEwySXG89g+fxb4PpElyERTnAQrfUjbWPBwPbWt+wxhIsrXCh5r0wZL8YQAtrz453AfKbtr2CBeO7cNlG1Kpq47KVLj5pOQbQoruyf0Xtu83OUmo04r4fB7NuWMcN/40xsz9mASUpIAWkgBSQAg9fAQ5ZY3gnjabr1huv2WCMgIgA2zDXs2JpaiWsM0sHrPQIxuP06M6n4KiHoR/zcBHMaRBbvz3Ey/EYL8ZxA+WzGGvzWHO+AOew+lxgdSz5c1Lie/B8AYGiog5+U+D3RQtWWozZgzFckAd4QQ2TcT7P3zMYx/GfkhSQAlLgThQQ0N6JSmcpj3tNiiGHIwwWKsfkWEAXgDEEIOYIegBUDAKM7EtHXW4TuCaP+gMbwELbw/zZWq2GuSpw3eUbVsd9MdaaK8L1GK67ISynWI4n7k0AvE2LCwOsz4pIyBh4uD5rgEGLQaZ84uCXwCw/ecZ7BD0eJ0OlczN2EY1hVx0CnPuwpLaTbW6EaMbxgl2sXrSr9avWKC8wNASKz+ojaCb/z+qDwzKX68HzIqoFXIsxJ3inbUMEuuq3OZcWelRggc1jvg7WnbUxgmd1Vm2wu4GIii1nyS0weNb8FSstPYE5wABaD7NsIely0n2cu8fYey48G18mAKrZvwO/BJhXSQpIASkgBaTAg1Jgf5g90KJ7/4rhajzBygCjTRsM12yI5XqiTAshNkYARkAoJs1ypPZDnq+A56zWJ654h2XgseZ9jJiKMV4ex9bcBdjCssrC+TxiccDSWpvDyI/xtw435pMS28xkhlYoYKzG75lsEU7M2YKNJnjx3N2xUrFixWnJsnixHWJqUZJOrvOk9nRPCkiBx0MB/9fi8XjaR/gp/QDDveNJWmcR5Cie4ivkwARX3NBNhiHQct4sBwCALpbVGfX7GIg24aU8tmqpCDejAgaNvPURGZi2Uw5+eUQ7ngtKVkJwpEoWAabwJnZS6Nt2/6Y1R2s2LQMwETgiA2tmBi7IdGP2AOvmxTh4TgJQsX0Ola7PcImGt7OFU4Astw5eC29i3k63aPP9RbuSv2xXl56zZ+vP2OW5yxjkYMHFIMbozHwC59Xs3hEnb2pZJ6GT14t4jiwO8OTWayGKIyzOg2HXqnCdpuG1jAiOQRsRja+9ZLa1hjKwXlcuYGmjKxY0rpph3V5MvEWNSUoUS53w0D3E7IAw65Yf4jlzK0kBKSAFpIAUeAgK7I1Nt7btXsxijJxg3ddubxtQuw6gXQc49vCyF069cH2i39NxiaMbq8erbjiCAV7hEryzObb1ldhuvAU771aMQFOYBoRhuYSlfuYXA0BvAM+vZGQ8bnTcH2MnCBDVh9sx4Bp+zwXsJwDaVnfNSjgvlcvwGkOwSL7cTn4JzPbYKUkBKSAFjlBAQHuEKGftkh+3aPvcGygmGIywlizfcBIgGdSIW0D32ZmbToR70zHcgzqIary9C8tmwerVKmAWFkxYObOYe5qFtXHMSMLT0MrTipWDMoC2auNSz0bVrr09xCwZrlk7xILsmIsDKkWEYrSJeaoxXIJdTCi4CyVBqGZL/XBeLzsNkOVUXxQEfAOeI7QJoC22KtYYLdqlGDBbetqeXXjOLtQuWK2MOcAoysE4iTWFdpwllO90OfgmbtSct8NnzvIZ0P9g6lq3yS6CXo1gqcWb5AzcrAujtgWbKza5/rq7N8XyQvnaectdeL9l65cA5vCNoqU3ldjSrYntJcO728s6e6tEuiIFpIAUkAJnRwGMoxGCIg7HTbge78ChaQvjPiyjmJmUYUhjpOTz6C67l93wl4rgCTXqT6zdjK21A5DF+DqmdRZDMue55jGE5sGdBaxG4BYZSFXHUdO3cevYSqidwFV5ZOU6XJh3u3Bl3sZvjTlsdRccKosXzrTSJnUkL7VT1etQCkgBKbCngIB2T4qzecABgckjVXLGC5wXi6uO8/CHHtZHEBpGj/0/+uPhGIMPAicxeNJuy5bPn0OU4LoVMT+FS9Pk3BquIWfZOvgM8Ma1CLflMlx+JuWnMNcmtmoPS9tgjuvaaMU2uxsIFtW2SYglcDhyIUiTi3aMf0VurVmMWNwjagQGQXRxhDm3YGDrYbQbcsOasaOSLUTLdqVw1Z4tPWdPzj9tTyxctTnMa3XRiWcP6KAWVUWI4hxP8ayOdJObEwAlozuHsD5ncT0HQE+W2sFc4N7UhlhvdoRljabtHbOVG9a9iUAYCD41DipWq5+z6pX3Wa6GV8mYd+zhf9bsHew4tHJTkgJSQApIASnwkBTgMOR/IBzogr+ISMQIjDiNuogd2QbEtmCdHVoR813de+9jirNawiciWOATQIvfGtNxBlOW4MIMa+1cPWfzdUwMQj3Vamj1hTw8osZWqg1svuHbRtFZ4pV0V/lbJv17pohoy/ONDLzBMDWq24KX1S6mO83jdwpWpg0rGNsxk3b/Z42vVnspIAWkwAEFBLQH5Hi4J+k/+ume+AGA7OpD5hthFi7EXLXHzZel6yw3kCCDQI0wb7aHtVpbrRYCP41gzUQUYASDqlQq7phWVthYMSAmtQcERBzmYEUtwPV4KbuMATCGa1JoNVhsG/1lWx2s2NZkC+vYIWowIiBPBkBhBIlyc3VRnhDqXIRZJTrLgA82yVgOAaAKE7RtVVsIl+xC8ZI9Wb5qT1WexbJBl6yBqMY5TM7l8++N0LD+uv75+bruprvixnAOtmRcDpZ0g84Wc1ZG9GI4M8Ma3LSo20SAiVW4Gu8AcAHEgNcclucpNJassoSlesqYDOwiTrlGb/lI+uIvz94twxKdRIni6Howh8+pvRSQAlJACkiBh6MAR0T+UuAeL5YRFHE42cFvAmzWxFqwXNednlTMczD5EY0l8T7ajb+00kYYw7HwAQIrxggsid8E+MWRyyO4IjLy/XUWQSXDYIo9LmDsx2wotJPcS7fg6z98LZdDoTJ+exTGGJJ7NpkyWCXWjMeLccbfSMba2RicLqxjKSAFpEBKAQFtSoyzcMg/+hxQkpQc8c86hx9yIjdHcnT7HWI9Wg5a/KNPCy0nx+B4MoGbMWG2gzkpbYTBR6X1hQWsOVe3Cuan0GN2hIBSjFw8YWApTHLNcCkc5Pv/2XsP7bpxbV0TK0cly3a54k7j3hPe/zl69Oju2333PnufyuWovHLs7wMXJEqWnMp2yTJgc5EESRCcpPDjx5yYs8FoaJPt7coW62qMUfuo9TB83X0Rno2fh9/OILWYBY1wNjGcj8LZjLmrU2K7xvm8c+bsUhvKgMbidALHT2iN26t26Nd3wgOCpj/ssXQehkfdL3EE9RVkmXBBdUZhdRoVH3fzlIKjXo55IrOXsOV4mO3InN0nQzGolHbWbqODQyu8Pq/xZDwmju7Jc+YNn4wY5cWrcv8eU2Yfhe7+HrFne6Em8xYrS+lawI0vxJ/NyQaoVaDx5PhTKiFvZglkCWQJZAlkCXxECZwDI/eMkGQGg92BeamrY6bhvAjT1SEYal8Ax4y4Nq7IRkupjGQekdCim424utbkGBPjASbHRwf2ESCvNRa6G6MR05FwOLnDHNoFA9iaMmMARoxZbkXv8mq5aV8UFend10typYnpcWtReD9eE1qPqVI6fmxU29Rhg7mcm1OWQJZAlsBNEsiE9ibJ3JJ8G30BJi1FtZiTyuglE2Ngciwwuxps1Gkxa8jpDJeEQ0yNjTs7RVPbRTO7vYWpcbsLF3Q+ChRZFnhebuHe6Rx+uGnduK7rLhrXGu6imFcbtolX+yDcCw/DYf0IIgthnJyF4/Up5HEQ5sSWM/xPhfm4XuvSaXQxYe6G1rodtpiv+sXOV+Fe737Ybu6GHfb7rNsQ3mrBSGGnl58yVjAi4AUMblxFxUPxZ4OMFlGDAIcapk/1KfOCefYR5tGYPTeYF9zAs3F77yFAi3dnPVmkIi9Kemnr/JS0ESf2Use0/9IVOSNLIEsgSyBLIEvgD5JA9MKP1ZSmxhDDGQPOk/FpxGeMr5hmtA4tAs/WN5ZPN0FZopB6rUhD6ckCy3FzIZSuQYxNOxoVmDjDHLlG2TpkXGKObBLRUyrfy+1zUgu5rkCQVxJZtLNhOUHLi5o3KpG5iYW4zWZOWQJZAlkCN0kgE9qbJHOL8hMouNYQV0YloV3NVmHFPFfNhusQ2zojp0scQU3Rlg6GgzhyuuC8Ol4b1M7qFGpJYFX/CSeFKyXxwjmpxQMTmQeQ4i7OTyWmrSF0dBTVr+6Fe4ygPmg8CmfdQTgZD5jzchoOaydhXBuEZXOECZJ1wCSJkdU64X/0mNyud2NIoC1CAj3Y/SJstXc25XIO5FrNakziZkpx9HiTQT3SKcWGqLa5ZrOKZs6iHh6oKpUpmuEJ2IfpEprjCTKaWf/2bujtPAi1To+R6gts3BSR7ny+vjY/Zl575Py6vJElkCWQJZAlkCXwQSWwwevL9zBTLDf2/CzMVziEgtCOGXhe4lFYAooPp9CFja7QwV5bBCUkMlsgrYPfaGpZ1Lx2e3g1bhs6r0Bh+w1zjLxO0OKeMqatc6cHj+iflPH8ciUjentvkbQgtZZPeEGI7IS6rhkcX6KxtS8jP7co656R94og826WQJbAJQlkQntJHLdrJwFOasgTAFjLKi7tq70+dBMTYUZjKyPmyJw8w2ETXosxAZpNZlHzuUVwuF5vB3MetK0EKhdC1HJCcwEKw++AFCvX5gthGPjIEBmOrUTz2kh3OcK8GTSUXUZ2K5TTRNvbq2+H+80HxLojTi2LpTe4rqpZE54J65hBFwvzco1z28SMWY0sZ2qULLEW0IqUnpY9vSRbB7JiHVzHkwoy7plel+TC0C7nAtCO7mIWvXr6j1B5/n2oMNe3hpxq/fuEHLofpng5rup1GTOpDiPJTYeZc8oSyBLIEsgSyBL4lCUABuoocQUDNE78zMgEE+POE4eWZc1gtPCvEZQEUQx9VRJbC06K/436KhLVR19XGRhfR0KLH0byW1hA1YgqQCS+o1F4+nxJHNk1pFTSyz1YLCfhdPme5pX39U2xgh0vmUM0Qzs7hoBPKEj/Hw2cT0ZT6fOSXlXzfCxLIEvgc5VAJrS39M0XjX2CggtgOM/B935FreuEuarMlQnDg7A4eRzmjQ7zWVeMmhLfrdMNO3jz7ROqp0GMWs2SY7kQU2lqWBNuxyVCV0F2Nf/VyZJeg02CTHG8oJ+NdQeu2cSMeR3uAULrHkQYU+PVag55hVxHWmt9JchF8soiJ1HYc71scUI6MQ7rcq6nx2FZ1+4U9NWtlNwuFp/DYVyY6nzA/NnHYfX4f4fVs19DFc/KdZ6/sf9tqGDqPIH+r2c8zQCQ3mpeT2hTXco3SzfN6yyBLIEsgSyBLIHbJAGwUk1p1Giq1WSZEeFgOBwx9YgwdqMpWAnRbUoYi9B311X/KuQJhYb9YfZQ6PbX4ctvqvjnIHw7Dpy6+Ktot+6H2ahJjHtI7N8Pwr++P+J+uPaYMgcXSNZKmEvjMHlBji/uatkX99sgOVhP1Zk/W8zLdW7uhMIqOnSMlYHYXoyAXxSWt7IEsgSyBJBAJrS38DNIDX0kndTPfdtxNatRc4nTptDqgyq7eHfS2zDx257/iOdhiOLWQ9bMGeXcFl4b+gQo7zQJUF6jBEBBzrjhqpsnp8yYsbkL5+AkGS1rcVMBBt4ad6SoOo+qSYL1xkSRzsVdQ5BXmAZX0fTWo1aXenCNIFukWMAGwIrtIn9zQopbG5+ScuOZFuBZPnlBid0z77wETIyrBrpd4hERV//rw5/D8vGvYXGEAwxGpZd4PW7098Let38Nq9Y9aD8jyvMVAHxA7FodUWEOTQA949nmlCWQJZAlkCWQJfCpSmCNlnbpADSgPUa7eXSEp//BFJIILoOj9Rgk1kHtEp6+4mG1Xyp8bRh7viCqS1S8/R7+OrA5bqDyndOvcDBbYG4Qh1ZwXhqyT6upC6SOd0m4nY5EeI9nib8MNtOv8No5FlQrTKVPT07ou5xSco9pT8SjJaTgm9U83i7/ZAlkCXxmEsg9+Vv6wgtdauHlt6B4hVazomMi5552tkN1az+EwSGxXjHPOfg1glndIVS8CbcaePVl0kuv0yHoufNVIZ4Cns9bMFQABIiJ2wJR0p6KSJzDbQSxmCCrglFcOK8qUwU0dURccz4OHooFzVgGoFl4JdxcynlOg70+OZrswQRtbEZC7Dpdcb4RT4v3jofId87schRWE2QweBoWz34K86e/hNkJTjBwUFHBLLq1cz/sfvFnTLF7hPEhcAHa2SHOoho1yXkIW1s4ykKzXMzDvXyvdJtUk7zOEsgSyBLIEsgS+EMlUIJLLZkiHDNSbbi+JYzQ9ZSQeoMBJrtYazHjFfzXUaO1rtJPIBgOUFdCu2sfx+PYakXcVeM6JU693Yu5Tp8I5cN/cHYZNap2GnQWFcfNy/XblOyt7ceYLDedEutg3wEy69Sn1ZIpU2I3sX90ailWO3/Wch14rjIJOEYosN8SL45F5p8sgSyBLIGsob2d34DNvUDk2sWWWzigVY/zW/GJv/UoVB/+LdRPmds6eByqI/zp6ykQZ0wNPQg/2Amd3d1oVgsegDcgEkXB4ygOghqLxvw2mvlSLES1TtlFyB3O8bgpEt1iM/6SXwFMdBqlo0QdC8c5t/EgeRFkNkjDqhLrW7r+6mZxQZG7ecSrp1ia2mFj5658DvctFzK7XkJmD/8RFo//FY5/+zGMXjzjmYhHu/sQIvvvofvob3g43me+D3Npm9yghvOqBt4fGQQ4YI7RaoFJ9jaekHGYJTlPz+J8JOfv1uKodrxl/skSyBLIEsgSyBL4qBJYX5g6xfte1VLGuacQy8l4iokuYfSIQDAhpF8f3xnzNZZJlXuh1j4A444iaSQiDhZeEMQNTF/3MBJQuwBCssrWJUrYMfNjjUM7OauE5+0BfQumNkFwR4M595yEbrcS+lsVzJMDDqSKCLKpbMsxnXcrNtuxfNwvL2bEj18ynYlwgd0ufZfGbugwEbdCR0VSu8TB1RxHV23ix3cYpJfUVpgalVOWQJZAlkCSQNbQJkncurVNf7EkcEEPCkMk7A6x2Sr9h6Fyfx6aL45D++SQoVLmj57NMQHqhSrHOngxbDNqWiNsTwyiLgD4jJj3rt1Gu1kDpeo4U3IOao0luomK81G5I6RVrnkeHrYkH8mwjogjKYZfqlR1BDUQT65kZ3xxhY9xXUoo57WmtC72Sr8UYBk6fsK8KRJ9n2MKmR39Apn9Rxj9/L/DGbIYjXF+0dsL3Qd/Ctvf/FvoPPwu1NsgLJ6Xa84h8qEgqcdHxuplVu2AST8k5wgRMTeOALtf9CF8HkDzFcDvuTllCWQJZAlkCWQJvG8JXCWzli8UFljOtlZXqE0nhOornEARrg7v/lVwbqt3D/xmnivB9laNba7Cwz8a3AUOo6J/yCu9vwTTZbiL05wiMOOFGFILtwyD42KwvVo7i/UQKx1m3t7BOGy7ghNKDIg3XpAvl1UQ5JTn/bxusUArOwP88SLVrG3hwPIeU6Xuha3o+6MOTuP1eIXmmf6PA/B1iOxaqzP7MQy4p6SsyvspP6+zBLIEPg8JXGnSPo+Hvv1PmZheATE22cUivNDwV3Af2LkfanvVsPXwEMdQuOZ/8SNhegAzyO2i9iPDr92w/eDrsHX/fqgSh7aCt1+GNFkoCTJYA53a60HoE95mDlFsc8v67CRUGmzgkXijao1hbi/kJei4RxkgUZwm455AoqbXartENljUnb1r0g3HfMiUIlCZ4bkC6BKNsIXj3IK6r3EcsX7xQ1ji0Xjw09/D2ROef8mwM/Fm+1/9j7D99f8I7Ud/DXVMjit15ufIuqmjc2YrFTTclOn2bDIPJ6fHmDU5xwjvy1FLq6GVYFncPRL3ct24OqcsgSyBLIEsgSyBjykBQ+o5pScSTXB2gcXSeKwnY/xogP86VKrixamLJnNndydUhw/DFC3tYNEPk3kdE2TJL4PXQLwOm65LIq5EU/2n0QhqjF43GkumLrFPj3GKF+NkfiwxtmvR24FA71bDzl6FCAhYe5F/FTJTuSAxpRb30BWH5U2IZVtZddC+7oftHtZV21+Ee/fo44DVC8iszzWdTKNmVoxutVahTT9IiyoXiWwmswg1pyyBz1gCmdDe6pdfhoQNCURDK+GsNplv0iE0DqbHjd0jHEOd4h8KhxCEz5kfPwHEKmE0fB6qp5jbMmRq/FWJbR0HUaLNerEKrckLnCmdYTbENm7y65giVRoQxcZWJHSFCrYkIOetmFjLXyPXBFTNdqS4otrWfH8iqXX7avI5imfxlMhbN/vxzHgLfooDrCmLUeU15ka4bwb5cPbEiO1qNIhzZmfPfwhnz19gloTGefdBaD78c9j6BlPjLyGzgGK1zYQfJ+FEeIW0MnRc09aK//VqPRwtjhkdxqsiTqQMN2RqtJqAZLomZuWfLIEsgSyBLIEsgT9MApJZtZDoKSOErsDtGUFgJbPD4ZAQN3gkxvqoDcPs4mOjS+z32WoXbed+mE+2ILNtptjM0bSC2TLWN0haQzEejKmvZBUohoHqQxEIRhNMoD+O6SRq514l3HtQDXDo0N7Mpb1avNBeIGzRA4imzBiI6RV5OLBCndDv3Avb2w8g4/v4twC7180wYmoQNUaTCxn35FOysahyELqhKthyr2hrY2b+yRLIEvisJJAJ7a183Tb7kRmytikvkuBiWB2oWGzo9S48q++GWQvSuvdt6BBOZ3Z4EpYT5srMT8PkqB4mP9SZQ9oJLUhtd28/VFwgtkJL/eg4dHGNv4I81tHVVruQxiaA0QFlEqHc3NtV5KgX1bJqIJyslEwm50aSe17beEVxTlRxWsAm7/zZzDIzHvDgRYpza8lndFYiu0YLHU6OwurwRZjjpXiKJ+MR5HbsskAy/Udh/9v/DDt//s/Q+vLfILMPeUTm5UStdCpWZxgFUW0Th9Z/C7xd2BmwHEeBF3QauowUd5GZc3TifCWR+AOnD2Uu9bpyX3f8Az92Lj5LIEsgSyBL4DUSSGTW9lr/DkLohHmrE/B7MDiL+CVktnCEuL2zC6ntgscgHN6Be73dMA1bYbLCs39lwvgweHkN5KYqlOFuHZjW1EZPi1a0STzYvXurMDxjvi4OoogMCJHknk3MjJnV09uFTDNe3qZ7Yg+mTGAt233RNyH+Gj8cmhujWA5npwv6LxDx7n1MjXFoSZ0brRbOJhtsQ2wpUZPqqKmV1FKYdTKpmU2+L2JG6SfjW0kYeTNL4I5LIBPaW/uCL5NaYaAAGvIhZcMx3npPJoy04gCpt48JTi10+lsQO+LRnh7hJApiiynSZIjb/mGNGLUN1mgjzw6iphZvR2FBjLolqOSc2jlAOEPLG/rPiS0LgAgSG6Iph43ehUGiWAcRyUz3BVgzIa3Ot9WJQzkVgHKRF8F4U25xXjqW1hdXR8Mqh5LVzDIvqDI4DRVI7fL0JMzxZDzDtGpWJTQPDqBa974M/e/+DSdQfw3V7UegKgjroC/PoeQY244dgVV09ARAc7sGzqO6XR8EQGUuraZNQwLpOQauQ6g2Q801g/B9wimbYX3CLy9XPUsgS+CzloDttxiaUtxm0FWCO4EJiltz/GREMtsRzwjTx2Csmsv1sgoJ7YReZZ9B34ehyzLFkeJkfBzHiVOZV9cXdwM+QcMaQFrBqqm+VYUwQ1rRyKIYjlEQvK/hgPRwrPGXJskFzbxaarHvMWFZw+klfZfl3Gk/TepUgxQz6E4owjYhCVsUZsigOqRV51Ax2SWiT6PpcdTUnuEsCpNrZdGGSSdtbXFy/s0SyBL43CSQCe2tfOMyRGHFFtzmv9hyXRyphIPTs/D08Yuwy+joNqOa9fZuaFW/DO3FIKyOn4b14x/CBG1m9egUkx4cRkDUZjqDOIUUOsEFQqszCT0kRtjClHlV/w1X/A0cJ0HiJKfWAbsgTynIJdSQbesgITSpnDUsj6Fki2VzoDi8+TWvyI9lsm0Zl7nvxTnp0gimjEZXIZoVljqmxw3WVcymdOu/RtNcwyPi3rf/M2x/9z9D/f43hDKCzALiPEwk2vQHotMqvEpEL8lR8SvkQlixOAYsu9F0SfOn4dh5SOM4L6moQw+QxAlXrG2qVV5nCWQJZAlkCWQJfFwJSGYlbwKy3v4dfD3F/0MDm+B2t4VmEzNjLLEkdjWnzIB9LZ1ENu5DaL9Co/s8DE9fsB0Chloxibpi8dVUoHXR73AwWPxfAvb4VgzMdMKKCVQE96uAvx6HMQiO+P8qMus9NuPgrNtMe+pAaJkjO+tiEk1Yoe0uZtJ9SHgXSyr6IJxcgSy3ILRV+ivRzwX3YsZsNLU+BKvV2CqTOn2aTGivvsW8nyXweUkgE9pb+76FmQ3cbNBFcjadLZgLgxMIRmenDJMuWzT8Nvg9GnzC0lRxb79uO5GFZf8kVM8GoY5mswGRVZMqoFjOEqK4ZKRTQBAoY0xaVKx6QZwvGX7l3mpfExEVRK3ROZFl2+pJuU1LDsa5tMXuld/NA8Tcopzzci+dWT6vAFrrAKZxH+7U6IVmn5FYR2NZmt29sGJ+UO/Rd6F5/1s8P98ryKzzjH1IkmQ7Vhz0jdbHonC8DccjqWWO0JoOAaPbelCMHQYumRCYXm+KjhDbYRBMP/Q8nfMOi/WO78T3UsjEerk4Yl8T3AF2QdyUrnPtsauj+vGkzc/71tim+r3vcst1zttZAlkCWQKfowRS227bL1bPsKiaT2f0AdRSgtNgWLPZhAh2I4ZFUhehD9xg9LZeIc76Gu1s8y9h2pqHIaF7Fqtjrj8KA8L86Ogpjm+XhJtQOPYVyHc/bVs00BOBv4BWHTaCTUUWvxt4Ze25Kd9z3bYsdb7rZS/Mx70wOsY0en4vdFpf0I3Z4xm2eR5C7FGp6NOCQkA7cJ2KWqALaUUIoQmyUB56QRYLlZWySBhYnJl/swSyBD4XCWRCe6vfNK03jGyt2S1rY7pOGZU8OTnD7GbCPvkNzHFa+MmHkFVwFIUT/FCB5K33vsNz8Ty00GR2mHM6Jz7rnMZ/geOINeF65qxnmO4ucSghiU2mQx6rMjcnxmHdkKmyiAQkNauuTQmk4g7V3eBN3L3+J115/dFyrtQ3wiUkrVZvYkW8Hdr7gN+DL0L7i0fMBZa4byMHQLvOnNc6Xo71UhFtoLmPKEryjvJYfBjHvFQDOa/bNSLOS2jjg5E34/kXmHGNJ8UotE42Wu1WBEzB8lXpTYnddUQwmU9Zvh0Y91Ne2pbI2mlpMb8ogXj5XK813zzvUSa3br+u/l7/Nsn7mD402X+bOuVzswSyBLIEPkUJXMUF21eX6BAJzNej8RBT29FwDKbhURhb3zYmxi5u1wC6tdZIwFQN+189+lcDZLGODpW+wqj1gsHsAwZsmW7ElKUt4sZ2wEZJqtidsFHZlbHdY8Kpa5eUPL9AgCLHfZd0Tnnt9dHcmPA86/kWs4j64ewQ3F7dDzv9b3AI9SBqaFstnFeK4+L1pqQaA8o1LK/EMDW0OrKc0p8RF5WJSTn1CfUjNr5vnIs3yD9ZAlkCt1oCmdDe6tdTVG6tLS9JD4NjRlWPj4+jmc/e3k6cd9LCRb+haVaaGRFftlppoo0s6GC0Ca72IX97oQ5JW6J9XaPZXaDlXRxgkmwcVjSTDQCj1fU6AuRwrakwD46bFz/FobifwMqdUvbFua/cKl+9OfE8i9IsUMYpjKJarWAG3QTookkVAeOrW8TVwzSpUsO8uCYZxQFUfP7SJw3SRg3teT1ioZu9osYRIEFzAdDRXVMNGaihdUT85IT5ut05FsvLCJTpfNfvmlKn5er15ttx0UnVKRp17+3os2QxpTgazzypnZ2dsLu7m7JjfQV051CZrF+qY1qXy/Gcm+rhMZPHNVd3cdvynatUHgVPZaZ7FFfm3yyBLIEsgSyBt5VAuR1NbW7SzIpJhTdjMJxBbs1ze5gYd7oQWgc4mR6TvPNXIz6JceIhZLd2Hy1tLez2/0oUgydhtMSfBkRwXCnC4dUN1Q6kvQmqlVHU57t6zdX9RIztkRAACA1zN4zPOmEy2KEvshd6rW/CVvdbsOseg7EMzGthFXHfyT4X2Oe9HKzVBLlPn8W+imRWzFRT67Z4pNzEqIRNrstytZycsgSyBO6eBEq9/7v3cHfmiUAQ57qumOg5wRvvKZrV/Xv38DiIiQ6aw1ZsvNHKyf2WhPPhn+77C7UrZK25E2p6/SXerEsktGpmm9vFnFoE1WZiTG+rGxpbjIL2IInFZNMPJ8JI0qljGf0idgmXLHHlM/iJOlLLoppVgI7XalqrGRKmRpDdFUsCMIlXGjeOxW9YbZSLQjp/NuRUIotcdL4vKJ45Eg6hFDAdCRYU33WejuW9LnmO93LA4tdffw2//PJLODo6Ond4IemWsNqJ+eILQhJRd/Osl/W042My33p6rJCFJF0Zvpw8flUGlmddPCaZtQ7Wy31JdAynQFF2LnJH4WWZ5pwsgSyBLIHfKwExp0xmbeNd1rTDWszrfXQAAEAASURBVGv1et3YHse2nqkxVXBNra0DwBE/I46Cl2BkDRztYmm0qv8V703Pw+zoCSbLJ2G8wtli9GQMbgCnRYeQeamX9K7Fk4iqIrCYWkaziLGbfFYvHfdcaDMloplFOzub9nFo2Qmz0Q79lUeE+fk67O18R/0YdCckYcR18F46eylRAZ+j0iqs1RIWi9NJU1vGI49fxbZL5eWdLIEsgTslgaL9ulOPdPceRkCYThyBLABNYuEckzZENoIZmklHK0GLDdCwHdEH+NH8Nk4eTRAETDgfpV0Ns9ppGFfxghxNWymL+TZVtLl1TXgvEaArwHKdiFPx1x27Lk9kNKWi0zo+gZVPSSLmyaW1JFRSGx1fsPb5bkgM5BY8+NLxlysrEErQTElTK0gqa9eCpsddPP6+yJzE0Xu7SBolkE+fPg3ff/99+PnnnwnJMAh7e4xiQ2IlpY7QSzAdrXdU2nzrY0fH/USc1aS6JEC37ESYrXvqDJhXJsPeQy+ZiQBLrv/5z3+ea6y/+uqr8OWXX8Y6JWJ7SbR5J0sgSyBLIEvgnSRgeyzmuNhmpzmi4oDk1va8aNs7aGZxngSR1SN/AaSCaALW0u2Bu6i5bbQIqXOfrsFfwlnjKZ6FCVM3eBoG82PMlMdYe61YmN7jVCbOOofkTVFXS756PKFqWntZ2l6te8S/7YbFpBemZ4QaHBvU9kFo1b8OvfZXmAo/wmR6l+dpMd7MnSTm6eLN/dOuMhCfxD1NjN0XN5WPWKbsUkpYnvbzOksgS+DuSiAT2lv+bm2bnRMzwUT4UCJD3Dkb8Domxk20swJVBXPhlJYAonsSpFqcS7qBHUY2i2DqjG4ST07HDHPmnTIjB+0vmttAvLoKHhKrW5SN/dG5FtPrL8pP97m0TkhzKfMNdxIqxkr7sF7nT7lQD6YF8hrJbLqQQ6VN9l5K6XAscfMoiBDguzhVmQqEkj1T2reDIYmUQAqWEkFl63EXt39v8h6WI3G2A3N4eBgeP34cnj9nJJ19iaPHXdzXFNnOjml7ezuCuh0ej1mWi/nWz/lEJo8J+F6XQN77uUhafTZTIsGeYzmSZwmthN5Og3KwXI+rLX5fMog3zz9ZAlkCWQKfmQRS++9jXyWzCXfEoNTuGpd1e5uBZ/oAUWPJYLYmxlfNc4tB7UKYam6Nwd4O+yDpn0KvfhSGFRxAGjZnAfYtD1kgzITnaTaJKFDDFwfQJrqVEa68XZR8/a/Q6uL562U7ktnZZDtMB/0wHuyF5XQfbfAjrMu+YQD1K8ynH3DvPs9TTPuJV5bmC4ndSWusg0hlIRaLQWK2+KfslJdrCa/nJHxKuE4xOWUJZAncUQlkQnubXyytuNrTyXSCmfFZOHhxAEFphvv7BB9HM9egIU+EarHAPAmysoyjuMSK030h3K+WyB+enDAuhbwuQ12zW7cBuBiih3LWzEddsaydk0ow9qj9fFvZlAjiay/dEMt4HqgnYLkUcWyvjg57stC4WXgug8YXkMmKTUHupiTAXZcEu3Jy33MT+AmWEjf3lbOEUPLndjonaTLL5bzNtvdL9bBjI+EUqCWkriWY//Ef/xEePnwYQfrg4CD8+OOPsZ4STIHc65xzmzo/bmuSbL7aXeudtLpuS3LVwnq+HaXffvstkmTv59zcr7/+Oq59Rkn1Tz/9FJ49exbP8Z6Wmwhtinn4Ns+cz80SyBLIEsgSKCSQMNx2VTwQA2ynnRNqW+52woI05UQnUJExUoTXRy1tHIQGRSknHYt3EDZjYgA2EManeh8HTH/jXtXQJ+zdZHEvjOe/hOnwIBzMznCAuAqt/hKNKTjH0oDkagBGQHgw+gKbI14XBZ//JpRerBkwX9C/mDXw19HBCWU/zCCzozNi3OPVuFnTCdSfWP6ChvY+9cW55dru6HllI65fPAcY7nPFZy0GlNNNxWBlJ466rbzEtTRgq8zMT3JO1+V1lkCWwN2SQCa0t/R9RkxizuwM1/w2zi6aHHeZ37oLSbGRrhrFnGQDLvAZZH3KHFvDzGzvoLnj3DZxVqPbe5Ah6m4pWEhaMfq55MiKeagOhK6rePHFuZLr4AJwvHV6m0tEw8QnL13ngdclLojxg1IBrzv/zY+XSa2ETvKXOhq+g0QaBUiP2dF4X2DpfRIwW7b3d86qBFMz36LjUglPnjyJ2lI7PmpeTb5/ya31t56urZvfiR0jzZitu+UXJmvteI0E3WNqYCWpnus5riW3lmW5aoUl057vvTzuvb3G++SUJZAlkCWQJfD2ErC9NUlmxXLbVRfbaxeTA4dOL3Gx/W7Q7hpHfk0foeqUG8msOKpVFnnXJ0/AA3BlL/TbC7ShLWKu74SzyW6onDGvdforljqPIaCQwRXHCAPYaBN/toErp4Y+JLgNU5TKXQNLjCPR8Yb0NNY4YyIMXtT8Qmano3qYTbqECNzFCRWmxsPtwsy48x2OoL4Lu9vfhEYLR4YOojsCHwssl2nBktniNulwIqdipPKL/SEwzyRmaXEkoVWmnitGJcKbro0n558sgSyBOyOBTGg/8qtM4HXdbc8bWhrv1XJdjDTSMB8eHEUCo4df54wIag3iz9p8S1Mlsf+FWehPaO6OIR59nEX8+S9/ikToG+Y8YmMcz43B1p13asOPRpcNrmY/lmKIHPITYlxXwfedp+LUh+B542350XDqUorYHH88jSRAcd75aXo1vHRFBK7LOTfvncu8dIoE1feUAFFyaZ7gKVi62NHQFDh1MDx2XVmlYt9oUwD2vhJGiaNEUrB22yT5VKMqkVT76j29RtKpqbIdH/M8TwBX02t9vcZnsr6p4/TixYuoufXZ9vf3z8m7GmDL+/d///d4/qNHj2KHwPv97W9/C3/+85/Pz/ce1tf1+3j+NxJSPilLIEsgS+ATlYDtcGorE8a4b764kvAlWeskaxhxQDJre22KnozPpwaRkXCwnBfPLP+IU3g9bt6P5r0L4sFWA4R2+TA0K7+EwfRn+h6E9hkQ2qc+RGs7Zl7rkC4EA+UafRH+xygATnPVP0W8p/dVuwoJrqwhpiwLNLLzWS9Mhu0wZ95sdY2p8xrLss4jyPSXYQci2+9+CV5tYWoMCXZw3r6ABabniEF+NkCPhRkiiotyupqUibIR21y0JFJ+ElvPN09sdPHcJG/zM3ZdlWbezxL4NCWQCe0tfG9LRlg1H55AagYSqNEAAKmFvd2dsNXfgngQb05iSnJE13OeYxKqE6HDo8NItFo07luEtlk8YgSXBp3xVRpxTXLOmSC4oRt9UQICBwie77+rTAQkQe5tUiK1XGN825is4qVt65YyPFTUlCs4UYL7MqktCnr3XwEvdToc3bVTkYA0zSdNoOhdBNP3RWp9pxJaCaqAKwkVmL2fnR07Qd5PgmmdPN/FcxzwSMRbM2OJsNe4Nl9A91w7TpJliauOnu7hNdtn9BpNjC1XLYHgL3EX9NXYeq4E1zyJfpLRu0s6X5klkCWQJfD5SsC21jY9tcu2/S62rbb9ElmXNLBqW2zS03HE22L3DQXowCPTaIzrila0ht+MClEQKov7OIW8jynwgzBe/BbGs1+Z93pIzFoWmOaqira2iaZWrW1rtiG03NioCixryOx6KZnVdLhDMIXdsJqzTIkVv9yFDD8I7cYXhOjBAVT3Act9nsdpNUZUoBsa+yWFM6qLBwHfoyVWkfOqx0wkXxlJZMVHZahMTco4kVdxTix0P6csgSyBuyOBTGg/8rt8HQEoGt7COdApZGM8JGwMTqG2u71w/wGBxwG2ODJLW48uD7JSmIM6z3YVh0zJp6G2MU/zHWnLbdEBB7V/OktgNw6HChGSRRPb8sPi53y1OeiBD5POUYpaXHP/WLfz/KKmRUXcjgc+TL0oNXUcvIHbgmRKaRQ9Aab5vhuB1Xf4uvecyrluLSD7/iShvkNJqvexbOsgodQE+dtvv42mwhJfj3lPSadEV+2rdZR8S169XhCXnLtvfiLHzrdV82q9LSd9P56XtK8+m/WQ+GoGbT2UifdM6+ueJedlCWQJZAlkCVwvgYQxtrW2xw5KOpBouys5cwAykVnbb9vnl9Pb4KDXC7q23TqVakJiiWrQ3sVB027Y7j8Ip8P9cHK2HQaTX8N01gyTGf4j4JrVGgPpTcIEdsCSiNtMV6I/sVhgJbRoopXFYSIxbyW01dU9bL/2Q6f+Veg00cr2HoZeh6VNmB6IbJMQQhXKi4GChHIs0uyf2DMp0uVnci8d2Zzw0kpZim/KS1xSXsmBorJNyUGCsqY25ed1lkCWwKctgUxob9H7k1Do3GkymUZgm4wIGr5a0vi2mTuLuTFLXbsfNJLGnFsCAmdng3AEoTH1e7iw55hzaBcLSO2IUD8sBipv4tm4ALJ4aumngArBImprS0fi5psgSfmac4JaznyD7UoCMwhhiaharzSOWhQNEEdTpDco8zWnvI50JrKWikmEMu1LEu14qOVMqTyKXi7fbd/vmyTP9V6CrsRRc+D79zERI09SKWF9wOCGi2U6r9VjArhgLam1TnaMjGebRqItS82q+17n2nvZAfAaibT1N6VrPJ7qkzTVrr2f+alD9ibPlc/JEsgSyBL4nCWQMEDcMLm23U2Dj+7bptomJzKrRtE29+W2FnB+Fd6K3dcmDxTEuIJ1liEAcSMZsEPCUsspK3ry70SC254+wCnlcxxHoaldQQoro1Bb0KcAldXM6oujskTbi5lxnTm5dcL+1aqYGDNPt8Eige3gwbjX3mO9h7PKHe7HYKj3dO5vwnqxUXiMdU4VZy34v+oZOZxSwinl5bayVrYOCouFaYBfOYpfylTM9NycsgSyBD59CWRCe4veoWA2n0tCRxHgxmhdbWy3ISHbW33MfSASgEAieDbYJyfH4eDwKDbM+5Cee9FcGU+Jc7V803CCd+Q6ZNa5Kl6Yrn2rJvx1J78ZT7tB0lwcy7cQZwSLaz5j0hxfjMx6zFM3UMzWRfqQoJTKFgQFQxfzJLQSR0fVBU4XCaOk87rkNalDc93xlCfI2qFRC2un5j//8z/jtvmCtaQz3UftrGVaJ/MltN7fRS3tf//3f0fg9nwXybDfmdpfyxLoU73KdbM8jyfAl+B6XSK6SQ5pX9nklCWQJZAlkCVwWQLldtUjtqPmuWiJI344KCmptb13sa0WA9Lg4bXtq2AoKF6XXofZ6RoGxhk+DVW8GeN6CvJYDb1agxi3OHGaf8PUpyFhfU7Q0g6YAnUMKTQe7oh8HFcx2K4TKue/tpv90GowDaW9g2kx015qxdJsoI112/iymBYz3O5E3DiFKqL5ef25vw6tzusNi42RDMjQydVbklrlJa6JU2K0FknitaTWY+KayXPSuTEj/2QJZAl8shLIhPYWvDqBTWIgIZJgjCcjGl69zeI+H9OcbebCCm41tK+xYZeVsqjNlZi8eP4szqeJrvsBhdmM+ZSYKh9gHvRk+ymgWA87AKRJXCgwY1PIJUQUXc4RxtM/fIqVsS7FLFnvXuwVt75cG082p3iCi3Vx7vv+Te9FUBT4TK5dEunkJTHHmRiurDUbExxrnN9qY8qF/C/S5noyimfyKV/Gad9P3Q4C5LTZaKI53Q6PvngUvoLcWg9H07136uiYl5L1NXncDpFAbjxbia5hf8zTSZTfmJ0oO1ACvFpcwd7nkgS79ntTo+tacux35vkS6ORwKmkNfOacsgSyBLIEsgReloDtaUqJzLp2sR3WLNZt21Pb6qSZddtry218Kued1glMrY7bkSi6I6YlHFHLanvO/FpC/DRqUzS1j4gTi8flBuR2CpmdT+NiP8MkUW03meMLqW22WAj/V2OebpWlRuSEahXtciSY6R6Wv5HJhWhiWcUPmREe00EHt1PlS6fdsJnkrTzFL3HRvpVyFO9cxLM0GJsGbm8oLmdnCWQJfCISyIT2D35RiTTZuEoqJEVp/qvmw5KiPkHU223JUWroi/Z+BSCdnJyGZ8QKbUB+6pFYVGiw54xI6nqfeKGA4tZWLxIi/EBEZw4JS4pHFygEjjKNLI588N+EV9zoOri6Lq+oq8BYEMIPWUffSQK9RNrS+3Jcu0dIpDrvSACdYiY+mzAYQYWiSXSFkWljAce0AfLNA0Xr6s0jJOl7muKg+1IQYrSjArCDGXvMWd3d3SOfM0oENhbtNdw/1cuOUbwO4uqotOQ1EVzJrKTWcwR4tQISVLW4P/zwQ+xMecxn9Ty1ve67bQfARYJs+ZLdNBcpdSBSffI6SyBLIEsgS+B6CdhW266K98nUWBLrwKEEzOW9k6wymLotmY3rch0BJWP4OexN6B2GZQEXHEHZr8BpU7s+CQvC/azAjsVijhWYhLawDqoxH1YHT3U8Ftfoi8RZQZYFZImV8V4FwMW8eNdSndz0cJHcsh5FKk4zr3RBOviKdRxcpu7K28UBXtdiootJ7BIfc8oSyBL49CWQ/5JvwTuUIEicJLOSEEcQzdNL8TZkVs1sQawuGnlHdo/waHx8jCdbRnjrzJttEsqnRUy35WoBYKKFG56F58+fEr7nEVCwgYwL1CiePOLEFaC4uM2bSeftsaZUrhdDCvm1joKft5eumnc1FVUrrrk4dt2ZF0ffdct3YEprt2P9JLEEmy/iFujVcQ2xxWwrEkvmLqPJjAbTqzmaVszG8EpdGEpzTeTh/NihsLwYN5ANblV3pJuBi72dXcy7mKvESLlzWzstQg2wXSl7qOaepjTHVvNkR6QlrUmz6jfz17/+NY74e9yyBG+JqCkR3qSpFdw95txcY9+67bN/88038fuTBKe8RGJTZyHtx4LzT5ZAlkCWQJbAuQRsJyWxEilx3rU4b5ta1spKbCWzZcw5L+S6jd8DfV5bQBwbYlPqB7ANFhRYx2YcKAfBqjhyamIuXVsxjQmrMsitfigrDLTW8NNRaGId4JUAX1NZ7+di8r4RC+NegZcO2Ka0OR5rtKnju2JM0tR6vSRXhYHvwMU8341y9z14POWJn76Hd71vepS8zhLIEvg4EsiE9uPI+Y3uIkmVZNiQ2sDu7BRaMhv/onG9KGYIWX3x4nmcQztg24a4vcCxA6RGWFiviWU6GTK/VqdFZ2Qw/xGUobm+KOR8S9hIYHae+WE3LlXDHUmtc2hdO6vndelSAa87+Z2OJwC8erGyjmAMENYaVYioWtWixuMRMWoBzNXSkexJCEQtcO5zRP54jiiOrFOMIgmtoidbZ16Ozt/b2yVvQUcC8tllbhJAa6fhavKbkGBqTmwHyW9GL8SWkQDaTpQdJAmtZFeA9hqPC+yC+TNCPql9lex6znfffRfLtBzv7TeVOmPuu3iu8rEOHksdgat1zPtZAlkCWQKfuwRsJ5MFlgOIkinbX9tW22PbWhfb6rcitG8i2Oug/Ro8YUQWHPLkDYNkALWMOhXafIZto2Pil2/rNZuzhbjyheWTN0XHrPI217xUzfPj6chNhZZv8PK2WJUWZWtyIMFFra3vxe1EXsUy35eLKeJ93Mo/WQJZArdZApnQ/oFvRzJho+lIreDm4n4y57QRTiO1V0cJNRd98uRJBD9jgyai0SO8z4pye/1uLM+yJ8x7OcZ5VLd7MQpZPLZAkcDCHBrwUty34pw3/E1YUy7upkvTuZeOm1mQ2dcVce3ll8r6QDsvVawAPE3D9T6tN+poa1Vl8GCJOZla1gbxaQmN0EDLaneg6Cx4HYVJZk1pRQeigUOOPQhtq+McpBrvl7m00dy8OLX867fhe3etRlWHT6lzZEcpEU+Pa85mXvqeLEfy6zemB2W/E78xvz1JreV4LIG5WlrLcN9yDN3jOp1z9fss1zNvZwlkCWQJfI4SSJpZCVPSytrWSqI8ZhuaBiAlW6mNfq/taQLMl/DrmjdyHdFNp0W8OmeZKXezTjdh96ZTrlxR3o2WzilDC6gEijGvVHY65x3WCS/FNrcdWEgac9+F2JYGcZW/55Tx8h1umS/JEsgS+IgSyIT2Iwr7ulvZkEpkk/mnDWgyGZUs3ARsjiweHBxEQivZUOPmIiiqMbNM50c+Z37tEm3h6ekJZaEFBEAvyhThClJ2Xd0+SN4rsak4+MpTPkil3qzQ2B9AXEX9JKRcx44hlBp1dd+YZMXMdRiNB2E6xqyJeUd1Qh30cIxRZ4kvQcTnvccEeKekaXkFB17bmAZvQSoF9Qpa3Rpls3me/GbSO/R9u0heHQwx30Vwdu38V5PH/LbSdR73mCTV8lxMHvc8j5vMd99YtZoiezyV4fF0H7dzyhLIEsgSyBIoJGDbKRZfJbOSKI/Zdtp2X9XMltvX2yfLEhB9kMqJeu8/JXkrW+Wt7NO7UVvuduobiXdu2//KKUsgS+DTkUD+i/0D31UCOsmpng5tbCWlaZTwKlmwUTa5lqCY1JSpmVPbJjmxMbZcR4H1Ris5lrgks5pEbOLFl34se0OyLuW/5c6HQKO3rMJ7Px2xlCXjdrIY9nHjzF+0qeLfGkcavgMXQyzNZ6twRMiDWhUHUjHGHwRYUy7nGV2S1TI67FIry9XnwwxxrFpvXvGmxZNd7fD4PZjnPU1up3PSOh1L3066xm/MlL4nt9O5bpdT+R5en1OWQJZAlkCWwGUJlNtYcTdZXzmlSOJkOyoup4FrSe0H0cxertYVvLl68I/dL2hsGty9BIzvpWLKXNn7bsQ8B4CTxZHHfE9qbMv9o6v9r/dSkVxIlkCWwAeTQCa0H0y0ry84NaICnaOENrCSWYEumYva2JbJg9sugqDnqzVzDqVmo+6bbJQtz3NslC1PkuJSLuuihpKTTFAu5PH6rcgvCzZLB6XQ0uoJw/AHxcguZ8B6z04JjcO7GI2H8V00mhBfzmN6bLyuuFOSPbAeSelNc51vrpfvtgzGV89M35HnpG/IPBdTIrZXryvvl8910CSnLIEsgSyBLIHLEkhtrG1kIrRp3qztrLjswLVTOySy5tl+p/b1cmmf0977J7JXpSf2pb5QWVPr+0nTbhyA8Bxx3PVVbLSM/K6uSjbvZwn88RLIhPYPfAfJLFgTJBtNSaxAJwEV6FKy8UwkxLWAKYlNo4xqYFPjnK4RNNXeeq1lW57nu50b4ySld1gziBzD7kgEAbuoSiXAvLtqaqs13VqhpzVGPZpY/B+Hap3R39FTgtMf4vCJ+alN5tp6bcncuKiJKl7fO1rTVZ1r1cLT0aGcy9rcy/VO7/Mq8F4+SwJdfAt+Q2+avEZQT6Pb7nt9ule695uWl8/LEsgSyBK4qxJIOC1GuyRC69o2UwwWq8X5pJW1fc3t6If/IpSzS0pJ/gnPUmza5JjT8+yLJaxL1+V3lSSR11kCt0sCmdB+5Pdh4yk5cPTWUUEbT8lncuaTgC41op5vEhxT8pghWLzGa22YzUsNbdr2uMcsw2OpAU+Nejrfsq2TqXyfdL/Pbn2F713avXgNiMURZY4iW4S84ZxoLglGH1aDsKqe4fdpEBbLQTg6O6ZzQ5za+Xboj3DO1XGODu8MAmsMPwPQ12uE56n0YniEWkUHUyY08kvO0zLY+7yHlN77TUWl7yUd93yX9C2a/7oy0rV5nSWQJZAlcJclUG4XxU+x3UFqFwetJbMm8TcRWnFbHE5YfZflc1uerYxZvjNl7ztwgMGUBh98b6mP5Pt0O70rzytjYblMj+WUJZAl8MdJIBPajyD7BHg2jm4Lcs6bdUmmxvv7+5GgJi1qqlZqMFMDm/LdtyyPu53O83jKE0DLjg1SfjrXtWXYkHtuJrORlyYRv7yGzJ5TSlnugkEAM6KmlYNoatcVyOz6FG3s43A2/C16lz4iVvDz588YwDgLvzythFa7Hvo9vBc3nVeLmXlnN/Q6vH+WToewO629AL+laLW0/IlaLh4mK1ecQ71cwSInfRc3Hb8u32tSSt9H2nedwP+6Y+Xz8naWQJZAlsBdl0C5vRQ3XVLbKCFysNrFbZMEVm2fA9blQei7Lqfb+nzpXbm27+O7SVO2HNy3X+bAhO/VfUmv55hSX8xry99BetZUdtrP6yyBLIGPI4FMaD+OnONdbPwkjwKdYXecsyG4CXIJ6BIBva6hLFc1NarlvPK2jaok5Kbk9YkIpwY4rW+65s7nX3C6y496SSvLIWL6wjJZWBtZnjA9iyWhGGZ0YJYHLE/DYPRrGIx/DcMJgxZoaNf1I3o1xLwLBKNfMgixxBv1HG+L1e2wquyGxfoAEnwvtMeE3mnvhzbEtlEz1M4Wa7S2MlxjBEaLKVj0ObO+XFX3fs97fNW1rzr2ci1yTpZAlkCWwN2SgLicBn6vYrD5kiB9Yojx4rvnJ3yXELlIoNK1uU39478P34H9Lkmr70sC67uzr+a79J16ju8s9c/K7+91fbU//glzDbIEPg8JZEL7Ed6zjaGNnksCPEPqqI3VdNiGtAxynpdAM1UvNZo3AWBqYNP5r1qnMlzbQNuAu3Z5FQl+VZl3/tiG7PIW4ZISWs3IXAzBMA6zxVE4HT1DK/sz65/CGA3tdPEMEMS0qbsKW81Z6K04F0Jbqa543ww4VEfwUzW6wzDm+tH0cQgnvdBqQmwbeK3uPQpb3S/DzvbXxLk1ILz3lckyUJHI9yuILSe+cUrfxBtfkE/MEsgSyBL4jCQgBouVCYt99GS5Yp4EqKydNU+Md+qPfi6SmbFYndvb2/XhpL6P78X341QwI09IbF1S/8ha21crp/wuy9LI21kCf5wEMqH9CLIX2CSyydRY5wMuAp0jto4CmgRHlzKZTeCZ1p5XbkBTfjnPc16VvIfga6PtSLIgLdia3qacV93jdh+TDb4rE1QjO48kdhUGaGMPMU/CvHgEkR3+FEazJ2G6eh7WzdPQ6hKup8GormF6ILaS2fUSEgyhlehWKk1qMQzrRTss5o2wmLbCfNKC4m7xveyE+eAwTAn5o2Vzv7tk3q0DH869ovbx512f4Xa/nVy7LIEsgSyB2y4BsVfsFEtdxPc0Z1YClExZHbAWX837PPD1tr+56+vnu/Gd+b6Stt0BivRuPW6f7ao13fWl5dwsgSyBjy2BTGg/gsQFPRtGiaujfpobS2gFREdwbTA95sigZDOR1FS1RHCv5qfjN+Wn4+W1jbLAap2Ojo4iqfW+Eut0H9fW426mpNr8HaS2omaWgYDVIQT2h3B4+v+Ek9H/RjP7X2FdOw215iR0eqvQQTPbaKD5htTq8Vgz5cVSja4mTIYPaOAx+Yw8yOysFqYj9ieNSGpnk34Yj04I+zMivx4mWyHs7z8M1S6hmRrGqoXU3tl3dDe/vPxUWQJZAp+mBMTYhI8+gfsJdxO2pwFiyau4LjFKBOiqVu/TlMLdr7V9o9T3sa/kgH8yH08m5KkP5ft3+7r0qmPXnZ/zsgSyBH6/BDKh/f0yfOMSBETBz8ZOgJNIui2hlWDakF7XQHqOy3WpDLLXHb8uz0bb8tQae08BWELr2n3rdbeT81/f7BmFK8bho1a1sPOFzFZOw3z1NBwP/gmR/Uc4Hf89zNbfh3rvSWi0mBfdWYR2i1jBLPqLqtYgtBRkWfU6Wlrn4MZ9Bw0I54AX4zoktd5shObUubWtsJig0T9thyUekUfzfqigxG+0ZtTkIWXvhWajY0Agyt8UTEk5ZQlkCWQJZAl8GAmIi2W8FbfTYLQOHsV2U9LyJc2seeJ7SpZzHc6n43n9x0rAd+M7dDDCZF8pad59x26bkqY2EeCYmX+yBLIE/jAJZEL7EURvA5kATEB02xHcNGprnosE86aUgPQ6Yntd3k3leO/yfSSxNtyCbyLZN137eeU7+uoTay6sd2qJrO9nAsE9CrP5r+Fo8P+GQ5bJ8vtQaz8Lna2j0O5XkCXElWulzFJnk0W5H/knO8XwhJ2ckSFnIzltNlth3WviZ2qG+TFmybXjMFy3wuS0HlYjtL0Q5LUFkKcH5KqDD5LaqP2lqJyyBLIEsgSyBD6YBCQvktM0ICy5SVo8bypZTfNmXafBY69J/QCxPJPaD/aK3kvBvrf07nzXqY/mAEaapmW+30MmtO9F5LmQLIHfLYFMaH+3CN+sAMmijiEEsu3t7dgovo/G8G3IrDUVVBOYem0i14422oCnlI6l/buzxkFXpJZSzCuplFVsQkcj89REGM1qZRgWq4NwePR/hYPB/xmOh/93mK9/hcQOMTGeh1aPeVNNHGxxcSqqvE46YYtMRPeiBgx0MHuW4QZIK04o0Mb2dxtYF9fDoL4MyyneMxfUHLPkethjXm6XObUbDe1FIWyVNPmE+jlPpc3zvLyRJZAlkCWQJfBaCYiTKUluJLJOE5LcOEAsdjo4nAaIXZtXvs7t8n4qL69vrwR8jybfm+8zhfNRU2ue/ST7Tg5e2J9LeV5zd/tQPl1OWQK3TwIXDOb21e1O1MhGTQLpYpwzGz8JrYAoMHr8YycbXeuTCLXrVMdyXcp185q7kAppv+5Z0jtx7YJmlviy6zVeD+dPwvOT/8Xyf+Df+O+YFx+HTh8tN5rZVhuCGc+/oKvpTmmtDD2a7uB+SpV4xKOYIVeZh9tHi9/CzK1C5+kUb4tDOkSzbUjut5DZbc5DU4DHY3JTEexzfSxc+szGimNsXpxxfmreyBLIEsgSyBK4RgIJ+67invnJzFgyK8HxHMmO2K6lk2uJkJhqKmtnU575lnW1fPNzuj0S8L26pP6RfTbfv4TWbd+t60RmXZvMK7/r2/NEuSZZAndXApnQfuR3K4CprXWdQNMqlLc/ZJUSgLp2sdFN2943Hb+6/SHrdPvLNtzOKQ6gfgsng3+F4fRHKOeT0N0+w8w4hDba2RoDufLItAhrLhfk1T0D/hCsna14YsE13Ysp8tC0E9cnoVpfh94ONsxcezLphfnyGZ6P8X487bM0+ZbaaGsJ+J7Uvxcb8ZpLxeWdLIEsgSyBLIFXSuAmLJa8SGQksjp1TKRGAuu0Hf1QuJ0IUMJSSU6Z4KT8V1YiH7xVEvAdJseZ9pnUzpeJrRraTGBv1SvLlfkMJZAJ7Qd+6YJXGSBt9FwEvXIS8P6odF1D/HmDrvpM6WWxXqOdXaKdHU5+CcejfxKW5wnheNDMbi1Db7uC86eCvJbfn1cWHLMGhWUO7KIWZmhL5wv0sDqFgtbyGeAMSkdR6dxyCW5PmXN7ihZ4jlkbGvVWLyyGBxDrF6E1pgPV1RzK76ltJKAiOcfWuquZLaf0OOW8vJ0lkCWQJZAlcC4BsbpMPhN2S2bT/EkJrRZWHnNwujxnNvmhuIqfYuzVvPOb5o1bL4HUZ1MD73vUzNxvwG9CLb0E15RMj6/rU936h8wVzBL4xCVwmVV94g9zW6v/OiATGG9DA5jqmUD8tsrz49QLQriGca6qYcmcVuPNGmf2ZPDfzG9FM9s1Jh1kFk5Z6F4L+mvdpJL+YTGDCk0ujp4WjXB6vA7DM0b450WHyai0DOpCiNHwUla3k+izJVykCobNkt868Wc7fTwszs/C4PSnUK/WQ7vDPC1Uw63WNiR5c010plmQ2Uio3ZTsFux6c1JeZQlkCWQJZAmUJZBwr4zFyaQ0kRY1s5IYTYrLZFbNrNclk9NyuXn705dA+jbK1nW+a4msAyCGQDSsj35S1ORKbHPKEsgS+LgSyIT248r72rtJJFODee0JHyEzkdmPcKtP6BawQYjgcjkJswUxe8c/E6Lnx7DbO4PMhtDE0rdRcMdIYiW25cQMaa6thglxZJ8/noYXz2aYC88BQD1ehtBHu7s3q4a9/TUgiPk3eRZX5p6W4Zzaan0EiWbuzmgQJovf0BZ3Q3+6w3V7kcx6nWXG01lZUOaxCiKnLIEsgSyBt5eARMVFAitxMTSPWjmT/jDU1klcJDCJ6Nx0l4yvN0nmdufbL/MbMKUBC9fm+05dyhp79z2WBkWuWuLd7qfNtcsS+LQlkAntLXl/twnwblNd/tDXI0EkLVaTMGbe6mDyOAxGv4SdSi002ngzhnlKPqWcktm0XRgUF/nT6TKcnSzDTz8Mw4//jWOnaZGPwjXsPUCDy8nVRpV5spgraX68KcdbJytiy6vX8KrYxcypxYhweIHGeCeMpw9DbzYKC7S+ddgw1bpI2cT4QhZ5K0sgSyBL4DUSKOOemlkXTUvVvKmhdW1SO5u0cK8js4n4vObW+fAtlYBk1u8gkVm/ETWzDmSk78Vz/DYc+Dg7O4tPIpH1eCa0t/TF5mrdSQlkQnsnX2t+qPchAae6aso7n9OZmZ2ExfIYC+RjtKXdUCM2z4bvnq+v3tMzZpOAifAiHB/Oo9mxMWOdc+vc2VZLz8g6CdtoV0sFyEdTivchbFC9PsXr8Tg0OjVi1R6H0eRFGI1PQ6eFR2TYcJMQPzllCWQJZAlkCby7BCShkphEZNXOpjmzmhZLYtNacvsqM+NEet69NvnKP1oCvsO0pLr4zn33fisS2jTwIan1u1Fra5IIJzKcrs3fRJJEXmcJvF8J5B7w+5VnLu0OSUBLoyURe2azMYT2mCm1g1BvMkLbmABSzpC9SEmbao6a2mpocrwZpuMVo7YziG1horS3F8LOXiWaG+8/qIZH37K9A6nlL9HyJLJqZNM2m5vEHWoT5u+O0eY2woyR4MH4WWjXD0O7NkRD24Mo5z/nJK28zhLIEsgSeBsJSE5MEpRETE5OTqKpscckMJoap/B7SftWJiipDMtJ+eU8803pWLGXf2+rBCSuEtLr3pf5fhMmt9XO+r0k79d+Ry4OfpSTZV5XXvmcvJ0lkCXw9hLIPeC3l1m+4pOXQFn/WX6YMkWVXDJSv3D01Tm0A1BrDqGFV/JXg6uo8oVXtoujq2iuNmd037mzlIW6V+CrYh7MNFo6TeswnailXYdFB1IrE96k62voXNopxBWvy5jALcaGDlB7PMUs+hVOKErlpvLzOksgSyBL4HOWQJloSjzcT4ta2RSaJxEXiYnzZiUx5l1HSt4073OW+6f27Ne9U5/BfMmp86f9btTq+x2prXXRTD19V343DoD43eSUJZAl8GEkkAnth5FrLvXWSkCqWNanlisq2FyQ2jU2x+s14LRifsxixBzVeWgwT7XmfNXyZS9tF279J9MV81zXANsa78bMxYXELiC1TsWaofl14m0dMlvBfLmhl2NNkTd4l8q/TGwltDO0tITzaeD9GDPk1Xoe5tHRFM9Uvihtp7pd3U/5eZ0lkCWQJfCZSiARjjIhkZiobdNzrebFkhHjzCYnUEkz6zU3kZ3PVJyf3WP7/iWpElsHPPw2dB7m96OZuubHHpf0Jm2vQsrfzmf3qeQH/ggSyIT2Iwg53+K2S+CmUVN9DOOVeKln4k34HObAgmHXmASXn5EYs5zXaFbRvi5Df6sS7j+qxPA8+/cxROavbszcWont4cEKogzgQWareD02fE+ZxMpDrZ0UnDFg7gsrrmDKBJGdoTmeVgDN6pjR4a1Npbg6ktdNJcvVyttZAlkCWQKfuQQkE2UiG8ksGrX5HAdQaNXGUyxyZrOoidX5j0S2TGYlMakMSUpOn7cEEqF1LaH123Ipx6lVQmptJb2J3H7eUstPnyXw/iWQCe37l2ku8ZOUQGSBpZpLKzUrhsyuZ2hX5xBZiCp/MclqqHzFZUq8DrUKJmmoc7t9CC1zZr9YVMPu3jrsQG7XsNPVQaG5PTygvNo6dMnvQmorm+k215Na67MhtCsILR6npmiPpxVNm/TE6PwvH8Efa1Suofk5ZQlkCWQJZAkkQpqIrWRjxtSNswHzIIk1K+lI2tnkBKrsBChLMEugLIGkqU3fSPn7SsTWPBcHRzw/D4aUJZi3swR+vwQyof39Mswl3FUJyAcxL1bbWqvjWXipKXFBGhPhTJQxUciroqgygN/Bk/EuzqDWOH/a3dkNy3kN4jkIR8doV4eYIzO/dnC2DrsoWTFiu6ShvVwed4O1CoRYxWHKPGVEeBLaFebQYs9ckNnLV+S9LIEsgSyBuyiB1Abf9GypbS4fT0Qj5tlgMgXEvNl0FoaYiWoiyrhlaOOKvocDqBbrFuYzVQYoTYm4xJ38kyWw+SYSOdVcXS2tpNXvyoHlyWQc8XmKL43KJraex9T+p+uyILMEsgR+vwQyof39MswlfMISiJ0iVKaV2GHRlOzCYrd4LHo3jKZWIJGrOQa/dID4Tyq6S3Fzs1cmtRor+8+z1Jx2cPpUx5vU7m4/LGZ1Ok+rMByh9R3O49xaSe1y9Soy6z3R+m6WFc6qxiPn0k5CCw2t5nKx7tf14rw0pyyBLIEsgU9RAjayV9o1s1Lbmx7pyinxuHm2wxcnXzh/WtFgrnBjv1iuonZ2xDwQNbUOYEo2+sybrRNfzXa74sjkJklqc8oSKEvAb0KS6iJJdXG8ZA2mr3QWFR1LzsN67DlaWoVoBaCZcv6eypLM21kC7y6BTGjfXXb5yk9QAoU7p2K0fQ2RFWzo1tBpaZyPnhaPVZDbSGBhsIuFmlS0ovSNZuARPp706RQNe8tikNSalpyn1nRAOLqT40IDW9F0eTZCK1DBrM24tovQhuhuY268u1sNbU2Oi8sv+l+b/WJVBSSrYcHNJxPKHmBqXBvhfHkQJqMZhJv6GB93Q87PC7tUxtVu4KWDN+ykWt1wOGdnCWQJZAm8Nwm8qo0qBv08I7W15dtWX2o5JbCeIZEo1m4sIa5zGvQpJHY0HOG0bxGby26rDdGoh612l3BoYIJkFh8HDkrmlCXwKglITMsa13bbGMVYVGHdNWpOYmzayYQBbPoFTjuyz9Hhe6th3u4gyqvHSdLfxOuxOJ35qrpePfb6Uq9ekfezBG6fBDKhvX3vJNfog0vA5ttm37F7PRlvIMCVvaRN58URfEfvJY+jwSwMRsswJm82Y9SV0y7G7IvSyDpPsShYLZdjxrYOJ0e4l4IQrxZDrZgJCYFGlfUWjqB2mWO7u1uYJqeanRfERqrWOuBwYlHDPI6wQHMqua7HEeDlfMk95mGESVO7bRgBamZBL6VU0ksHXpGRe3KvEE4+lCWQJXCTBGxu3iWdt100npfKkK6aUbS/bqXDXuJiu1wk/B2w4flF3uZsGuQ17fJqPg/T0RiSMWIZRy1ZswnB6LRDDzLbYnSxgekoLu1lHje0p+leeZ0lUEigrG11Hrbmx5VKsczoABjfWIdjDjo364x283F24pdbEN/r5Zi+8uuP5twsgSyBQgKZ0OYv4bOVgOCjOZmdnjg6mnDDHhB9mCUjqRLFk6Oz8PjxcTiEMM6r6/DtN+ec90bZRadQrRpma4sw3pqHoxfrcDxYh+EAjSp9JJ1L7eHx+Au8H99nfY/5tXU0tBcdsqJoq6SBkmsM4eiIdZh3ixahthe+fPhFaFa+Cu3qPYByGZ4/fx4e3N8L9QZOJ4rL82+WQJZAlsDHl0BqS9/lzo70xRZPSppaRLffpFVL15ZvTGUctKQhjWah2IIa6uzk+CTOmbXxbzbb0QNtt92J61oRn42Gmvtec9v0eNccKt84b3/2ElBrq3lxPfSZk13nexpPRlhaLcMJc7YXfItrPrF2BU2tAycvpfSllf8OyiflL7Asjbz9eUsgE9rP+/1/9k8vkS2bISeB2P9xNHU4HIaDw0F4+ngQBpip1YgbOxvrmr9GX8dQPjclvA5TeKdbD3u7xKbbH2FqpKlwQZ47vUrY26+G+w/Qzhqup1104YrZNUWZZahao29YzJrcu41moc/o7oPQf/CnUF9/gd52m/rQQTs9gkATZqLXxISpRj+tXMJN9cz5WQJZAlkC71ECqQ/+rkXGvrttFwUlW1/LjG110U6Wqa63Kbd0ehqIQ47adZriiCDTS/A74CClpsZjtLM6glqS16bxVSMrmW110Mw2m5gZU4Y3cSml9Ghp7aHyvUun5s3PXAJ+I9GigA+kToD5LjH56pvvakJ4qBmDKlXIbVUrAM7U7Dg6oNRx1OajKlaJzCrQ8nZxnbnnFxQ7l37L32o6kL/ZJIm8vksSyIT2Lr3N/CzvLAEJrMnpp/aDGEAljtw0HJ8chYPnp+H5k3FYN3G5DxLMRnXmXtFtIsROxKLi0ku/ApkxbNudOqZrzdDEjO3RN8sIYp5Inyn0uoXJMZZJEaasgkDjWtgSrtx33HYxb4TJWS0MTzthPtoPvcZXYW/nT6EGoa2segRyP6WTxjLth8msFUNO1KC6RYcswxcizClLIEvgNksg9dVTD9wBudQQluqdWjOinV2kTWbM4sdBSv0NrCs05DrywwfCgnmyktmzU3wOjMcMOBJWjXmOHYhsl/a5S4zQGmbHlQYtL5Y4oVK+QXErc6xSOuJtbZ9TndjMKUugsATgS1nSsfBfBULbRuvfiN8W3wuf2BLnUHMcYpwOz5iatIj7bebUNvkm/fScmlSYjinQ4ou7/J2l4W9z7S1cTTc7mbS0y2VdvTbvZwl8ehLIhPbTe2e5xu9VAkWz7q+NvGR2gaOoGabGZ5gEHR4c4HDJ+VjbjLJOQwfToSVzaMeDRWg2xjDTy5VJIFHAD52dyoIRf6gl82R7W3g+RE1rhwhLZ8rjcnAo3TuVVO4wpbzlvB1OT2phMuyG6uoLnEl8TZifrwG+PeaE9TCdo5OGt6rJdBRGozZl42kRB1FF6deBXSo5r7MEsgSyBG6DBFKrmVrRK3VKh8mOxifnDaeUoWi/0cPG7XiI+Duadkbnf+tFGE2H+EKwfRzHfElsmzmzkgg1tDrn0YlPYWacyMKVOmx2vd8Ntbz+gpz72UlAHxxrBlMcXKnDTnUYpQaW4ZPz73VMmCjN34eBSAWYH/d6LEhKja4myDGuQfzQLKX4zl/+7vwa7TWU02XMf/XR8nV5O0vg05VAJrSf7rvLNf9dEhAWSo2+PSRwQVf7kwkOoAaDcHh4FOelLlfNsLf9bWh0d0K7dxJWs0Pmwh5DUGWk2BFfky6DDvFiCftQbZILAU6dr3ROWltMOiYAmV/jgiVzZyeTbjg9aoTFsBe69S9Dv/NV2Ok/4qQuMWmbhABqh9FkALGdUPdTTJ0Z6Q0NlBOYMkVNQ/ku3imnLIEsgSyBWyQBm+PU8KVqlZrolHVpTdum2yfbzcJfPXuxvSOP0ckVRNZWleA84WR0gjO+05hvfNnuHg6guluhUYXIujjZMXqI9w7Xt5fmWiXvl7bZzClL4JIE4nQfQx2gea0S+qmGNYBTw6GpDJ5oWswgd6MdKlhWHc+OsQYjDjJh+FZFTEAGWTrgN+fYQ998k353ukPzi3/560xf5KVq5J0sgc9KApnQflavOz/sZQlchgXnV43Hy3B2Apk9OgjHxwLNGMPdTtjufR26249Cd2uMlvbHsMbL8OgMDS0dJvpGmBUzqropPI2GXik9doTME3o8pwCo4qLyuZqwFWZszNUNW2Ex6Yfl2PVOqK3uMRfnS0zk7mO+1ENT0Q5L5pl1sV+ezbYIP4FJ3dko7OzMosfOchiB4k75N0sgSyBL4BZIIDV6NoikuLJRTA2omamhdDsmzorXeaBoSZdQWYKhhCna2NkKx32EQ1tpwsm+FjHj0SiM8WQ8OD3D8mYa+t1uaDIVZNHG0zxLpULYFItL9yKsWvTUo7mO9bExLiVvn7LcjtUpHc+bWQJRAsXnGb+P5M+i8HfG4DYktYYW1m9vuawQ3m9KlIJh9Lrdbp+G7e1+6OFEqtF0ypJektHyorFtsl3H8kqNr/9uSg7yoBO+6XDOzxK4kxJIffA7+XD5obIE3kYCcxyEDCCDR0cn4fmLF4zmn2EOtGS+aw+NZ485q72wvcv4KCCzWk0hvi/ClBiwht0Bm+J82g2GXbqt/aSUCqJ6QWZTh8i117r2j7Lo13WYy7sdlpO9MB/vQqJ3uA/OoDqaHO9xPybxEhIAtAu9DqSXeWJPnz4N08kwzv/t91doHQow3HQX0U5Q+JWUwPZKdt7NEsgSyBL4KBJQ6xSbJhtAJ8fyfyWxNJUbUBpGgpZtMos1Posx2CTOJ8vZjKkXc8w3mSu7wPP7cjnHB8JBODo4osx1aDFHtr7zCI+zTNNocRXtY9MWd03L7JIsjVXsus1gZZkXbGp0Mb02ZXBaTlkCxUdckoMMdjNQ4qci/uqfY2k+2O1kJsbRCQk4ZnrTUbQeqEJW9/fvE8pvl0HpFgPmfKEQ2VarAc63wH50t2yrub0gtfGvhzuU/1jMyx9o6W3kzTsugUxo7/gLzo/3egkIMkvmzU7HdIjOTnCnf8poKU6gsD9uGvicuVj4b6BfsxNaxNZp9AaEgJ2E0+lxmA1X4SyMw4KR/2UfMirOvAJDEuxYq5u2vXxFJ2s66zPni+VkG0dQD8J296vQa30Xtvr3cWSyxb24GYCllZJhJuqoiWsA3wKthLHuND92Hm01xsHzjsDfqyrnKTllCWQJZAn8HgnYgJUbt9eUFbVWtk02xF7H9YVRJSTXLDSlS+fD4o+giEBLW71C67oahsHkNJyNCamGD4HjKeabk5PoXMdGeAWhtS08JTzPAH8IDhI2ILTP6k/D3nIn9EdbYbe9G/Zq+2Gnuhu66x2sb5hP2+iEBpozQ7pd25hbqfP0isb+/Jy88VlIYPNZxFXklRBOPRdjbrzE/HjK4Ph4vAhDnE0OmdY0xsv2GYPmJ5jBn5yMwwl+OVZYFzi0M1kehaPBFOeO9DfA+SpWWG0JbbeFhUEnrlt4lmxyzPjJrpnVVHyumNxLda1Hmd5+Fu8gP+RnLYFMaD/r158fXgk4b2UxXxEfDq/Gp8eQ2mO0nBBaYEEPmHGkn2FUvQk3qlthu/OnUGnpgOlFGABOJ7MXMQ7sujrHHJhoscyTTd2cctfHeznon47ZwfK4S8qrMO917bJuYybXD4OjfhgebYfK8n7Y7v8FR1AQ2t4+4SV6kdAaV7EC8daJRHQkYbgeqLchAcYQ9CYgqNlxLRNZpJxTlkCWwEeRgA3a1cbvDW+ctE6xbZTMsszXaFyr40h6JbbH68NwND8IT09+CY+Pn4Snp8/Di+FRJLQVNFw6eVotV7TdaG8ZnJxBIAyjVp/VQnvRDt1RJ2yd9sNe9374ovVleND8InzReATBvQe53QvdWo9BQq1bNs8R5+WWHyBRBVvx1HqXj+ftz0kC4nBK0bKA3QpENsGu5u/D4SIcnYzC4fFZOJLEnjIoM+XbnGEWD1aPx3yvmsmznI1P+f6GaGVbDKzwjfGJtSGuami3+l2mQHVxINUlTF8nxrfdwuFkg5EhTZEltsm44fIfYf5O0zvK67spgUxo7+Z7zU/1phIAeJaMig5wnX9CiJ7B4CRqNvVO2NBcl5HPyXoc5tOCitYqhHlofAGhrIf5NvNn6zthPPsBz8dPIZ8QW4hwqzMPROoJDczV9OcAvkTtgHByHaQUeXhPXrcwG25TRgsT404Yn91HM/sIC7yvIcl/wQnUnwCvLxi1RYOgjbMJzUWlill0qxY6ixZzb4gFRAdwQny7k5M1XjwLc6UqGgcB9iKlDtlFTt7KEsgSyBJ4bxK4rrG7pvB0mpSA5qxoLFnZjzdPIjpZjcPp6jBaxZws0MguILCz52hmn4YX4SAcNo7CSfcsDFujGCKlRegTByLnaMHWHSxsGPTTOsW5i85FbNTU1FZDbwkZHj8PD+aPwhf1g3B/uh/uTe6H+/go2G/vx0FDNWR1TG/q0cSTOkpuI4Gx5tbQdjU9BZs53VEJ+K5TuvK+2V3yjfmdLQ0XRZx6xlJYiFsPYR1BWCWzJ/jdOMXT9hBNLWPhYL6x/xiCbvdCu87AzWLGPHAcSZGndncJQbXnwZkM0FDuHAssrMLGmNV3IMCdwTxsjZYsC/oGzdBvN+KAegOLLS7lW930EzbVvry3ycyrLIE7IoFMaO/Ii8yPcbMEohYzDZVeOU3ianzCwUDTHwktZsTsVxjmrFUhg3R85gDSbD2JV+rEodnYBTh2ARhGTytoT9c9AKYdJoMK554AYIysdkeh6YgpVsFYAYtZ506jhEKhsaDy4o6YAABAAElEQVSUkGaOrFlmUxw7jXuYGXfDdNBj7uzDUFl8FZq1v6IV/gsa2m+YP3sPEyTi1OmRc1NKhV5go1HBMVQj9PGGLCieHB/F+WM7O9uM8hJfkdMvtLTeXWjLpBYh5JQlkCVwCyRguxgTzVKFOLA22Wvm0+qjeLochKPF0/DrCI3s5LfwbPYkHMyfh7M1JseVk3DWZO4sYdRmVTSxxPocY465Mu4shLZGWy45kIeq/Y3TLiCkK6xu6vMOmt6jcOhSPQ77tQdhf3Q/fNv7Bm3ZAtNOvMpXi6UCFhB4jSpaN9tQa5zIrOuc7q4ELhC7eEbxs/hiPVIc5UtFu6qTJ1aQ2DVaWbStgzGWX5BZ4h87V3Y8pT8RiS/YTwdBPNfxU3T0hFPHynJWdBi4xZqpUGu+Q5f4AUOUZ9NVGFJGAyLbbMwwncd1JNrf/Vk3rHbaoc851iiaKm/+qPzuU7rYSjl5nSVwNySQCe3deI/5Kd5BAhLdOZ2e4WgYDl8cEqbnEDNiPRdjsobdsA3/Au1t9JYZ90AY5rKsV3oK6YeOYXgwD64BSoNRL5xCRufLp2E2eIHz4wFa2yFzttaYDukFeR2WdKp01x/BJSKgf36E1gGAlvNKGJ6hlT1tMx+X2LKze8zl+hYT5r+Fe9v/gZnxN2iD8Woc2lzD/BiAzpiL1RrISecqmtOhUe722hDqTiS0zqOdMI+2w/zeBipjw/cUc2ittxXIpBYh5JQlkCVwKyRAu2STRNtEa8kCkY3/RuHJ9Ofwz9N/hJ9GP4SfRz+FA7SzZ6vjsOoRkKc9D/PuLKxoC2tNNLEN2rbanGaRTj22lw7kqalaLea0tYWm1ntUmNe4MswZA5kLvNsPZ6PwAs3v1mI7nE1PwmgxDBgih4dY5OBr1pY+1ooALLGOFyTB/ZzurgSuf78pVw0qXxP9hApfLC7LOMAMJubAzsOLF+Pw4vAYQntK38AwUnw1tXZoYEHQxh+HfYdqlX6A1lN8oy2iJix02BEtsPgLYHBaMhu1rQ6msL2C8K5meEXmex5M5/Q7TkPrhPnkwzbhBDvhwX477O506Tt0IbX8KTCg459VHnK5u19ofrJCApnQ5i/hs5WAc6xGmAifnJxiDkRs2eFpdCLSxFa4wfypOLc2jpDawSr0mVBS0Auyy3zaZr0NGAFOOBJp1Lp0nHDgNP0tTNEkLJnfNZsfh3kVbS8drUhs+Wtznqukcg3qVfSqiY/N1aKGlrgWhqctzIw7aH0fhVbtS0ybv8PM+K/h3t5fCdOzH70YxwkyEZ4AN7UMVCyZFtUgzJojd+nc6RVRp1DOzWnjzVMtrfc1v0hlUrvJyqssgSyBLIE/SgI0SQ4yGnIEd078w0nfGuc4qxfhp9kP4b9Hfw8/T38Mv81/DqdLpoZUR7SrDBB2aE8ZOKwQ3xPWGR2/w1blB7SUscV2CJA2FzKLkyh2/B+XFVq0OVM0vNt4PQpnaGoPJp2wrGP6WZuGWXtKuRAN2voWFjvJyiWRA8spSoob+efOSSAhf3ow9yWwxoNlkISvqNDZQ2I5NCNSwmimP45VeIajp8eHTv0ZRxPjaPWFNrbZBONbhI5qd+k/OM/WhS+JwW79Hq/V/rPtgPUCje0akqtTKD5g+gqEpZqNOcLgCgPVuMqgz8HgzWpO/0DP3mO6CFvEvqWSjKR32YBD4+Ss6L9IbHPKErirEki927v6fPm5sgRekkDhwIERVUzODg+PwrNnzzE1HkZPhDGgOeZqElpNkatO6sL8TQgzrUUHvQZXW4AMC8BTQ/vZqG+FXvtrRmmPMTs6CQfHP4YXLKPRKd4Nh5wD9NXQqIIomghLRjU1tgem1pVw64AVcefW22hk/xR2t7+DiO5DTu8DgH2uRT/ArU3FqhqJbOy1xboV+gI9cwqYvV4fQg7YEX+xCYh2MZ3TOdRl8+tNgUWx+TdLIEsgS+APk4AUYQkRtSNvGJ5ROI7k9afhP8M/R/8I3y//FQ5aT8KgfYApMiaXsMpqpyCya7y5uzAaSP0jfWUtOS4IsjkE8Y6KsJTvg0bCq3kzmt4qWq/VGbFsT+fhWfiNaSaQhyFaXa7tVNB44YynVaOtj+FWJMpa20htM01QlncnFVhfPE+iq8WeX5OJ4RK+C78ktwuyOAFwB2O0ssfT8PxwEp4fLcMR31OD+bHd/m4kr5GYiuAMLBs/Xuvg+G362UJc7V7QNaBQSyVJdPne1oxar/X0xPddiyM1WFy15qEB4dWsXo3tdDkMx5g3t0/pWWA9ViVCQxUVbUtfIF5KcX6p8X7WIaX0uKWsdCivswQ+JQlkQvspva1c13eWQEFiLy43nMN4MmH0FHMg5pvO8eAg4WtCZqNnQRyH6G3Qdr8AgHKrD5m0MwOw2KGp4iiqwTyrTuMBgITJMmF81otHYTH5MtQXJ/SjTgE+Rlo1HwK01B5IbGsxnA7zcKtd5urqtZhQPHhRvrf7LSZDjyDJ5qH5RftrTyz6dIrV8EcCa2cKiEXDwA5Lof117kynw3zc6Ol4DKnWk+IMkg4p5hkF1cL0mGtyyhLIEsgS+IMlUNBOnDjRPk7XeJtnYPAwPAnfj/8V/n72v8LPaGifrn8JoyZWL91T+vi0hzBamlB66rSHNo6RV9pa2z6mxS3ph/vq01ybNusmxyAJlRb7YIIxxhcNfCpM0NzSZuoVublqhHv1e6Ff6YWdzh73xbFUbIxtgwuKkLlAIdW78ytdNV35Xtg3x1/XBtkh/DsmxoTvG00gs4Pw9GAcnhwQ1m/EXO5lI+wQBqrtgLLfLP9WmhRbBjhsGealJKGNyQOkSvzAuZf5YLe0tCpBZWCl5nxdvtUa5vWLOoMxaIbnlH02mobmGd8ofYCqTjy4zrm6NUhx0isnahsr4I1yyhK4AxLIhPYOvMT8CDdLQCLrvCnXLsUIacALMKbGp8ScPWGuFNpZ+yWa47rEMDcb4hcBLToA2SBMvBUnay4cMc8ODaCx9k8Js97QA3zmYbe3Tcifv2B6PMRJE16SWU8xFZoxT2tJp61Bp8h5rbVaB3M2wgFBXKsVzYLbmDIbY5b5snSaihiyAtkmCWwJ9c7BzzqY6F6xaf37/X4kscMh99U0ic6ZZF1Sa0pycDuTW6WQU5ZAlsAfKQE721O0oseYEz+dPwk/zv8V/uv07+HvR/9fOK4/D6P2cVh2RiFsYQZMp97pFytMKgtSKcGQIKR22nXatmTJrDmJqPikxdmVKnmGWoMYV9io6u+AccnpaB2Oz16EJ6N22FvvhRZe5CsPGUaMxIRt2mf1ybH1XedBQiV6t1P6noqn9EsyZ4all06aJLO/PMbzNlpZprSi4WcgmulLK0zVV1hYGU4qDib7xfgxbvD74pslK94CiounZJO7KmRVzqa0jt8afQJM6Os4qTTyQp1pT6HN94tDqunyjO+WEFeNE6+O96SbES21kpVXLOvy46Ti8zpL4JOVQCa0n+yryxV/EwlI1gQRSa3J9RJznlOcNBweHjDHdESXpAjRI9l7mdylVp91jClxcVdNg4rR1RLhVHO71nMh83CbW4AMThzQOMyY2zKbj/BQiPbWkEBoAmqMstZxDFGvcS5ztAqjIM2DJJ0ugloJydiL6VKWO9YxZaI7htC22220tMW8WbXPElufr0xqi8Lyb5ZAlkCWwB8rAYlmmsd6ODsIv0x+Dt+P/hl+GH0fnix/C/PWIKyZz2p7WmkVBNX2sdA5FS1g8Zva6/LzpLxinfaKM9xzAR8Ifxbn4UJYHTNUjzYan4SjUSv8dvZzaK8YbCS+bQ0SXWveY7BREmspG1sZAOFl/PB4Tp+eBApCuRm1LlW/9PVgGbXknU+xhDqDQB7DYo9OBsSQhVTOcPZECJ0mc2U1+11t+iGaDjPkzCcjjfU7vpwi4pPptKQKxNVU9FzSN06G1gGUVwzkMKCi9hU/Hfr1WC/nxFxm7jkD9tgfx75Pp1UPbZjsWhv92Ke4oV/hzXLKEviEJZAJ7Sf88nLV30wCdjIkeWpoJXdqLA8ODsKTJ0/YV3NZaGYlvkmjK+lNJPjyXYrOT4Qiej0RcsCo2K/xRIdTzQTsdCplmdWKTqbYpg6NBvNh7QBVATy0DIUGlhzqGOfnUrx1iPNsi9KL23vb85sUWTf9WpZkdgKw+dxqZweDQdQ+S3TNc0nJ+5lyZyxJJK+zBLIEfo8EihblzUuw047BcRivBngwfhx+HfwYvj/5r/B49UsY1o9x/LQI9T7tpA7m41QLjYe9i1faMNoiuy7f2f0iz9/UgKYr07GinMKrso57AmbIFmNJM8Kt6Jjq8ehX5is6lQOLGgYge1jA1PGzYCu6hmCsICC29TndBQkUX0vxJRU4maLB+u34rUXkBzeXTl0ioOwxRPbkbISpOiF5FsyP5Yx2s03Uga1LuOrVOn0qyCx7hUo2lqrkdNehF+1i7Lz4MoXneJ0nxO/Z32IwJ04zAsslvxU1wfjjMJ69ofuWfLt1rA92OvWw1WSAvNvm3lox2APJKUvg7kkgE9q7907zE10jgURURyNcjRwfRw2thM9OSJpb+ipCd37sUp9FmClBg5uOwEpqY1en+PMyZqHzV5xrW4vXQyjVwsZRVs+3HEsCLmOeJ5kfs1/7c163zZlpX/NpTY/VziYiL5lPhDZ3wF4r2nxClkCWwEeQgF13gu+EIYTWGLO/TX8Jz+dPiSd7Fqp7DAb2qASa2ejZJg702ThKL+zYFymti5bUvE07Gs8o2lipgf8uSK3nFHMavUKiwUxE7kMeIYAWTdxToWEb1E/CiyUhfU6JQV7bCffrD0Mbdi2pjaakUVt7UQPLyukuScDvJOlKi+fS6Gs6WxIuZ4S11wlr5rFinVXD2qpdZd4s2vxW22gJnB+7CsVXV0yB0pN38d3FL5NPxzV+y4rbsNYSXstjXWRoMeC3nvoFlmR/QV8eJv15RAeTTmHq7qClXRHLntA+1EnHkJPemCniDMIYDohBm1ideGX+yRK4OxLIhPbuvMv8JK+QQDI1Pjs7Izbci6ix1DGUGss0b1YiKPGV6CVSWC4y5kcYKeduoMG+jJgSE1ADwETSyvmmwjU/Zcf5r4BQRCoOOCTrEKyk1k5RBChR7fcnifr29nbUNKuh/f/ZO8/1OJJcTUf5oidl281MH/Psv73/69g/+5ydOWemZ1otQ0r0pnzt+0YWiik2KdcyFBUhJdNFRmaiIgF8AAKR56UFxEfosXfwncITXffa/vG7lxYKBQoFCgXeTAG5oxxUkMmM3xnQvhg+Ty9GT9Mhc8JONi9S72GXcEkyuTInbcVjg9lWvBXGSQuq99U/K+UzppDN/FbeyqYIgftUsCLuGv4qmbfeK4EG06A42JDM9HPCNcd4uC6YV/x4cJCenz5NW42d9JfVn9Nmd4sEgvB5p16p7kgbpdw1CuS+lH9f+0gYP5x3lh7J2NkTMgvvCWhH1CS5Y5f8Fy1mJlhZYTo/sg0zlX0FarnaafbmjLl1rtm50/DQ4+pdR8+sSabMGyVUNdlxBrN58GvlXUWZ4BL7nXpK1fPtzSaQarZXSE5p5BepKY8PCZkfMTftebrIOTXI3UGdjlEIpRQK3EEKFEB7B3/Ub+2VDA8WiArIApRepYGeST2V+/v7aW9vL4M7wZyLgPY6AFtv46bzqkhN7p3VorwTVyH8spRxf7HtpnWyBFsIlTyRrAeXla3wh4vPK3DVQ6t3VkDrWq90jK39wzcpDRQKFAoUCrwHBa5yOfctExLlvWK+2aeTZ+n5/Hk6Icx4tjZKjVXQgNPtOL411/RvBT4rVb4yAqrizyeAhyGAlKlTpgNCLknOMznlWueoBVi01ggRXmd4yQrJ9py/FpAgMKiKT1J5rtwX2Dba3HsV3jyekmiHkNIx15Mg6n7jFUl3jgC022mF+b0NORZYlHL3KPD7n1W5LbBsAjZn5MWYI1OZZoplQjbsJl7ZBiHpTfJj5LliAaQZxHKVbWm3bgpIOThlWkBzeRweHHD9eRoYPeV5upzrhnoFF3UAxps7O4S5b6b+mjMfMI7bUC/6nXqH2kPVi9nnugn60JB57SeTThpMR+no8CKt90/T2sppam03Ux+9IL+Xf6hfSqHAXaFAAbR35Zf8ht9DQOtiEdRWIT2vc+qLC7Iak9HYsbMugr0YT5o9rwuNxGtvAq83kbgSKN4vi4mqmpJIL2xOAuEhPjUrWuqP5n31JCiRcuixlRYV6vW8rta8u28qvlN4aAXz7ksj6SDILaVQoFCgUOBzUqBiZwvj35Ubj+fjtDd5mX6bPEm7s+eLcbOA2BX4YWNEbVV3i0p8pb4LRqsFQDljrk7A7AwAO9ofpeH+SRq9GLHAWkk224Tl9R7DEx+spvm9ldTd4Fq8q4YLR8lGSZi0T+j9ZoDozhrygGPD4XmakLk2jbsZeB+eHKb7Kw/T1vpWljlNE/WUcqcocNkz4rU8Uv3OgtQJ6HGosWMEqCVKfUIf6BJq3MBL2mAGg6kzIXDcktui27rOZhSB7miSjtBF/vk/f08HGNqPmULQgC2BbFYHqDtDJ1jf2kp//vd/S49//Cm1mFPepaHxnn+GI1tcGX4soB3gKR4M9SC304isx0cnGLG7p8xFf5RWe520s2H8/qL8/iXjTFkXCnx1FCiA9qv7ycoDX6WAIFbAFh5at6MI5lwcN7u7u5sBnef1yrrU68Y177e+tPEvr1MfygVpsRA4cSQOZ53ptYPsCILzWJjrLvI8yxsEUCR3indyLUAX2OqVNeTYRVDrWGIzHr+Ld/rqY5b9QoFCgUKB96FAxRKDMV6CWo9MZ8w9OxoS0ou3aniQzhtnzAVLeHFX7yyaP/N2V6Vifv6tuK4qfbUnn53jLZucMxL3dJQmJxWS6Gyh4uhppdrsgvNHF3nanWkeSwj/71UtLG6wZMtLUNvi2i7zh69jEMTrOyab7WB+ns6Yhu1sSEbbwWk2RrbJZlvK3afAdIpnlb42oEueXxAifzZO5yaCAtg6L7KzFrSYosdM2Nltrypi35Q0omB27LFNogOUveskjXr0+BHbgGH25zauUR2kOscAfeosDBrrQar21Bb9tplDhg2c5xaL9tnM6oOdsd3sEfaM4YaxtE3AdmpcEGGQyMQ8TBebYx7DaAeMOSWsQLKVcocoUADtHfoxv9VXEcjWS51R65U03Fbv7AGhPYJb6weYrdett/Fu2wswi4RSSOWCPMrm1cXucpUlGntRMdbLCouNJah1/5pKWYq9flEA2dePVnuCWgHt6upqBrcB8AW0vnvQLtbXtVGOFQoUChQKfCgFKtYXDDBaqUCtivp0ggd07FQjx+l4dJSGANqpgJYkUA0SM+UYTC6L/AKXJkT5I4o5k3S6OB3aFHCRQ46ZQ7ZJWGZ/e5WI4QvuYRgy9wQoNPsjFsOOQQPMB36VXweYFYbMAbTzHoB2FRlDyHJOEoW39mx8wvOepPXztdRjzOJaAbTxw9699ULm6v0EazJ0Z5YuMJ6cnTN+FgPKOeNoJ/S/NiC2jfe0jXe2ybYJHrMHlS7m2NhFM5k+5tTIgHZjnTYBtMx40GX6HcOQZyyNGSO5NcYzTCiHKCPHleUCZaeLymoCLflMy/7LtqDX2RScl7axwrSBRBnMR4ZGJ5JWDdLFEGMPoJmm8OcWUHv3Ouu3/UYF0H7bv/+defs6qKuDVAGcQFZA67bn9FbWAa3X1q95O1GQBgqOqIggyQImJJagtl48/lrhAIKmKpVSZnvLYmOvlWiA41dPvVbPnYXltrIJ5/cS0K4x9iam73EcbcxLa9j1+737725YDhQKFAoUCrw3BYKV5URMaP7jyZBlkKYtwCxAUkdUPSS4ggTyQrymi9DP0OYzCCU80+TxLcBnm5DiTnctraxupNkRQBePLVHN+Me4G0BkukZCHpoi3/zyuX2O4LQetE1TVc3U/gXWPYazMA/uYERW24u9tN3bYvjGalob10I4l62VjTtBAZ2j/PTZE0o3sH+M8dKekkH4kGRLx+fOMU/36K6mNtP0CGSVp/btZV9SH1BZYO3Usvk4FQxT768zJrbXTV10kpWtdcLa+QbO+QaIWBhidFZLaDLlztrqOgnISGBpwie8u8u2OW9xP74nwXKHMbydPjJ/PmJ87kU6Pb/gPU55bmY8GJEYUk8yxpzQfUJ/KrpAJmf585VSoADar/SHK4/9ZgromTXcNsbO6pEU0AngDLWVcUdo7ptbevezWajUJctNl5r1oZpojhoLMeR4m5tKSKqbzteOXxV0nhK866EVxCq4IuxYkFsEWY14ZbNQoFDg81AARuV8nJYZHiPnzRyOCOedoMS3GTNrEiiTOcEWDbas/lpfdOC+iyjBY9XSYABiq0/I5Xo3nzPsMoOMcwa/CiYW4GSGx2qGh408VEsPGhdcW4S0jSZhmm1AComkZv1pGuHpOjg7SAftg7S9sZ121u9Ry6d8D0Z97d3KwdtGgewBtd/409KHZmwQUJAuBkOyGw/xehKGzvkuycHaXcbOYvzIoBD9oir2zQUAtbsuSga9izDjHkmfBLUrG6tpcHyWhicuJHAC/c6w6rTItL22vpEBrR5aZ1CwVYt3qe6Qd/Mfb92g7SZT+Ez4psboFlNSJ88wFp0zZ+4YPUgwbVRW6EDqShb3C6jNpCh/vkIKFED7Ff5o5ZF/T4FgwgI0FzP6OkWP3lnXgrhg1ta1jqDX7WDqv2/1+iMhTK4/e83RkDr5lFcrPLS9WgSy79Ki11QS8XrV6XWrbRZyC5nq+wniez3mxWOx6KWVJtIpStAn9qVR0DUfu+4xF/eIa8q6UKBQoFDgTRTIQwkzD5QTklBnOkinw7N0dHGUzqYnab7CtDkd+J3sLoPeOuORD8p0Asyy6WnAbJMxjN11wAGesrRGHZLjzEwUBWCeweYEtAJk4ohpAX7J8SlTtwkPmM0kF1uu7naJPgSr5LCtLu6wjTHynOc9bh2no7PTNNwaVBcVXlgR8S78XXS5jEvtG/y2HiISOE0whowwigzJpn3BtDhjsmt3CDlvIWMjx9ji8rdQQplNfwJMtvC8rrYxMIOOZ7h8B6eco7FNEkL1SeLkuocx3m+nQb8FjS7bjm63jBJbnjE0mURRLDiVAd5EJhDObMhxJ38MlzrF8pKyUSjwFVPgkmt/xS9RHr1QoE4B55fVI2s2YwGt24JXPZVXx4oK2N4L1C6kx1Jguc+yWFUbflWxxINFheUXFwcWFdy9riyPVxfGfW9a5yZy09WF1jNEybBjvdNmOO6g+E0Rbjn0GO/FeDxcemoV2/mfhgHVTQSfwDZLROVfFCWri+eoWUqhQKFAocB1FMjsqHYiWOCMWM7RbJROSK60f7qfXp0wHc7Zfp4ih9yxau4o4/CghfdIEFq1dYXnZFZXgdI2c8b21nppZXM1A9wZsmA2AiTQnIthxzn7vDBW3sUz5Pa5R8UxZeFu4anKxsbKG9YwnLnNAo4wI/PhyXHaJyvtIUvIl9xe7T3L5h2ggJ1V7LjotP7GgsJzQoNPjgk5PjpLo+EY3aKXZawGmCryQPmpZIxeFbSwIY8tjtsF855jZBl3y43GoOYBxuYRa6fp2dzaIcIKud1lOqCMsJdX1zaq9qt70qYx0obKM47csbxjQ/oBymcXGGKYn3ZwMcjJpsIzW11d/hYKfN0UKB7ar/v3++af/qoSIZg1zNj53V6+fJkBrcAtPJQRZiMj1yPpEiDX7Wgvzl1LYMOF9RyEcFkIu2Xdugz73TlP1g+6v7C21q9bNuZGdUJhZYl1tcffxXMsJOPycHUdIpXL22RHXFvrA2S3yfiMgBsfk9TiFD/xFBo8wMKMsPRKzLwzhHYWx9mVgnrHvupdNWqYxnJF0S1PQjKMvJ8HGdkA+/UHZLeUQoFCgW+LAr//7CuYKBWABJmnTJjT5IKETS8Bs0/2n6Vn+8/TfmMvjddfMVfshLGw65nzyZNtT4Apa9HQVpVqDyaU2Y7jba3nvOCVYxe/KsBgegGoPee6bITTMys3k+8bncOSJ//0HhXjkttVvLP6m2f6ZBxjg8VEUyMS6xzsHzCf51ra7mynk/unjKMcJUZCZqPp4uHK6g5SoIFhfAKAPT6spgDcf3VGVMBW2nnkrAnM/brooXn+neimSzrYO+1j9i8zGXuCXo3sVG/RyHxBVuNjk1gqmwHO9+hzPUCtY2zbJI0iqD5fXvVUr6csmvWYY3S9h322heA3BNpLZhqwGTt7eHiQnj6h5k+NPAxJ47YV1HfUiV6LyLKpUgoFviIKFED7Ff1Y5VHfTAEZcoQaO01PPdRY76zhtnWPrIqSi97bYOjB1F27vK1kHKdAualcey5LncUV9e2bGrk8/poguzxcbV2512Vd72FYUzetb24QLodHljE65yhmw8mU8TlbaYUwpDlgVvBb0QW5qUD035V2q5tVtKvOWUFaXfMuPsS111etlL+FAoUC3yIFnMNzlE6Z9mb/mPGop0TSMBXOpENGYRPm5UXmwSKfhhfPCSv232Vx79Kzmo1rnJ4x92YDvmZpobB3GKM4XYefDzkJL5qRCXnC+MfOPcCEzWU+Z+28k3mevKwCtpUMECBkfpgZHkNaACA5VJq8BMqZ46PjtLm5WQCtZPzai93gStEYMkFPOCe5kh7Og32iv16pYwzTRmeF2lyUxR9rowq8vhK7i14VDSoMFzega1V2YOaM1RBPMijbv8AAP0YeN5yihzDmDuNrm2RBdu5ZL9Xj+juRyoFFq34uVegz92+07L/qOExnRXKo3d3TND/fS030oQ2itdbXL/usOlAphQJfMwUKoP2af73y7BmgSgZBmEVAK5jdZ6JyPbUWsxobbusSpbKI4p9ESLkYkmsbAWQFwDcDWiygemkVABWii2bz2nbebOlUHGkZ/bilUr2qNi9FE8LS92IQjSFN/ZUOoUskh2p0EZxnHB+nbTwYa8xX10K7W+hr+fnbpv/PQvF34nMpPD/uG5TWCgUKBb4FCggQzL56CDg4OjsiCyuKNi4rlffpai+1mVYnZzgWxFLXKJE8jhXOU6nz8ns5nj4xPK64psxGOx+zxrNFvCY8rJl6q4CN+ybAWUnD4yHz1OKxPTlP4+44dR6aQIos7/BxOdwlWJY3y0GDR3uf6n5mXhYkN0kQ5TDEwXCQjgk/fgXAieR7VM4lZNKbZUHULuvbRYFKn8jPxM8/BWCOMIQcYbjYJfJrb3cPUEvo7riVVtbxrjKXctsBtlnwRr/h6ktBfOPr6amdjAxjPs3fhDqM48HVSTo9IgOyEK56oONkryvxtNnEo25if/Xeub7eX6Ih+N4uDl6mF4ND9IDV9OA+kVkYudWPKjXmhsavu2E5VihwCylQAO0t/FHKI70/BQSfhhYbauwUPc49q2CIsaOGHIeCYesBOlVC6gqH2xGC/P5PUV1Rb+9D27jpugiLW0iqXC2EWV12mgRCO7Hj1MakZRwxE/yQUKnRYJSevzhKT3eP89gvPQ3D6bO0d3BOKn+EJyF40qbD5PD9fi/1EairjEtbW+2y7uVEKp4nWi97LExc8Tsx6IF4qOVJDyx3bnq9crxQoFDgjlNggvd0RPij4ZUDvFJzmFULD1RrAoiVTZiBmLk+G0aMqJXrxgpL24KHVODTyirvsBu8skxgi/cVT9oFRkqMdE3m8GkzfUm7z1w+m8zxSZKoaU4SxVV6a8n8Kke6BMgVj/JvxasqfvU7DsfhplOeALTHzG97ChB59fJVWumvZC+tni5lSBhE/6g8yY9T/nw+Cviz505Q9S13RugSp3jjXx6+Ss/3nqfdAwDtEQB0SqA5U0NdcK7RZUodAagXV11nKQernnXlFezWVuT/iGl6TvH0X5DvY0zkQgu9pL+6Vo2bzWNr6dvIco00by3I5/wh0T/phGTzniD3Lxjze5TO91+kweGz9Pi779J3331P+ySLJIJBYJszKL+18VKhUOD2UqAA2tv725Qnew8KCLJMziGgddE7q0KhMqEF0iLArReBp+dUQATDem0j7Mb23rd4zacHsyFkFWwBby/FZcjiCc8y5v2lwRDL8unpmCRZJ1iWj9Luq5dsv+SdnfdxlJ7tnQFce6kLgHVy+KnJKNjfZKqArc21tLO9mh493CJ7aA+PLglWWFYY26MS6jtXd4/nWlAtBHreDVpePuf70rbULxQoFPh6KBD88zp+KB+WVxtiOYQHORfsaofsxBPUEVj0lKlQmoQINzbxhPLKM8Img9NJgQqGym9crAFfIXPxHMA6OQEcnDCUAi9sG0W9v46Bsr2Cp7abhj3G7jbJSDymNcBszYVVtZE5GZt5TwYWSz6U/+gn1pOcAS3POp4SNs3wjZedl2mLTLTKHY2nluvePZ8of24/BUKQ0sXsy0YTHJ8qO/eQl8/TSzzyh0dMBTgFDDLW+xSdQ8NJj3HVjTa/v2HH9kn7weJt69vVIc7k/ySC4ps4wwhv/zHJ1MbWapUIqsN8schkixEI2b4TDeaj1/3xe6iSOTp2do68FigfHeyng90X6WT3Sfr1h1/T4x9+YLgRYccbG3laoD7zLP/OeHNd8+VYocAtpUABtLf0hymP9e4UEIiqIJnV2GXIGFGVCb2zntvb28vnHesUIcae1zu7s7NDsiQmN2db8OtaUOv591VI3rf+u79hvWZW8eoHEF7sLoScmxMss2cDLMoojCdYjp0E/uSEfUDt+SnW2gnJTbrbqdsitAnA20UAG0bHnzTF42pCiwnzWJyO2yiIo3QO6D0dXqT9kyMEdjP1Udg211fx2iLMSZLShl6Vclh/LJ+klEKBQoFCAShQ41F6u05OyQ7LtCcwmrTWW0vr040022fe8GMMi22AZx9j3BZsDQ2lUrJv0uIXBjVAh4a48ZCIE9oY71+kCWHFk9MB1wMwpu00hgfO5qPUWJ2n9ibjE5mz1jEVYZKrQozlZXGvCG8WWDvelvnLJ1xHUqnWDFnBw7WbeH95tyEetkhE6FjaKpu8Rr9a+GnpCF8RBewDzRxKPKW/Okb6BWHGu7uA2VcviAJ7SYgw/anB2NQRkQZM4zQab6TObC3ngzKywBauSsH4DPS0IjpzhTlIVT1FMDskgioM6xpGHPajXlEZy99EvriTkQ32Wxe3QcHMWTUbDwDl58j/U/rpafrt6dO09be/AppX0ur6WvoRHWCFuXRLKRT4milQAO3X/OuVZ8+M3vlUzwBuAWj1SgpMXTxutuM4J9h1UdEwSdR3hN48ePAg3bt3LwPbALLvA07f5I34uD9RKFpKwqrEEcWZBlzXIyyyp+dDwqJO0ou9ypJ8ijI3JTwKOIq+RtZEQDyqWNbdAsQvdjlGqwjFEcuQ9P6H0pZwpf7eLO2grN3bXNdPgbejldZWDFWqnqL6eylYbe+yXD7z5bGyVShQKHBXKaA3Exh4+XoL1uD0IacnAADCdR37utpbTxuzTca3AmiPCEFuESmDZ3X2HZCiD1dxfMM1pWrOv9WWkSMTI23O8HIdckyw0Rvj2SLFscyRhSjk1GaO2tYOYHMVoFrTgKokUBWg9Y4BdH0HzHYY/wC0GPkahEa3Z234Zzt1mxwT+BBGrcFUWaPs0JgaBtJrHr0c+iooQB/Ekz/EOHyI/HuBd3MP7+w+gPbkhOmaLky0aLjwOXUucqgwIjOXHBkcAvmad1XEOp2e4fZGBo8Z9z00GRS6jLMMmO9CQNt00Pai2PT1X0L9uL22imho4KVtzic4i51/dshUPQBaDP/qRM+ePcszG2zubKcd9Z+d+2lnaztutVxXQPqmuy6rlY1CgVtBgRo7vxXPUx6iUOBGCgRwtEIATsGrlvHwwkaYcYxj0iPreFrno93d3c2Wc72yAVxl7haVj1BABHjRfj75lj/vU/ctTb3xdJaV/CE/RRZs2TGqNESAIbocEsY8cwjf04v0dO+QcbGm/x+liyFTTQBkm20mf2fydoFo2ykrCBlWYDp1Rcaw3p02FIkmwSC2GGWQcbPzHl5fxuAw7m2Gx3Y8OcaTiwdFDbG5DaAlgcUC1FZP5jO5hCDUC+Je7LNTSqFAocCdpYDfu6XOBfRAnTHv9SE5DgYYFWU6fcOB8QwNmmSL7e+k3sV6GrVPs7LfahJuCctwarEKXF62GbxFP5QpXYnuTI0VgOQ9wzwBmZ0h42jhUEQYO3esheZSizwAbZJEdR8QpaJDqkpz7EbmT5fPKyjgGkBrA4+s7cyP4JnHbJ8Aes/wsM0JMe0R1sw4XcGH7/fixYtl3oac1Adg+7nkA49bykeigMDUvnBMP311gH7xikzchOyO8cS2mNC4i7GkQyRTauHxb5BobDrMQ3Hw/XMdfXBGH6nm0Ln2idRTJiRirArfAcN9tgCXhhur52xubqVVjM6tzvuo6HpkNcvQLqHGswlDinjeMckfR3hnhyzqQ8r9M7Ip63H+7denJId6mLY3+fYw8G+sOU99NnXnRyt999qfrxy8pRR4n6/llr5CeaxviQIKAovgU8bvvpZxPbBaHz0mmA2mHOHIgl6zH28wXkRvrPUct+JxPbaOpXVZXV3N57zHbWTmikCn18lFzFkdAMySFAtEe3AySC/2z9JTEj+9IqxvMCU5ib5YPAkdwGzqbSDQ8C0gKLMXGzpGsak8By00db49Q/jmczy6c7zagxYLQng2IrMjVmSnA2AsWVboSCjRpB1B8uvFFg1+slw9lw+WP4UChQJ3lgJ6O/n6/Y+BTC+WhsVT+NJwxDh9xrjKP9b6G2kIMNjsbTM2fytNW8fwXvi4Ib4azVDRNdpZKl4ivJWf1BY0GQEqMJU/glWMePt4vF6RedZqHG6vw/e2AZ/3Oqm7YwIf27NFw0OFAYBX7hMeLs82ACZNhmhMzqh3gsw5xQB4jvHzAg+aifMSuQcY/xuAVllkuLFyRoCQw0bf00DKA5XyBSmgbqA9d4pMPTwbpGfknthlip6Dw32A4SmGjBGh5hPkKQ9JeHwTcDtjLPWMi5TNglmTJVZ9teqzV6VfTiiG57Rp6DGy0+9gc3M7hxvbYTe3NknCiAEa8Pnuxa+Cu/qpZK8sXmO+ucnwHPDMWu+vsh0D9DnDkWZ7L9Nvvz3FO3sv3b93n2FE6ww/ugyTj3wi737/UrNQ4MtS4H2+li/7pOXu3zwFBJjBZBU6JnISxJrVWEVCZi1IE8xazzpZOAHOLJ5T2TDEWEtl9hjgoRXQum1bJvaw3EYwG0JRDMqrVnILETbFPXFEiPEBc+Lt7jOtgJ5ZMn2OUbfaZN5stvHOor01DY9roMUh0GY0MkGYKvtU5qJkrCwwhX7NeZbY+Zq5UwdA19nwiLlrT9I+CTHmZE9e7aymHnF8rbUV7NLUt6k8bYDtxhNH62VdKFAo8E1QwE9fjZ5FXjtjjKD8OmefZ7/L9Dw5IQ0ZYgWE50SAbPS2mNMTL9X8ODVNWHcC/+7QwFrFnwSaNilniUV/VOYzeMuYiSwPf2iolGtka+Ph7Tqtj6CW8NA1xiSuMRXKpmBWHlfJBVusALJbda7FNuHF6QIgjEGvOQC+jjF8zlZ4pLW0xvyjfZ69z30ErhpPXXxPp41TBilHBLdhYPUOpdw+Cqgn1MsFOsHx2TDtvTzMw3b2Xu2nw4PDDBBJPZbB7ApTSzX7ToVH/g26qMZgp8ebmsRM3YMGs3zlT5aEVTeubsPJfMt8IuX+s8kc8fbDBiEF5vUw07FzH+fCarFV7V/z1wzhVR3ujTFar6we2tlkkJ9vBQPSBckczwHbUzy46jxGrf3jH7+kzY1Nhg+t5bWGfUH2bdSBrnntcqhQYEmBAmiXpCgbXwMFZLKhOKgc6XXVyypzVqlwCeXBegFoXXutoFbLueNuVTgEwXpqVUJcRz3Pudy2EvLNR9OKPMZFO2LOxQPmWHzx8jg9Z9zs/gnJJfDMJpStTn8TpQ5gC5gF0iN0FVSVAjdjo1IIOVV/VessHLcmr3AMWatFKBLW4tGccWkISEOWGPSWNldPc8jdCnRtIyihmliYEhK43rDHSykUKBS46xRQsc4KPeDVpDpjkiYN4NFmW23Df1cwgK0T3ri5vgkjw0M17KUdQo7v9x+lUZMxsNOjNMcrOl2BTy/H0Vat2m5VBJ8ec9HzxJku3MpEdRjfNPy1u8JgQ5anhBsDPMjk2lrlinzcZ6xas4WrJUNl5hltDmjrHF46MHkVCZ+aLGSzXWUIR7+lh7aSOTniBT6oLNETHUNYlDeeKwDhKoVvx/5VMKtOcHExZDw0w3Z2Gaq0B5g9PCYvBeHGeGebhKl36Udz+libEPYVQG0HI7B2YBM82Z4RCcpXQ9ktAts3ScIOQHOVaXoEsS08/03XCtJ8ET1RC/ai2Gft99F3PbzsvzkJFN+cxhXGzc5I6GjUQQ938gbJn86OMGhzxLnpJ3yXh/sH6bfOE4CsMxpsph++/z6D6QJqF8Quq6+KAgXQflU/V3lYKRBJoBw3q4VR76xCRAVCQBtAVAVC4aSHwGsEvfXxtnpk3beOxeu8xiW284lb9kfhpRrmck5Wz0OyF7/YP01P9khKwnQV5LBIKxsAUCyuTbwI2dLLOC/DoRo6K7KgZTsLy/B61F5SwUy9LDAZK1t5OFQCCdWbbWQRPRucYFhA6L86JbNjI60zB1+ruY6xwKl8DKOyPW+wFLW1G5TNQoFCgbtKgQwQ4DF6iUwANTQZDZEwF4Q/yrN6/X7aJgHNxhpTk6x00hDg2iIa5P7qw/TT1p/hT/N02NzDwHhMuCT8G4DY6HMlPKVS4uXXMpiKC+Ywy3xGXmUYJ+ARwNoisVQjZzGGB3lMN1qbY3ncLJmUX+NNl4DBdqtzyAOSQLXPe6lzRlb34VZ62H+cQXhnDSDT6GeZY9ioi4ZUZYmGVI2t8lllkt42Qe1Vr1cdSFU8+a72iNv9Xv5moT+oK2jYPjlh3Cy6xcuXexn0ndOH9cAKMlvMNbvC+GlGUKcWEVBmCnYMbJsZADLMBFRO6PvZsrsQf7+TgnbJbCyuzqhvCGo1xDgfvL3R3h3RU3PBbT4aJzhrhSiLG/h9CFSnDgvCC2vCRp9PwDra3k5HL3fpo7yHFmvODYejdACoffLrr7nO9wBa++qjR494JyO7KsN+6Z9B6LK+zRQogPY2/zrf8LOFsL/KSD0uOBWIGtblokBSmXAJIBrXS0K3FVQuJoHSeq4V3cW2VDSs42JbLlGu3j+Of5F1CDCEl95ZHLPp5Hyc9g7PCTM+Ty+PL9KA7JtzQuCaXaYiYmmQLTEvFXrlsSvh7W4efxsvUntnyHCJQwmhmhvOh3LWMIkUXt8mAHaqB3h2mum53zhN95g3r9/FmwGoxabAuWocUcbOi3vUm43blnWhQKHA3aFA5h2+Dh+7fHQIfz07w3DItCfD4WAZISPI6zNu0KgP/LfA00baYSqx71Z/gLcQ0gn4PIKHnGGwG+AZU51vkvTJDZX2ALGXWr3cpVrmGOG4O6AWb2y+sAqfrK6izjIRFNWWxWu9Tihb/WsSbty8oI0zDHnHeJQHW+nRyuM8bMUpgTpGsvAvF1Z6YZUhAtowujocxpwNerwECMqaUm4nBeyvgtk8jOngKAPaQ+abPSHDsSCxAbhrtP39MHJ0NHoTEQb4Wwcwbm+tI3OZ5o7xqk0Eq0aTJtECJmBa9JDfvTR4cilnBZiO8OlkD62yFV3ELhndy206fxzKuxwx/iBAbx5vzthZQ4xdOhiGOoDv3nw1TTFwD06Z3QDQnGU5gtloqgnZlc04vkuCqI2NJ+nvf//7ax5aHQSlFAp8LRQogPZr+aXKc2ZAqtARiApMtYLrnXWMksmcVCiiBEAN5h3AVIGlpzbCkVUwXGw3FBHX7keJa6+u4/xnXyPNxhiAzwdzxrKOmOj9OL1kTOsZSZtWth+k/tpWtv7OkJCOa1V0qXg5rYXZGHPJHli2UMD8l5XBLCX1ciBHEbBZ+dKKjPDLNSBJk/GyTbTELuF7ej2GjNs9I5Py4eEpCV0Q8FisndM265H5RtWfSgm9SbTXKpbNQoFCga+cAhi80MbHTGVjmLF8+ujoMAOCFXIYrPYZdw+vMDQ4jzuEu8ih1tvr6V77Pj7WYQ7rdPzglFDlc4aVMPtI5mHz7KmFeeUiRA0+nZlXruMpw4wNQXbsv1ncVd6tWfG6fDF/Kn50yZVsgycBSDfGcMwRV53BB48ZpnJCBtjpenoIf12drabDzkGajTTsmTgPUMGzBlgVBASwFRz5/sonj0edeIKy/vIU0AiuvPc3M5+GBu+Xr/bSyz3mmz08IcIAgwpGkh7jvu2IJktUINpnu+gcmyRv+uHhfeZrb6YXh0zbRPLFFkN9euSqaGEAtlz2sep9K0OIf/nHyYYhy7ToTvRkky7GtTm3BbtX28mdWmFLqQAtw6bGgOrpIK0AutudHhm/1xkdtJKOlM8Y/XMftGne1/ce4c09OT5Jz589T3/7299yX9UIY3+NUPnSbzOJy59bToFLBHDLH7Q83t2mQKUYoKDUFIOrb2ydCBPWMxvzycpsg/EqlCyxtj3PaR03IdT9+/fTDz/8sASwAmKt6eG9tf2wptuO11+3rh/LFT7HHx+F1/MNR2QJPT6fpoPTYdo/NvMwUo3BYW2SNHVYZo6lQUBW/xCa0MV56ZxkPZJgjQk3GjHGhthACZbXVegT48IQ0qur63h5DZUzBErls7q3sxEYype6KI0I7CG/yx6AtoOFem2LkGSF5kLy5kiphYj+vTT+HEQr9ygUKBT4VBQIPnvZviBPMItnlXGIZ/DTC+ayHmFIXCHEWM/sCuMOzYqeeas8JfMlcgwTXbLOv9T/nmiPXlpjTCGMGkDI8AaSRuE/A0+AbFfgRoYOw1wqQ5l3F9wGXJVDOm4WPgWb0otVnVXpt06A4IpJWa/ibKw8xbjZdME5wGz7tJdWh2vpfrqXvu89xoP8iGzuTNGzMmScL2Gd8M75wvipHJJ/hkE0DKTKKs8ZQSSwjXretZQvTwFBnYvGbj3qztG6++I5YHY/92GsKvyuGF3sTBh07fPznKHYaafaaWt9JT3c2Uing0k6J1T5YtpIY1JMkIaMHBeAXsZYK0NVJSqzStXbsmpBkxkak7RMQ3H2tuaOq7y+pI3bVT9eHHM/e3EJH1Yw288ZAtQYnWGMOSEcepi21zEc8XzzYSMNTsjEjXfZ766pN9hvguuqKfsa+ft0Oq1//vNf6Ekb6fHjxxnQGn5cIgsuf4eydbspUADt7f59vpmnE1AqULQKqhRcVwRiEWrsND0qRIJUFQWLgsZjoWS5bVsCWutZ/uM//iP97//9v3Md21N4ORbX9hRm1lPpMttxVrjyVbfnjzLOZYD345gpBY7OGO+Dp3beJOR3xWkuzLbpUDHCg0GVGdAirBXIM4RwA+vy2dF+Dqc6JpQqj/XKCqVgd5bpv874tu37j1PrkWNhqzDjShUMBdBRtXglCLlqraynGXPf7jEOx/vdf/goj8Fpo3C2DTvmYRXc+SdVEaiR8jbSt/Z4ZbNQoFDgLRQIz1ZVTW+T3zxeH8KLL4iiOSfceIgHyNDLPtEbmyjLKsmOk7X413GvM5LNGXbSn1ZzYd7fZCqRzQdpdpzS/gVZ7McvUbqPslfUhDttwo/Nc+dQwAqFurZctlv5utynff5VPMw6VZGbVbVdV0+SE7SPiGo54V2OmJrnjGeebKafej+kf1v7c/p+6/s0Zczv/uoJ4xRPSb4jJ5THXXpolTeCWY8p15QvrjWUesz3DwNsyLqQWYtHy/Viu6w/HQWke/ZSYtQ2ckvjw7/+9S/0gl1CcZlvHdCn7bapbsEP3aLTKVXnE+evnwNouyRG7KdHm6vkkRgzvVM37R6P0+7pIfktMKognzeRp2tr9Cd7mf2Ehf8Uj1Uy1e8mhyDHfj5rnaqPCkCzRTm3wcEMZjmH7J4CVP0MZiRpTKNjpsY9TKt8G4837/PNMd3eWSMd7xveL5j13jyJnZbSNgFVBtLYcDA+PX36jH66msfQanzZZtytfTV0rOqq8rdQ4HZSoADa2/m7fHNPpWDXci2zvVoC7Aq+FDh6VQWjWg5VDkIp8LqrioH7Xm/9CFM2M7LHDF1223bdD0VD5u1yta2rz/Ul9lW7wJ28zwQATpjxBV5WdMFOn0ybfbMkaglWOCJ2WTdyrBJ0wWvCC2ULcaYw2zkT4wSvR56EnXYIrTKBlOhzhek0cigd9/M3yYJX16zWYKfnMbsUv1eLkKbZGI8FyugpUwedMB5npc/8jCSjmrcB0j5LzT5x3e/7JehY7lkoUCjwxykg75V31r9r9/XKGu2ikdI66wwL0VjYNXmOnqJ868zNUNHVrjGQseowTGKtsZY2Whtpm2l8RmQ5Pu4fpRezbtonCoWgEpJEWZ9r5WldtjGewWhyi5fSo9qqgKrbXhOMyP1qEZyQjjbztezxOsOAd4IRFCC7gmcWWI1n9rv0p/5P6U/rP6UHq/fSMe43PW4gAZrxHaLdileGLAv5oexRxmgwDSDLRXlbMBXyq05Dz5fy6Skg/eu6gIZtdYwzdIwxWYL9bdrkobAfKS+zpx856L82v78gsQ8gBDemHlNCpYebRC8x5VQijBe5fMG87TOmzpkwprZNvSboWENwBpaL18sRCnQj214W5Kw9K/fzxcFsBOJ5XTfs78htw59nI3UckqExpV57eMxUevO0vdpL25t4ZclufEoUlmPSq3nlq1ZpxM5KOzwTMtpvcMJ363j3l3sv0y+/MJUPWY93dnbyt60xppRCgdtOgQJob/sv9I08n4K+DmgVMhYFituCUcHny5cvM6BVEKkAvMly6LXWU6EQBCustL56H8OMPa6S4bbWSJl2FRK3ktuNZ7gtP4GiSLVMPW4wJDzqGA/IOQlIJvhlEZLdHkKnSbgvAphXr9QsL6DMBKCILQVxFsIYA0Z4TKYA2hmCe4Sl9xzl0/0RQF/Pg2C4ysTopSp+qoH+QwAqDxWGjtHhnhOUwnOe6RBAu4bFemu1ytbYwmsLds73LgqbdCilUOBuUCAAm/zU4vctzzQSZEBG43PnwUTRdrzszvZWnnfWMXw523CQQEBI9IiL6nwbPtOdMkdtgyEPXfjZCuMaty5Sj3lgG2TBOyb6xNwB8/kQL5khv/I5rl2EIMuh5HOXcEDmY9txnDW8qjL0afDj2QkRnTNmdj6m7gFTmx00U4/xsjvTB+lx6/v0Q++n9PPWXwC0P6b+6hZJqmgygwDaAdQILoIWnMl0kBbB76SJxlNljfIqxtIq86JE3dgv689DAX+30BEcOyuYNQrsgh/ZLMHmjLB7T5hzPesD9BfHfft7tZF/ylKGquIhnaBDoD/0t+nEwzRtMver8ygzLMjp7cYkb2xhfDeCioh1rtcoTOgv+omG49yL7aqLUh1zx3tVfUpB2mAMb5PIJ+Wq29PJRZbZ49EF00sRJTU7T2sbrXSfJI3bTI1l3xydV4mpcjTBQq/iato2xPmymP14yjd1yHj3X375F9P8bJLQbCfrRg8fPrysWLYKBW4pBS456i19wPJY3w4FFBIhYHxrAanHYmyLgkarv3VUCiI8WYF0U9HrqpXRcCIBrMqX4Ng2DQvzvEmlDK0xEYLbKhq2GYD2OmXDZ/sSRS+CltYMyAfDHF6sOBV4CmQdvKoAfK3wqKacYLRNmuNZ6BEmvL2DaAUAr5H90AnYz/EgzGjXdh48+j5t3X+QMzj67o6JyyF7gtrXSqW06dXV89JEOT0nI+lg4BheQrz5nSw+Tk1W52PlT6FAocDdooB8ORL2uZaH6o3twRvWCDVW4XdaEov8oM6mKi9tPpWNcT142XpjJf3INDmtnWnauGinVUDtb5Ne2rtokjPgNA3bIMup42rh/zRrllgQcdVwAOXlnRYGOXjYfMoCKGjOwS3ehgAAQABJREFU4JszQi7H5AkY0sCQiJNTDHGEjT5oPE4/tr9Pf1n/Of3M8nD9B5JZbeOUNTGQhlL4oi8BPxYIWHzfMMoqH5Qj0iTkiYDW84Ja+aryy/V18iU3WP58Ugr426gDqFcYFv706dNsMLfves7fKs8FW3uKMJQICN3WM+o46jZ1nbrHax43AZJ9dIv9ceqT38Kw+xGAc0Jfa0z4zUkq1ib3RIO6Jl+MkqMFFjtVEij7Ve5kOXpBi3KD0HzH4Tb0Fg8ZV651hbwYLZbsme2tpe8fMgb23nb+3hy7LjhWb1Av8Llzk3FT9/MxdS90Hvqw+tHz58/w0GLUubeVIyvUjcLov7y0bBQK3DIKFEB7y36Qb/1xVApCmISgF4gqdCKBk8qCzFVFIRQCr7uuGJYsMxbAWkclwm0Xi2E1gtkHDx7kcbORAEFBV28z7uP6S4FZn1eh47P5/AMygE6YWkJA6zgYw5j0HGQZhRxUFCp2c/EcocJi0u7aBuHJgNl1woyh7cXZMWF9B1k4G7L86Ief0va9h8xjq8e3hZCjDRXEWsli0HsheRXifTKXNueOm2PqIObsUzBe/4vUGimbhQKFAneGAhoAY67vIcq2vErekCNf1qu5WOWf1qvzVrepSlHpFkiAT+Etq3PGJ/Yepse9jQrQnjPP+CH6O/NuH+rhgueNZ3jDHDbBvLNMiJ3XDYY6oPWzoPjr/c0KOyDWTbyxiWy0xIACbOGbAIz2aB1AC9gmE2yXbMarZ730Xe/H9Ofun9J/rP9n+svDf0v3ug8JK13Lxj2eMk1oS76orMqJoXLjtE/xHZVNvqfnNZrKrwW0FmWQx5Q9pXxeCvh7+PtE8TdSt3A+ewGtUVzqG/6cbfNH/M5w7bV2JP5SaYJBZUZ0U4tQYrMgZ/2BxMaM2GFaKiILOufpGcaXg/NTIgDodgzPabExFYQSgbCcUi97bHOz+Y/iNkdBeS8/DheuaXJtgyRVc7Zng7O8eK5LP9/aYP7YnfX0/XeP00OAqB5kk7PNBL88ax7+w7tfvkHcb0EP6jh39MU5xn+M5f2FsV+HgIk09dKW0OOgWVnfRgoUQHsbf5Vv+JkUIKHsCNxCQXIMkoLGcypJKgzWVSC9qShgBKtaxQ0ntsR1CjaTP7l4TiXDIvN3uY3F5xozXlXaKHzmC6+pMtoMhrOFsNYiaxFzBsitjugxQJFzrC3/9MrqaTAYeW1zi0zFZDiGZp6HUFiRNRoYGiV4tUW95iiKikX2vZ1eXdt0qgstwk7WPsTK3WWi+R5jeCx1JSIfKH8KBQoFvmoK+E0Hn5Qf6dkSHOjhsch7XTQ+BjCI+je9uGzX0Ej5lwGRLfhbY95JD9uEPK4BdhnesLaykXbHz9PuaDcdzsyBcEySvAuSEzPANo+p5VrYlxjBOWcdZpH5Fp7cPN5wAOsaciPu0cVb25v30sp0M61OMWy27qVHyIt/Y7zsz2t/Sg+2HqWtDlOYNJANeGVlq/JD5/N0AVdkvhvvI03qi7LK4nsbVeNilJHGWWmj3JE+pXw+CkQf1Mjgb2GYsR5aDQ7qG/ZV+6EeWI0VDUPU7Yv8lq1s4LXrGMFVAUUrZy+9XYoO0iHMdx1H/v1NvP8ma2Qqqp31HvkuGFc+4PcfENJ8cQJgVcYiX2kzzwzQMsqJ/m4Iu+SgrTlhxTNA85TEanOALANyeZ5R9tR2icZaZYq8NbKGr6/1087GKvdcY8jPCvfF8J6N3PZXG/MZ6f++2LXFfkuUF3qVANi6x/TRJ0+eEOG2nY0vvr+zRJRSKHBbKVAA7W39Zb7R51IZkHEqdBQ4Cn4FjUqSyoBFgSOgtY6A1n2vu64IUgWzKg9axK2fGfsCGBtiXM+U7D3rbb2p7evu96mPKUSnKI+GOtUFaha5CDEtu1np8kEWskvKzDOyVUACPBGEOUkEbQh2HR80od0VPLd9psroEIpsOFQTjVAhp8DNTeUYu8s3zHTihGtDruaM5dUi7O80ZplO+tDa3+vymrJVKFAocLcoID/1mxfQChDk1fJUeW7MES4ftZ4lAMW1VNARhfvTxOsNwCyqPut22mntpDXm0+xicNvc2ExPzu6njdN76dnp07Q32EuH50fUYzxhh+zCJMXJgJa1oBYOltuaOXk3CaVmFwCRAW0TAtqZMY1QczNtNR9wj0fpz4yT/Xnrp/SXbZJAbTJ9UJv5Y5uXYFammg14gAWNeEaitOC7Ft/RIj90CTDrtnLHtfJF46xyKWRTAbSZbJ/1j79HGGDMy6FnVmOM/ThCwgWn9lWX/HtiyPA3zv0XuZdDeT2/eHLX7CILCRbQjrHO/MU9ACcZo7bW+8xve5Re7R+lMUmihkxpNQIoK5eVr06P126b4NJcIvSnbDyhbSwmU4Cs8zHPmUN+xtQ8enhb5MRYAcBuYty5t8O0UttEmm2QTI2psVYwIgu8BcY5+dSiX2q89pmvL4s+y3UWhzVdkCTyBdMXbW46XKDKfPzzzz9nGkTfvr6tcrRQ4MtQoADaL0P3ctc3UECBoTdWwa/lVAuq+xaFTT3UOJSIaE7BE8Vt25L5uqhAqFRlgUQlz3vMc3Gd29Gmx+LaOO45j0f9uNfnXGtlVdguBS439530aiB6rzxKZe3NwpZzThugSJsgsAaEBerdODo+zGFG9w0pIlaqYygUY21zXSqjjlUe2lrLlfD2LyXrcXoveCZAss9SZU+8+ixV9fK3UKBQ4G5QQGCgd1YQq+FRkCCvDM+s6wAIvnGd916lQPaEZY8sagmGN2JJ4DxGncBXYCWOMdxuPuIIGYhXNtP91uP0ffuHtN/dZ8FTOz5PgwbKPzlmDemc4A2bzDGCYrfLTA+DXJN29bb28GL1GKO72tjA8cs0ZYQUP+g9Svf799KDtXtpp7dNPSJV9KL5DLC6DAZknoICEl/NDTcVbMyqyB5lS112+K7SwrU0MFxTWgmcrBd0EvwrT+Laq3SJ/S8pc+IZvua1v4O/kYv91DBjk0TqhRTQ+tsEjavf41J+IfHtgBnoZeMEYDGDRg7a7nKBQAupmEEtkjQ11uhzbfpal2zfJGraJGHTCeNqL+ifY43JPI/h67Op42FpgEVjNdAZcKzXlDYIaW42+yT0JlyddlZ6jDGnD68DYDcJ518H3K6YVwQkre16nuefendLMt2Poq5QGWw6OAzcF+Crg6lz/fTTT3mJiLbQw7yylEKB20CBAmhvw69QnmFJAQVDKEhmHVTQqCiFsqDQD8EfwseLve66EnVUHmTANxWFVBTvZXF9td1oL+p+qbVviwhc3j7vq2gpzRBE1xWD77xKxWyKC0QjwTmK6Okp3u88VyQCMU/941zAhkIpGVUCbM0wY6+HJgo9lmXh/FKgW5nb67HVE1xKoUChwN2lgLw6jI9G08gzBW8CWQFceCGlQPDVm6kRvMu1njDBLBEkme8QvgnAJX4k9fGornXxTBHK+Sh9l45bR+mwdZxOR2fpbDZIIzxZjq29YH8wIlvtGBADcGgbKkxSpw2mA9roEWLcXsc7iyd5vpY2CSveWXkA6CC7MpnbVztMgwaA0EsMOsiPXA3vgL+JbgW0gGaHfWSAe81LhaxwLU0shrS6aKxVHhk1JP0iweE1zZRDH4kC9j8XQZoGmBcvXuRxswI2jQz+TqFbeMv4/eq312hsGwJcPaDKussiuK26A13N/IwA2UoW9gGafQCnMwCsr3WrSAb6wcDhOcy7N8BjO2A+d9tWF5nmWQkaTH+nJ5++SP/pAGptb4UpeTYAxisY4/ucW11h+kLa1rPrIwmEeYrLx3qnLV+kusZwZUOhfTkjCpxdwvU///nP9Je//CWPp1Wf8vt+k071TrctlQoFPiIFbtbwP+JNSlOFAm+jgIBIZu5aga/19NmzZ9k7qwCScYawibrRpte9qVj/Q4r3ddGa6zoLGoXNYvF5rhN6H3Kvd71GIWrmRQVKE6l54/0XSljGvFUUUca6ekGcKmCKQjZBSI0JYZpmTwNwFxp3EIwKzyZxUyEWL0WdT2kA32IMrWZdKklf21K5a3Fdh5Ans5lqwcbAfEXov+ublnqFAoUCt5UCwYPli4IzQ43dvuqZrfNIt4PHe/2NvGvx0hX/0XQGeIDXaFCD67HWR7sGQCXzMSHBO92d9LAFUJyQlA4wOwTMjvCcDoZ4wQjvnI6d3mSewcEK0ScbgGHDl9f7W6lHRtoO0wT1WgDZNvN4E5nSBhiYEKglf+N+y+LuNWUuT32DjPG9gw4CA2WZhoAYTqOHNkKzo3nrW95Go6hf1u9GAX8nwayGckONjf5S37BfKlNzP8u/u+3ZA2/40fOZ6lwGt9FPFtd6Jl/NH39Jp0ruOWTWf4Swb6ww1R1TQ5lv4hww6+wA5+cddA36Lt9RA0+s/WQFsNongaOgta1cpbFeF3DM9U6B1aVO7qv02VY2ZiuPL43z3PrDC4bvCd9N0MekWX/7298yjfzO3+Yk+PAblysLBT6MAgXQfhjdylWfgAIKm7D4K3AEtSpLlnpiEZWCOoitb1u3rlzUt6+ec/9NRcHivbSgu/bZ6grZm679VOccE2PypywwEVyC6/z+WI4d26Xy91qp62OAXBUlhdSM98lAlgQsEIzjjqvFiy0QzYmgVCSph0AOwWy79dbdVphXCTLwWKA4Npo+jxd5Va5QrcvfQoFCgTtDAfmOPFFjn8DMtcf0yArOVHhVyFV637/Ad167SCYmjK3ALakA2QKI8m8FQDttTNI24wqHeExHDHmYsD3GYDfqk62VsYdTPLRzwo17jFPsM13KCku/Q4gmALYDcDAMGVgAWKi8qDReed9qvJOEyZmlydXm8Moc7YL3top6ee1hf7cToFRaRIZjZYk00zOop0u+rCHROgFmf9dQOfCHKGD/VJYLYp8/f54BrdFf9mNLgFl1hiWmrc7kv9f9yb/tsjLGliwsq5pu24Xsy8pKciQythuDL2uPNTH4Dv2GSBY1YN724aBHGDKeWkBuG+TaQQ475ZXfVI8+onzWzqEntkPYsQZj9QHHcBtJELJ5lo3ZC/nLfT60KMY1XksfdQwBrUnM7K/xjfts9tfo4x96r3JdocDHoEABtB+DiqWNP0yBAIoKHYGkSpKhLgp9hXwoRipJljpQrW+/z7nc0Bv+BIj1eXy+eEYv+VIMXKGlsLMYqjQckT2TaSicOqCJoDPqOGPJkG7Ui03XWfbiSXUC9TmCqoHip0CslC3mqM1KKO1QOQs0p72wzWUr3vlK4YZ6faXXiGyjTtszHA/SyoxUj0wkX0qhQKHA3aKAgEyvbHhn5Y0CMhVew2gDnL0PnxTGzkEBeclmtEuaBVCoeJnBx9YjU7t4GY8XHC31OZbH8WcGWPGkPO41MzONecgRjH45qyxrW8nhlXhY5ajmCqgYJHvyvQAqC2yQcUIGs6j5eId5Y64SmrwZtFcAqeKx0kVQK11CztFAPiZQ8Jx1pGcBtlLm4xR/A8GseoUhxjFFj95azyn/cl/NHWzxg+dbVz0un8uH3a+OvbbiUO6jVx5XeWzJV9GtdKLOc2RVtd0htLdP1MCcKXfmeGxHGJvHGJnz2Fn6mjLdSCwzFlffUgW27bd2T3tufprLP4s5a6v7/tG/0ib0Ho0AfveOoXUqH9c6Gj7kW/+jz1WuLxS4jgIF0F5HlXLss1NA4R3M05vLJFWOwsov44xxRvV68aAeu6nEOQVCbN9Ut37ce8vAtUJ6rVZJlQ6f7UtZJbXoHh+fYGUmM+PebjphXrsRiU12HtxHsEmDLNnqr5GPZvJwSsVNxDtnTJnF9+g6RQ/W4Dbhdtn7u2hCAW1uCa+t5KV/F3TOK/0TZJqGRkPCts6OD9Lw/CDdY7qCi/MfctKKfJPyp1CgUOBOUUAwFmDWbQGBfFLPbPDLMEK+94vLpBY8yGvdrA7VDgJG5XfyZXR7zocqo4p/WRoZhRpHcqXRyyoLPCpDM3uUBaYn8oiSH4DzBrPkY965ioZx8EV1LCq/vg5ZVYGRit9KH48rW6SdXkKNAMo7w4+l2xJgvd5c2fsACmgkn7EMmF9Vj/hLor+eM372iG3pX/UhesgCJNrhkJCV3EMILnsdfc26OfN/VYm/y7P5yV7fu3xYj9tPXGuEcQ1WTVP+EOCee6dhyWMqYcvgWahjpWvL73tc7q0czgbta69520HbvNputW9fdZF2Gq1//fXX9OjRo7S9vZ2/d4Ft/Vu3bvT3t921nC8U+JgUCCnwMdssbRUKvDcFZIAyRQGWy7179zJTVOhbAkR6TouhQqpeZKJRgpnG+urx2H/b2vt4f+/psz1+/Dg/l0rb1bbf1taHnr8qHPR+vnjxLP325Nf067/+kYYNMmR2ycz56HHOMJznqYCWOZeJN1UohmAMEzKu1zy/HkpbiyQp3R7vw9oxtFYOUsal+XL/KGSVtgo+28oVnfLHJBuH6dXL3XR08CxtrbWZw+5nsi+uZ0H4uWjFg5VSKFAo8BEpcJX/RNMCgYigUckVpIXR0e9dnvmmclO7XqMi75L5jfv+40AFSuU/npTfV0fYoKrnLbHWQMpu5lcV+KzO50qXf5aPueBr+cy1NW3s8rp8t5vq1aqxGTIkvwPvoSxTfrnoNXQRLAhoPafhtg4QXm+t7L0vBZyuaTC4SCen1RSArwg5frmP8ZXwXuc8dhyquSni93Hb/pn7aDZu+DvbUdBN+P1aeO+XoPZdH2bZz65cQJfKsxNwfg64FeTmqIMr1a7uGs1QPdVNDS+ueMvpaNdIBkH8ZXG7vp8y+Lcv690WzMa4b797Df0WaRbRBdKzlEKBz0mBAmg/J7XLvd5IARmgAl0GKXjUai1ztKggBYMMYeP6phJ16+evO1Y/f3Xb9lU6AmhHiM3nUjbi/VxncE2o8NHxUfrttyeETT0ntPckNcg00WkxpoxEKNMxyS3afSSiU+5Ub+M6nA0eEofqee451yzt5oQSZPYUCHeZBy/Pj2G4nWWh4+Xr2FU+CYRnhCk3ycLopO/T6QApRpbOtscv8Bzvpt+edtM/f/k7Y9KY+J2sjipoKryW+A3inTz2uejpvUopFCgUeDcKBP+xdnyv8kOVWsONHQ7icb/t8C5GFE185/U7eUw+bhs3lcxrqGdCporvYHTLXjLBq0cuNXTH9y3LgmUJNKpi3Wvkg6e9LKpVlRcHPBH3cH1ZKjlEe47DYNGw18juMO9Re47LS17b8vo6PZVzFo+5GPpqkqKISAr6Fd74GhnfuCMdg2654uLnHw8H6Wz/ML14+iz9A+/ii71X6QwjgvKvSWRSU8MuS2QtdpooAaPCUsOwci8xF3IWqgrU6hSn7aNVf2mGwOXKqp9eeVS7yNU+x/Plq/mT21k8L2Lz2lLvZVWV1xv0mIvNQInl7fLzW1Xh77lcwT/2SU+wHRdaYdFC3qz9kb5+u84+4VRHoQ9FVIHfftDf/l76bo14ZfOzUKAA2s9C5nKTd6WATFFhL5OUgd6mIoMOhv25nkvBoBLoeoBgPjjYxzv7r3Tw6mWeaL3fnqaNVQLumoxfZR7GrPaReEL5mmUVa0VWHhLmQyMV23hjOySh6ANqp6ubaWVtkPW0fhdP7aKOqyzn+An8FRSyLjNBLONvEyA6Mcfj1Lnz0jCtrZPsou0ci6+w4M7SX/+6QRKWTtreYsJ3rLmhqNlsFN/JUjdWxLmyLhQoFLg9FPBb1ROrNzHGzrpttIq82kWPjbz7TTzSczedl/e4CGYN/5RvmQgK1TgTwnNVjbzBmcuxq+FduhQZC9mx9BS7Twv5BtX1y7+LqnAiDrlUd1qej40KCYAL4MkknmrAC+HM1F42EDWvXdcBl7JEnhj0MJOsXm/ln0vwy8IbryXl7w5KW/togKjQHczqPzofpiPCjJ/88mv6r7/9NR0S5XRBAsMVhto4vZxe0Src2LHRtMPvmqVe9sTSszIQpN8iVOcuzBGbBaZPwU8fvcV+URlZru9DeWrYK0+ee1xGnJxQHHqg1lWtHr0r25kXoLSq6NlrCg+Un4lvKDftvs+ZD9qa3ljBrG37r5LDnq/oFnf8fdvS2BD53377LX/7emYfPHiQt+P7t8+61Pv771sqRwoFPj4FCqD9+DQtLf5BCijkQzD9waa+6ssVHgoFraIms3hGUobffn2S9l8dIHmm6f69rbRu6M/2JvMrkhzq/CQ1VxFiCMU8LockKIrYLMeytJIcSkwLZ5qEGTMVQFePrkoaAl6BXYlDBR3b/le+IaA8I6htk8l4zvQYk/FZGg+OU4tEUGtMI7DO/HgdtIOjw4P0f//v/yUTYxsld5N2UhZ4V39XhZ7lJgU3nyx/CgUKBW4FBeRFMebTdd0zK7AViMU3/cEPnHmXPMukTRUnus7jJS9673LTRfk4f8ICeFM9bpi9sgIAaCGQzQDgZv0/P2KdJleVfHmf4FV6aiAQLEhX5Z/XCRg8X8rbKVCns3QdkzRxxLjZPXJNPHmCZ3b3BWHyB2mCgOwg6zKNobOe2gzriIDKEUhOe4PQM/Q3S0H6Q4N9Zd+cdmdZbkUniTWdIERr/VE5vBS9teNxVe1Q3vR47k78yaK4XiEL4vqBD9nOrS8urG+/va3ok0ZoqI+YJMrIjIcPH2ZD1p/+9Kdl2HyR6W+nZ6nx8SlQOOXHp2lpsVDgo1EgAK0JWP7FxOZPALSOXWsx7cTDB9tpk2yDG4RmnwF+B0PAZbY4Y/03xFelCylMDscMVC+DoapjIlQwL3MwXmYizgraladXICtLFejOK6twHzl/7fA0jc+PUr8xSKubXbw0JO4CIL8ki+QeSTfCeqvl9hFCr66YKfB81lIKBQoFbj8F5AsuMdWMT+z3HaHGDhOJMNo/8jZVGOclNlDBj1LfjmMfdy2je1uLFZCVg7o4OncBQW68MJR76Rfbsc78esEH9YDL5+WTgtpIsFW/7sabfOMngp51MoyZ/uYYA8Hu3ov0T4bp7JpE8eQ09Ygm6JE3ogMw1TOrnHQO9akLYDZnxl4A2AqkamBZ/O75Gn5z5JeAs8rI7V3f0A+q6rmGNd/YxbCVeD4iga2fy0cBs9HYh61DXmtgN0T+BTLevnr//v3MB8x8bJ+t9+kPu1O5qlDgwyhQAO2H0a1cVSjwSSmgEmPRGiqAffbsWXr621MyNO7nZBbOv9hl/M9ar5u2NhDO01Y6n7XSmLGtU0KPZ8zNOJ8zpgWviSFVWRxnx4Ki+fWSBexSyi7OK+SX1fAUA5hNoNEEyDbwzrYZO9tg3sduu5VW+2tpZ3Mt7a85XUePZ8ajfHbKMz9N/++//ovn20z3EHYKPEMTtaRfp4Asb1c2CgUKBW4NBeRBgi3BrJ5E91VcBbMC2fAofqoHXrKmT3WDaPcj3yh43NV13M615+SH0tBtwYLhx45T1EDgcc8HmIi26m2U7dcpoOw0uuns/Cw9A8w+Z3jOy9OjNAKsrqz00goysd9ZRBNIc2UbTczp14YS5/HRhhuz28jT5XCSekJNZSJRzHhpLyHs3Fji6DtUiE2qvrbz2nHbyRWqP9c5d2unP8OmBqubb2O/i75qLWksL1A3+eWXX/J42h9//DHLd3mDdf0Niqy/mablzMenQAG0H5+mpcVCgT9EgRDIrg1De8X4n6cktHj+YjcdHhwiSMZphRDhLvPRrvY7AEbmLwTQuhwP8dQCOhXOjo3RAD2jXgjMa4WWkrYmzKrNAL7u0RLjipy3tj1jXmBCjAW2LdSAroB6rZu2N7cRZgDadjcLsvMLLLgkrur/Ty89/u679P33PxCC3M0KsMQJBc1t37MoalKilEKB20EBv0mLSqkAVj4k0HJt0TMjoFV5FXipuH7q8jXyiQABQZ8YRhK0ivMBXKWvY5Stbwi3iXfC813nmXH9t7yOPioN6vJDGmuAOSar8TOihZ4fMMUdw3EmJDPsIa9WiCJawSs+d0iOwAtAaltAtIwyq4RfVTyT0Ug5akB3LHWzT9767Macyd4/wGke5+qBq6UmX6+eyvvK4C9YrtULFs8jbaOf2i+jDwtoDZE3QZTG6v/8z//M+TJM5llKocCXoEABtF+C6uWehQJvoIACI4SyAkMLqHO/qVBm4Kk0pc58goeUqN0NEjxtdNbSuNVLvUOs+6conwj0CXPN5oQPAkbdtBTyGr92Z48qa0Oe1uVuPsYfxfh0OmYByOL9bY4HqU1CqH6nkbbWN9LW5mpa01ODd1ZFt4HQUwAalvTsxfP8/A8fPMwhipuEH6sEh4L32sOUnUKBQoFbQwG/YRX9SALluDmVWIFsgNn8vVPPEgDD60qpKBBAIGgi39MLG8XjAtZYgu8LbOWf0lwaR6lvx7Gyrihg/5O20q6ab/Zl2mUquYPDo3TOtD1mIu4AZGcaaMjIj4U1zUlcSFIIopig8dQFtyxC0B5slK/rpmg1e2QBc4y/RZpWB1hXZl8rVBFNem817VjjLhT7Z/Rd6Wv/dN9+rKFLfmA0wb/+9a/0f/7P/8k8QEOMiSCN3rAUQ8xd6Alfxztccsqv43nLUxYK3EkKKCxCcPiCCmbHU+0zZ57hxo5LnSJAqvnvFLYIUMb8tDEJr3Sbqb/JNDz9dU4oSpHEJ2fpfDTJE8rPnHeW0GBkULYkO5eeReApgF1ckY/V/+SxRCbISLSDR3ZGEqjZZIBiwJhZ9IDNfi/d39lKG4ydNaNxFwVB4VW130gXzPPHC+SEHDvbO+keyw6CTmuu4+9CMHrPq+9ff46yXShQKPBpKeD3Z/GbjG15kJ4uDWkCK41rAiq/X8fFRzbeunFKhddSP+Z+nbe5f5dK8DHfOWh3dR3v7/E4Jw087iLflLaCsaC7hgSBmcc9b70CaG/uOWEM0BBgVNNzkkDtMRXS8ekxMwAwV3KTSAJCiGcYesdm6oeeOSkEtJ0rt0woYUZFurArhaMe1wxbAcN6c/M87xmx5j8L0Ou3swC1lWi9+SFv8Zmqb1bvEf3Sx633V7c9F0VQaz91PO1f//rXDGLNeuy3oIwvpVDgc1KgANrPSe1yr0IBKKBQCMVPRcV9lZhQbCSS+3uAWD2zp8enefL1HM7bmaXhRWUZbgI2sfeT3GKW1gCYvVUnuUDRRAFyWol0dJZOGfc2ITkG8cgIb+eoBUgibPK0GIzBbSnEF6WanoAqyGfHFU2wVjfwxDLxAWCWZ2BxzlvB7KMdEj0xbnaDaXk6gNm5z0J8s2BW0J1FPO8wxIJrNsQuWSU38ebqnf1f/+t/5XVdMPoIV4VlPFdZFwoUCnw6CshrwvMiP3Lbb1Ewq7IqmNW45hhagazj4FVWBbR+wwFevS6ujfbq5z/dG3zZlgWZhgxLs+DlKvqx79oS/M59aaZXNs6573nbctHzJb0FCv4+HvN8jLX9sm/8+e8edLrpzp63z9XDYJ8+eZoOc84JjLBIMeeblc6OeTV2SYOwUU4z5JYQTWU4w9Rsk+E3A806WIdPIo2mc+Qh6RXp8y2BcZNIJWSv0zY1/T2zxPN3rn7rm57zdh7nmf3PMKapHmqKfCCKtA36x/ccfTXq2Fd3d3ezvvL48eMs381+HLwh6pV1ocCnpEABtJ+SuqXtQoF3oEAogVZVeYmQqZwI6unTnNxipjcWIaPAVXhiL86L41jbCOhue55WiT8WoOKwBXyuAUYBybQ3QLmaTc5ziNBEgIpQz/PvATINt0LUo23RcJZrtouo5poJVuzGdIQiMERoD1J3PkwbKG4PSEL1AEB7fxPFdhUrLFbvAd7YHH5lO9mAq6jnH3P2HR0dpie0vbN9LyvEkRwqLLhF6EGzUgoFvgAFQll1rZIaRZ6kZ1Yg61pwG8DN71bDlPteF0DCOgIK9wVeAt4Y/1lXiGM77vW1r6Vb0M53d5EWEZLptsfCy+r7Bm085iIPlJ4u0sz6Xh9ecY0IXmMYp/eqA46vnX5ve/639ZeguaBKj7beWWXnPmuPmeiph6xzcbqeEUkLx4ynFbvlaXqQkXb9Lgfa0LzJvp7ZprIxy8qOUhbxaCIpjRAYjJGzDQzJyjwlXSX7gMlYg+f5+CUgfNv73Zbzc+ik/hEl+rX09bh91GOuXep9UJ0losn+yWwMyvjvyJ0RiePi2mi7rAsFPgUFCqD9FFQtbRYKvIECIRRcW2T2FgW3yo9KjJZ5Jy/fZa1QFhgmwKgWVMONtQpnwIowNdxJgdoiw/Fah2QiG04Yf49xrWQi7R2ngxNCBs9GeGtP8daquCKCFUgkx2jrpc2ZHGmBNpHjGY9mZQzPbpN7tvDQrvVaaWOllb5/uJ1+fEC24j4hRcwz2+F+U64DQXM9C8DbRrSG25LvOBwwzmZ2kP75z1+yZ+f777/PY2y8X4yzKQIPcpVSKPCZKeD3WedHwZNUYiPUWJAq0PJbdWycYNV9i4pu8CwznurR9VrDDq2r0httfuZX+2y3C+AafNx9FXxpoUFAD7d0CsBqPcGpdAzjgDSqA9t4eNswhNZ2pL8AQcBb+CVSj35mUY7YR6XRS0KMBbN6C09JCmXqCJMRdnoMiWkzT7qAFrk2ILEiubtZ6MMLD20X2dXhd8pLz/nZMTQwpV2r00/9bp+QYzL4T5sAYof+KLf9dnwCn0PJGYvHvr7i00vToKtvIG3tu/Zp+6d92L7n4jn7rYs8wMWosqcY4f32jeb46aefcj+3rToAdr+UQoGPTYECaD82RUt7hQLvQIG6kue2AkIlSPCqhVkwq3A+QUgbxis8zGARodsgNEhQ64JUWa6tg8xBCJOsiczDHQRuj8VtE0UdAmwPT4ZZOCm0powlmpEVeQ6gjXG1Ch0VJpNN9QhTNpPySmclba710s4WGYvvMwXPPZQqLNHkhGJIEUAYYVeBWUGtFl6eifcxdNl29S6PhmPe51VOHvE///M/yUyI3kelznvW6fEO5CtVCgUKBT4SBeQ9ocQGQJUXCaQEVCqufqcqqZF1N75XlVjraYBTkTVBjG39+7//e/6m/cbriqz38h53sUgTaSVNpJseK+khH/dYZIQWFGQeC9BS6ZcXeq3HXXsu6ORaMKHn0etdBLXW/ZZL9FdpIM01vmhQsR9Kb/vkGNCqLGoaOky48JRp5ibjGcbdc4y8GBkEb1yrQTYbhJFdxCwR4dRgFoGVnAkZpyxJoSoQJ3adkeF/iiwzl4TeWEOXA85y+isp6g2vP6q7hhzb1/w+pW/0Z/ddpLOLfdJv2jpuu0RdjQrygRiWIN/QuOX5Oh94/e5lr1Dg41Dg2+aKH4eGpZVCgXejQJYjlSSRwdeL+woNFSGFslkD9dQqYHpYl7PHEy9teGf10CJdaMJ2sJLaGPvZZs0OztPUXm2nDRJFDe+vkiBqnvYPTtOLV8fp7PQshzGfMsn8+YBETyaNooUWiaPahBNurm5mBbbR7AJkV9I2Stc9wOy9LSZNB+Aaruz9kGMUwut4LgHtjDAuQbfnCKQD1PIMgGXb5kRWMhxP+1/MTatS5hgbQ5NKKRQoFPhyFJD3qJSGIqtRTUAgSNDzJcASSAlmYx7peNrwjDl1h0lh5F0quiqvehS9xmtD6fW6q7wv2vpa175bgFHfXZrIu/VWye/0GHpMnictAuR7nfzv/v37mV71c9IovLiCCMGa93Dxuohs+Vpp9keeWxrXi/3W/qoBwf6nQVgDQgZggjFlEmHGQwy4A9a7L/fTPr+P0/M4vzodFvlUGWI1BnfJCbHGNZvNNt5bPLMA4m57ircXwHdxnsbDAWCZrMnA3xyybMRTlnpKPpdaqcR97cAX3lRtyP9qz+EzqjsgxzUCmDsj+pm1AsgGqLVvBpj1O7c/xlre4W8gkPW442k1jnnefl9KocCnpEABtJ+SuqXtQoEbKKCQiKJwcN/QNJUgFaBQghQsLReEiIJkPqmsoXW5Oed4VbSgKqANBwJwcrCJIHFcrdmQWzurJHRqAmJ76eJ8jSzEgF2EjaDZp+lwny5T76wQqtzt6jklezJehDWUsPWVDmN0EUjeC++td/SZJyoMJtZACFZZkWmJ/z4rhu4MxJstn6ux9DQ4xkbF2NBjlbgffvghC7zqHcrfQoFCgS9BAfmQ/EAgq2FNBVb+Y1isAEqApWJa510CNb2HLoI4r/XbF2DIz1wCmHmtpX79l3jPT3HPeKfME+Gn8lRBlTQMg4AGPOkoTT0nraWfHkWPywv12LqWhtZz23ou0lKg4LH4PazzrRdprmfw4NVB7of23Qy4oGEDGTbnNxgOGQ9OnofjC2g5IicExtseBtuOcorrNcSOHFfrP+TWiG9hBMDrAILbI8Au+9hyWY0xKrNQb05IstP0zLOgU+xVUUmKYGXkB5dsKK5drbD9mEX5THvqDblp1j69/wSz9lnBaABVaWl/tEQ/91gs1vO4/dz+HHqMffMXphxUzv/444+53+ZGyp9CgU9EgcINPxFhS7OFAm+igMKgLhwUIiqFjv0RzLrWoq8y6ThVPbQmoZiNsTYjQAWgTkeb14tt7zcntAqxSxhVJbSQ6B5F1M4IPe6kexuOA9pAaFnPYoicYBTAiwASOCuPlalV2DD1qNvinlPCtfTQxpy2vsNExQwhphW8Gj9btVuNL0Jgch2qGbepPBcqvHpzVG4fPXqUFTg9FCq9pRQKFAp8OQoIwgROAgIXi+BJPuQSYNbvXiVWJTcArQDWa1ViXWxLkBGhsuGVDJ735d7y499ZegQIcF3n7QJQ+Zue6p9//jnzO+mjx1VPoouexfDeek5aBaCQ/rbp7yHv9DplgvUD9H78N/q6WpTep4D9w4NX2ZAS3llp2MaYO6QvDqDdMRFJB6dkJ+7Zp9eJXlpJ68idrjIPIHeC1/WM5XxEIimunSATx7StfFTQzjEKm7cCjOzpCuSxVuJVUo81MrmCfh9IQwVvvThu51OUxXPah/ifHzqSQtnf7IcWv/n47v12Y4k+7jrArvS2+O3bp637j3/8gyFK5POgvxp6XEqhwKekQAG0n5K6pe1CgRsoIPNXGFgGhDBp1fzt2dNs0TxjO2c0XggI5EtGmMDaPBeeSSycasB58RSgtpLFXhZS/kGQcyDLKf44QqgtIGa7TUiVHtspOHfRPF7ZhUc3H/CCSogqqLIC2q4CqhYP4SPnkhWGnDmym0YC57ngeWH1XYp4m9MCXgk+t1WCFXiGHuupVeEzNEmhpyANYbq4TVkVChQKfEIK+E2qxIbX0LBBF8GYnkC/S0FUKKyuVVpdAmjZhnUcDyoIE5TZhl5bj+t59NhdLL67vFy6BAAI3ildXULxD+U/rvG4571Oeru2naC19YMnWk96S1MNgNaJddxP+sY97gqtq/epZFKOAlqAPENkNQiYOPG3J//Knu7zC4fQ4GGUjogyTb9GEZ1qpLkYYHxl6qk1+vQ6fXIFQw2RSOaZMKv/fMA1zhQwdtx3Na96BwMueROh9cI4i5xrEHqsAM3PpQC+UhC1l+X3py/PvWHLy/IbV6/9hprVqXe9jc0t242L4iD79in7pu9W78vexeMufvex7fHor9F3vdY66jROO+j3r0FHPhJja61b/a62UEqhwMehQAG0H4eOpZVCgTdSQAFwtSgIZOp6NpwA/rcnv2WL5hjA11NhQTJ6XQa+XK7HVBA7rS8I2vnSSkz4FOZjvayW1+VVAE0VHoHt5dMYfvV6iSs96vbV81Vtn73T6aKQCVZVVpXk1mfxeRfNCGZ9D+vH+6iUOeZOYfenP/0pC0WFnAp0KYUChQKfjwLyFxVQDU16AV3kSSqgsQi2/H6tK9+yvl5ZF+t7zm9Zb4zfcLTld64S63Xx7X++N/s8d6q/V4CAAAbSSVq6SBMXz7mOkGSvF+xLvzpAjae3vvS3DeltXe/jb6OhwOL+3S4Kk0BeGkhN8jRhjPKz9N//76/IzicZ3A7HoxxK220L+LkGMDsWXJ3heR0wJpzhMUYZrZMbYg16b/SIgELOThw2g7G3OcZDPnW+duUoo2SRjZK25TlBLUbbOfKOHZ5HwRsyr2ZY/tAfwqaWRTP0pyjQUDJeKVA0H3E6Iot9zsV+5doS8tv+qnEljkW9qGs9z9tXjcbyGzDcXsO1w4s00Fjn7vfZTKLy5zNSoADaz0jscqtvlwIycIvCIBf2h3gwtLg//e1p+juZf18xfjaHS1GhIdM3tsnt/Fc55Fa1uG1LVWtRo4KUVr888vq25z5dieeLO1RPuXjjLMQUfiq3CjzDEU2a8re//W2pDKu4lVIoUCjw+Sggz1H51KPiWoVTj4reVgFTeA7jifx+BVeGv3qNnliviQRHemjNBWBb8jsBrXUEayqxoQxHe1/7OhT6UPylTyy+t7QQ2PveglDredyQbOtJuzoYkB4et0g/ZYe0i2I7yg2v13gQQPibAAh4SJEg6XxYTWf0/PkLQNNv6eDwiEgn5k1HZla5ILrQzmEujGOGhuJORbASNc8QACCmQj5newI6f5e+HttWP9Od04tSgbe5BmaOzFjbWM5dsRS0sRHruPZurkOfqb+dfdXFvhvn7aeOERfYGoVlX9cgI0+QT0S9ejtlu1DgQylQAO2HUq5cVyjwByigYHTsqdM6PHv6LP36j3+m/cODbM1squBgGc7jT5XClPibIWI+FoIzztQ8sPmK1/9E7dePfsy9a+7gS2atYKkZZAGm4qBSpmdHZe+///u/s/X2L3/5S1aei6D7mL9LaatQ4GYKqIDqLRR8hndWZdMlwgT9XkPxDKXVuvIugZqg1vMCX79dwZdtek7gJigWAKvoCrqirZuf6us6I31U1F0HfeRvvq900HAX7y74lAYaETwnIJVudZpEG64tthuA1nZcBAq2GwbA+I3uNqhFxmTAlHj/IUDpgHDjl+n57h7TwlX9q9fuE32EB5v+SD4nwo0xngJeK/CpjNTLKqjlJIvTzDGrbBawVQJFPIf0X7MXG4bs7+j0Pk7RwwX805DsskDI/kA57Fj5d40M9PwtK77J2540+mOs66/gsVjqx922z9o/o8gnPOY0hBq8grfYnyPS4Lp7xPVlXSjwPhQogPZ9qFXqFgr8UQogDGTwEwTp2flZ2mP8z/4u880eoPzB/BWgTbIJN5x3B8mj3CUXRbYqe6ASxpVAaiBIm2Q0brG4nc8pS66LPnsXKfYR3q1qYvHgbxCbCjHpoDIsoFV5NhzJYwo6BZ5KYimFAoUCn4YChgIKrARHAtoAnX57Kp5+h1H8LuuKZxijzFjuFGMWwZQRF17nXJSCWdvR02t972cd27pLRboIKC0BOOMdBZyGYbvWYCc95GvSRrrniBzoIW3cl3a2JZ2CR7rvYtseV0Z4nQYFi8e+FX45Zdqd0WCc9p6/TP/993+k/VdMbYcDdQ6IbTIneps50y1nJ2fQyazFgtlMJLy3jquFttC7CdB1KIzJDM1JYbGeocxYGqr5aTnnPLU3F6+rrr25zi074+vwTr6r4H5Z8nH33vS+y9rvvOF3YN92Kh+NXfZ/jThGKmjcsdjP7cOlFAr8UQoUjfGPUrBcXyjwFgpcVQYFsxeG7B0fweh30z4hOWdHx2k8J9mCqNSxOs4RYCbiRWhUFj/s5nAp7pfBK1biCuxWouk1AfWWZ/rYpx3fuywIMW3YllDslufYqCvGKnYqv46v+R/CrlX8VIBD8atfV7YLBQoF3p8CV/lPtCBAEmgGoHVfsOU3qNIZ4MrjlgBVtud3K6AyKY8hhQHC9Dq67XEVWesaGus9vMb2699/PMtdWPuu9cX3FGhub2/nxVwBbktXaaIH2+R4GvVifKy093wA2qC7dBPIxtrtCFkWHMTvVb/uLtB0+Q6IE8HmcDAio/FZevF8L/36y294qU8RkwAz5ozVw9ogJHnO1Dpj5KvJoJSjWRIRitwAzDY1PnCgqWzVe5u9tAtg5zZu3Tn9ViDrlDzKtd/nmKieqrqKvxkxL5/09m/kB6+e/iqmfZeHf9v3e/W8fdV+7nG9tC4xhZX93T5dSqHAx6BA6Ukfg4qljUKBd6SAwnXAfHgv9l7ksbMvXjzPY9EGZGCcYWFu9vgkYfzhaA2huRA/Wf6YZNH9CtRWN/bYG42r0UBV/ZP8VWDF8rYbRD2VZRVfQ4/NeqzVVqVPpVglrZRCgUKBP0YBv7Xril6+AJt+g4IvvSh+gyqZfoOWAGl+qyqnLoJTwbBth9fF79XrrW8RpKmwep0Kre26L+iKtnPFr/yP7xugX9pYfD/fM97XCBSnLVGZl84etwQoDUArDcNzZRu2a/v+PhaP+dt4TOOB9zP02N8gvLRXQa11b+oDudGv4E/ud/TXY4wAe3uvSKK4i0HlVRo4p6z9lC7umNnxeJAa0CyHD3NMD61FILukgYeQl9JFkJw9s2zPoOWQPn12XIXQtzsYd+yz7cqTmBta/IlP6vovq17z9m5Lj+r5P95b5DZpV9pGcVt+4Zh7PbVmPhbQ2l+duq8A2qBUWf9RChRA+0cpWK4vFHhHCiA683gcw/scN/sbnsm9l6/S6RnJQRDGTcf+YJ03sYVgtV7c1eu5PLzcqMCtdbO31o049/HklK3eWLJCcePZN5/ISgUCT2Fn6LHe2QjRUwm0bRW0UgoFCgX+GAVCyRQkuQhIBVSu3Rdk+c259rurf9deax1BsEDKtfsCWKMrXPxuvUbwISiLpFB+v37fjqXVWOU19bb/2Ft9+aulg+8c76RS73Ysvr9LGAk8Xt/3DQSs0tS17dmGdYI/xm/ntXVA6zV6eKVveNTDIFGnjNfb5tdaxmQhPkNO7h/sp2fPn6SXr3aZV/YwhxF3yECsR1VAm2mHANSr2jATlFP4kLnXpYVclX7+VgOm75kP2ZYkRER5/RRaXhBJ4Dfh1Ha9FcbjArqy4ThkqgRcknG58dWRdfnky414rcsD8c3XX85j0q9erutXHos+69p+Kp/RcC2glQ8IaKOv2teva6d+n7JdKPA2ChRA+zYKlfOFAh+JAs6bN8KifITy8QSm/pRECYckgpoirNsrJEnoE26GEHWOWGQAgrQCsEsLsiFRnvhKis/6tudVwVCQGZLoWDyVXr0NhtGpJOuxUNhdLdFuEYJXKVP2CwUqCsQ3opIfxW2VS0GpirtgyHqCTL85Fc369+b3Fd+Y9VRm9Sa6ViG1vsuf//zn9OOPP2ZAYdsCLD2HhtV6neDW+0XYseDrrhTfr07joJnHA6j6/oZou++7y++kh/vywOCDsR37tmU7Frfr3izpL61tO8K+rVMPWY5nsz23PX/bS/1941ntc6/w8j9/gSH4mVmNX6aL0Ula06NN352MqsiBCTJSgNrUMMy7NunvXWSu87q3mFC2TX6KC+TtlOE+K9Nx6g4x3gB0Z3hq/S6WocrQ6xK4xlPc8TVdI7qH37d9xv5lif7tbxOLx60TpX5c2tf7mtu26VAE+Yv92LUGbPur+y71a6Ldsi4UeFcKFED7rpQq9QoF3pMCIZi9zO3RZETo3QHjf16QDGo3nTBuVpArI++2SWpBIqi2ih5Ceco428rTWikzjkrN7diWGzW9JCCuY34ULyGUrPa5ylVB5PtePXbdswSNFJxacB1PK4jV22OI3vfff78Mz3uX9q67RzlWKPCtUiAUUd/fb02l0m9NICuo8pj8x29OQBuhsNb32lBY/fasG54Wt/WuaIASDAtm/Va9RpAmyBXQ7u7uLoGsoMRzXnuXirQJ3uRaeqqku7gv4JRuQWfX0iEMC9JcWgb9PW+RTldpZXthcIj2bcffU4DrteFh9/zXXnx/aSX4ty89332Rdhmuc3yG7CTnRAP3acukTgo+sCz+bWgGeBePArbagNV+fyVtbWymtl7aBUg7Y07aIcA2aJnpRLd0rlkBbgfg24Genq+J2q+dnG98fgOQ9WT7DUt3+5X8Ivq2F7td74PyB/tc8Im4gddfvc5j8hyNL/ZV+7tT+cg/XMJbG22UdaHA+1KgANr3pVipXyjwDhSQedcVQreHF8P0DK+s3tnDg8MsMFQ+eigeMnjVvDzmxw2WeqhT5J1YnMp1s+d28SwK8C8teesCbPFYN66kj8W1SyjaCjv3I4RRIadyfFVgvs+9bnyIcqJQ4A5TIL4RvycVc3mQSwBavaXyHcGsocYqlSqn1reexbXfnscsggsBmscjmsJrNUCpoHof63pM74vtCURcoo1oOzd4B/6EUu+ryMekQYBUt8MzLcAXZHpMurhIQ+kkveRzRqdYRxoJKCz+jtKuvrYNf68AexoD9YrHcde27Tp4Z/SH3Ogt/lN/TulpP9XT/5w+9IJlDy/feDzMgBWiZLnnOzYdc4MdWNpNxnrCAf8Yiu2Xffp5H1nbhbZ6es/0kNOPnZpnjlHZcORer59W11ah22bqI3eUPWEUENReHQZ0i0n4YY+mXQBAL/2loUv0Z/uR/VU6ux39yn3rx7p+4/jePeZ5S/Aex9La1//xj3/k38e+H99Erlj+FAp8AAUKoP0AopVLCgXehQLBxBUKKoGOH9ED+ZL1cDgQzeVmnPjd6QhUIWdITccC5XPV6coju7ihWZAFrwFm9co6Dsiqi+qLmp93FUpIrL17XaDVn+a6416nQNOLYwIZx9moJLso7FTOVL5LKRQoFHh3CsiD5D+hnEYkhCDBYyqVflsq/Srv132b3i2U1vCs2K7XqPTHEAG/XxVd67q2LZMgWdwXtHm99e5SkY6Cz+D3Ak1BqrQO2ofxIOgjrV2kofSXTl4jELZOlOCnsa4f934uthPPIHgW2Epj25Le1rl6fbRzW9f2nZCbhqmaRHGftZ5oDcMab1vknNA1S/c2YXGeFKChFzYfBZgpUBGKemXb0ELwb5uOx7U4/Gc8Gmegakhyt0t2bwDtOr/HymqVwCxXvPGPsvrGk7fkBA+oPvEOaNx+Ig3sf0Ertz3uOr7vOGafqvetd+1j/gbhqf3ll19y3ze6w77qt/Ou7dwSApfHuEUUuFuS5RYRtjzKt02BOlNWOKtkPHv2LC8K6BkAFpm8VERCITIh1KWMRGBSx3oW99wXxLoIavPac4ttZM+yvtd8zqJwu67cpCR7PM6FkFQxUykT+KvsOTetGREVpgq8KF5Xp3EcL+tCgUKB1yngd+J3pZKqJ09l0rWAx29MQCow9fu1XpRQVuMbFTjFmPYIRwxg5rfpNxzfpNd6TmOUSqrruP6uAVoV9P/f3rn96HHV6bqcMwkkYCe28TGxEyAkIZhzABGJSIiDxN7asDXiasQdjDRXM3/AzD37iq0RgjtuEBq0R1sgTuIUhEBADgTbcTBxgp04dmKwwQkECMGzntV+28vVX7tPX3+H7me1VlfVqnV86qta9dZv1SrEK+2DAe3NOlx5dYI4sAkf4kUgEDcPFcKcY5C4OR4JSzhL4sM+11KOK/0LefMAIWW0eUzDOr9DmGLVpt88+czJ7kx50PmnF/5Yf8dXXlEejFx2dekPL+/K67OFL6MKZkRundG4NLJ0iXXm4vq7PP975HgwFPmaV1xbxGz53mw5LnUocul3iccwY86LLKlDLOWDudEjX+ixB8cZY2ipWmpYfzdAmccx3PiaaxjJ8XJlnGtBfmdZDvqN1rznyZfgNi+28+AaQctorFtuuaVei3ioU49X+W3rJLBUAgrapRIzvgQWQSA3gXkayRAbRFqG69EplDuWMn/FzHA+4jPT8cxj5nIxr9fzcgNUyprtLrHOznZPTXgbZxF1G2WUcGjLpPMjnGW7DhNuunGI2pMnT9Zv03IzzE0GNyN0dsSjg2w71jZ/1yUggYsJYCHk2oOFi3WEDudTxFe9HjVJ2nMrN6OEkY5zFxGW83e+c5L4nLfsZ0l80icdxQ26PjTVmLhV6t53aQ9tCSvCYAsDbtLpB3Bpb27a2c86DwoQpsQjTnzyJm3KTh6E4TgWOMQX5fPAgusnYpD8s79GmoJ/tA8O/E5pBwKdCf6JOhcAACwJSURBVLUQ638rD4Iv55uzRXyV3rO0tzSofDv27zzRLX0pHWf9FE/ZAVcsrwXcLHcY8n5snQjq6vKAtHSuV5bfJFZc+tmapvCEGb9V6tEK2hyXycSYO4XBD5ZT5/r7AVeJXlAXbPwrIMsGfGDQuvY3SPigbcL7v0vC4rIvadnm+PKKEaOxnnjiicqb84DrEtcL4hCf3zBLnQQWIqCgXYiQ+yWwRAJciLmxYMlNBjeSiDOeNHMRn71Il3zpSIlbhxyX+KRhlkY669IN03vMlF7FbFldxNChJVZ3LNHbDop1fDpSGHDzwnt3vGODBYnv1WXWYzq4ME6asTTCQiUw4QQ4rzhXuO4gcHgXkZt0bhgRXIgobtw5j4jHvvbc7DcvAok4pIsjHelbR57EiQUx10Ti9OMm3Xzh2T+uZa45lD+IT65DtDH7aXcEPena9rONI98wJQ/6Cx7qERdHXuxPngmrO8/vTxmkQXxxrPPwgmPM9bNNn7STuOT40w5+T1jxELS8gsLvFqHOviuYQLEI2kKnbNNnFlb13c+ZfqGo2zoCCkttFapl+XKxOuLgcGVJXx/I0NUWtleX48SD5ZfJpzjCOBb4PGCtO8q/+kC51LH3U8/uIS0vPo+WlCnPyWeaMTgZWVP5wqGWUv7BnKDKsVi8YcR5y7L93cB+OednjilLmCYPji+/1+NlXpHDhw/Xhzr08eynfMrjWOBIp5PAQgQu9EgLxXS/BCRwSQK5cBOJDpmLNZZZhCzvz9I5Ex5H/JfK5BV0JHTMdLovl4v4VeVm88qrSsfCU+fiLnQkpeMp8eiK+KRP6c5Lh1M82yXe+S6qppnEf7S39bQrnSYdV/gRxo0EN2VYtXliy7A9bhBvvvnmOjzPDm4Sj7B1mgQCOY+oS4QBYgChwz5uFhniiq839uV8a69LpOPcjCMNLmG5ye2naePUBJf4l/OdvFnPdsq4RNKx7qKerYMFYbkehVXa1Y8bdgnPNu2OJyw3/qwnTtIMWiYNx4S0CGOsmhxrjjHCFj8NjrrTV/JAk76TdvD7hTNtge2GIkBn/Ewfea5yog8snpmKryjCqYS9VD7Ng5YlzUXHZKbDrDiw+m7YUN4zP/87hyXHgj4InhF3NQ+OU3lhl+QXhjaX47WhjBwqYfUYFrFdqlDczHnD2uIciZaa5lI5lzbX3fw/78v9Qg2t4p07hnKel/sM2haXdZbtby/hxJtvPXn0l4PyIQ88xxcLLf08fs+ePfUhDL9jjnn/nOvn7bYEQkBBGxIuJbACAlyY6cziELOxzP6mvCeCoGWbzhFHfGZYZDbGcyUd2y+9XLZLB8oFnNkYGRaFI1/242b6yZnOqQrZGtyK2hptov5R99bTHm4Uwov20nnR6cWzHw839jNpSiZP4caMGxvS6CSwXgnkmpD2c+4QlusF64hYxAAjHhAKOM4fhsFiuYugbfNq15M3y354f3tQnDZ91qkn5zTnd+vaerfhk77OdYjrOjz6bcgx6beB8DjS9S2B7G/jEHcQ7+TBEqZ46sCxZt6GiFnywpIb18874eNe8pvAcodFFkHLA2EstPyOYXzFFXmgAL+GYa34TL9IMBxwfy19bOsGtTvW2zZefpvE5/jmuCJm6a9nSi/HqP7NiFsEbolYfCk71axTPbY5z7Ne6zvTx88TY9HB55t+Pv55JhG0JZQH6DwMwF1Ynymb31jLqP3NZb3dXzNZxD/SJB35JC+SMnKEkVhcl7gmcW1ikijErX38IuAaZZaAgnYWhSsSWBmB3ExwseYGko6YocYMqeHdNW5aiMP+ajF58c+lo36xWnIRtnSaPD/los5kLdyAYJUkTXzbMaystqNLTbu4QWCZp94s06nRNjqueG5c0l7S0eHxUAAuWGrZn/dqWddJQAJzCeQ6g7CJdZZrCjeKXFfa82xu6tUNyc0t1wQe/uEJ4xqQfatbg+XnTh3DjrrCmesUy1zTknt/uw1fSTvJt/YXhR/Xyjjqxj6ur4hCjjPXTZYc91xrE3+SltQZIR4xS7/JA01+u/CF13zMIgVnJS4Bsxsra2WOcXjDtz2uMOX3AHvWE39lpQ4v9SBu1D8s054sFyq5bftCcefb35bN8eW4Y41HzObLBlu3bq0PssN0vrwMl0AIeDcYEi4lsEwCucCnI+PmDBHGhAc8ZWaZGx46bTzWWjzCl9kW+XxA6Sbrc9R07IhaJkngyWUu6iynzXEjQPtpV25eCYNbOltuBvBYFHAR8qRD/DP0GBbbt2+fnUAladI5ThsX6yuB1SbANYYHaxEEnF+cd5yLWMLGcT3J+ZprAXXkHOeaMA0u1/uWI/VvXeK0YcNe5xjCLH0DZbKNRyTwEBWhhZCNpZa+hOvmJDp+D/m9YpnlYTB9J+3MbybLUdcfti3fbFOfnEMsJ5Vt6tlfUmd82sb6KBlTFtcmrkVcp+jnM18Gv1tm6sZNKtdR/w4t79IEFLSX5uNeCVySQDoCItEZ8KSR93/oiJ9++uk67IswLshcvBGweG42CCf95eWmo17Yy40I23Tg3CCRHzck3IzgR9nRXLLRS9yZNuUGlg6MMNqXDpRt9nMzxn7CYZa0eaeKySOwONDpIfh1EpDABQJcIzh3OIdwXGcQBlxTOJ8QDJxLPHDj2jIOR/1wnO9cA7mZZYnnQRbn/CS6XItSb67jsKTeCMhcn7Ns20DaQeFtnKWskx/HGM9xDVPCuYbClD4k2yyJx6Q7WOnZHmZ9llL3QXGpD/Wt35wtYhZBSx/K75R640ddZ8rD42Ca7TYMhniOA3GoZ+s4LoSP01EnzvWMzkAoUmfqxj6W/KZpF+uj/l1wbaJcGGKdxyrPNQsLLecW9dZJYDEExtOjLaZmxpHAlBBIR0fHxQ0jnTIXZIbQcEOZjoJlboK44aDj4GLNxRzPhR3PhZ245EdHkzDiTKOjLTiW+HSmiHTaxDZtTltzY0Bnm84VbnR0R44cqU9td+/eXS0P8OvfREwjI+ssgWESyHnDtQOxxXnHOcZ1h3OOc23c5w11wHO+Uz/q1Z7zw+QxjLxgiqeeCAQ869SddrAe7olLuexfDcfxhF3fJQyWrHP8Oe54fg9x1Cv1Tdg4l7QnDzaoJ3yxKPOQg/VR/zZy3FjGt3zyDeeF+iB+FzkmbfrVXqdMyoYfdeU1Hb7pzrfd81uFK78BeNPGhK923dr8c9ypZ0ajcT5RJ/blOLRpXJfAIAIK2kFUDJPAEghwweXii+d9Nd79wSNo6VRiYeUizVNoPJ0IF28mOkqnnSf9uZgTh7zZTmc+jRf43DSxpMPE05FyI8CSbW62cGk7LIhPJ5dwZkOEB8x27dpVhx7TScNGJwEJXEyA84drC++l4djO8FPW8QmvKyP6xzmMz3lLPbgGcJ3MNWFEVVlSMdST6xUMmaSOa3FuwKl7rtEt234BtHtYLhxhR5nZph+i36F+uc7mO7dhPqw6DDOfsOX3mrkS8gCGNqadwyxzUF6Us5CDN30TfRHDYvkd8BsgvO84LuS5mqJ2vrypU+aeQMgSj99CWKb/pd9lX37D/Tas5jbl8luNwzILU+o5H9PEdSmBloCCtqXhugSWQYBOjA4h7//w3izCFuFKR8dNGh0InTPx8LkBYh9x0iHSSbI/NyXkTdzFdLLLqPrIk9AePO2hM03b6PRpMx0bYpb9+HRodHqEMwSN92wee+yx2Y6aGyD46SSwnghwHnHe4FjvO8K4MdyxY0eNx3bOt37cUW6nzrmRzU00dWM9ImxQm0ZZz35ZuQZj7eKmmyXWT8LTBtYH1Ttt7ue5km34kS9lxxHWevbhuUZSXxhPooMZ13B+r/QBiBnY0ifg2I/PMVjNNgw6fv2w1IffKg830k+tZr2Wkzf14wEMDwj4rfAAeOfOnbM887sN5/l+v8spe7FpqFf7m81DArhS//b3vdg8jbc+CSho1+dxt9UrJMBFOJ0aF1w6BCyIDDfGI2ZxdHR01IgxOmo8aXH9ThIxS/x+PC7qxE26mniK/qXeLAd52gZDxD1injgwgCnr7KejTTh89+/fX2/QuFlnP2lZxiVdtl1KYC0SaH/zbfty488QQ25i4xLONjeROM6VuHY9Yau5bM/TtIUl17y2rtQh+9s0q123fv5cp7B4cb2BH9eptp7Usc+QeG1Yu97Pf1jbKSPMIgyoP/VJnROPchN3WHVYaj4wpf9D0OTaP0n167cHjohu6gzXtq6D4vbDhrmd49nmmeMM11wH4MpvNi7piIvLdvaPekk9YMnvlfuh3PuMuh6WN50EFLTTedys9ZgJpPOng0CsYpHlvVl8PjWQmzLiJn7W6TjiuYDj49K5pINkmfQJS9xpWFJ32pq2Z5m6017C2o4scViSlpuGcOAmgklDjh492j3++OO108P6kA5wGhmFhUsJDJNAREKbZ3t+zLfexh/VOud66pNr46jKHlQO9cGlTonTv14nvF22abi+tdttvFGv53ralpt2tmHjWA9X+s1pcAhD+pxBTNv6pz9vw0a5Hq70oQu5SfktLFRP90tgEIHpuHIMqrlhEpgAAghaZrrEapj3Zpmdkc6Dm0luzLiZyQ0aHUY6QMLovOlwEo9OEk+++DjiTKujbdQ/NyotA9qUDp843CDAKyI3rNIZhw0PEJhFOrMeb9mypeJJGaSnXNLrJLCeCXAexOW8yna75FwZh/Bqz9G2rm14W89Rrw+DS9uWcTCGGXVo+SZs1DzXSnn0V/TxuD7XtdJG2yGBaSKgoJ2mo2VdJ4oA4gprIRZZJoDi3Vneo6Vzw3MD0d7IEMb7LHlHlndqse4i1hByrOOZ0TfvD5Em7+iM60ZopdC5iY5Aj9BMnrQPB0u45IabmwX24Wl3K+7DAVF76NCh2XdpEbXET9qU4VIC64lAe83JuZL253xjO+da9o1j2daV8tv6DapP2sOyn3ZQ/EkIa9s0TuapB9zCcRL4THMdwnSa22DdJbBWCCho18qRtB0jJcANATcnCFiGv+Kx0rbv1PRvuBBaCFpEK5MbIVwRtYhZBBvhvHvLp37IlzCeADOhBx0nom8aHZxoC/XHY0Vtb6hoG2IWFgmHFUI/N1+kZx9piU84ghZOTCTCDI7s4/2rQcMsp5GbdZbASgnk/BmUz7TcjOea0G/DfOH9eJO0PW7m/T5pkthYFwlIQAIrIaCgXQk9065bAgiw06dPV8ss780yIRSCDMHGTUNEXERZnsxngijELHlg3eVj4ohathG1xOVmDWGWKfYBjcjDT9tNCTdxcIigpY0RuLQHxz7aDwcYkYZ9LPs3rmzDCE8aZj0+ePBgFbRM2LJx48ZaXs3YfxJY5wSm7XoxiYdrqQyXGn/UbZ70+o2ax3LLazn2+6nl5jmsdON+eDKsdpiPBBZLQEG7WFLGk8B5AnRciFfelUVMMdQYUYq4wtHJRXRlO0tEKlZahBvWRSy1cRFpiZNlRB2iECE4bS6ilbrjaWeWuSHIzQBthg1tzj7i47JNXAQw4azDn8/4MJvr5s2bK18stToJSEACEpDAKAik3x9FWZYhAQnMJaCgncvEEAlUAhGlrbgiDDGLEH3qqafqRFCsI9AQnMTNxERkEjGXYbaIMAQb78VifSWvCL2Uh+DFY6mMhZe8IuBYnyYHExxtgkPaG2t2LLHEg02EK2lgMsgRJzcQDNHmwcKTTz5ZrbNwoyysteSnk4AEJCABCUhAAhJYuwQUtGv32NqyIRCIyIwwRYRhWcU6m0/0sE04Yg0BGhFFWkRXa2FkmzhYEBFdWHXjyYM0CN3+sFuaMp+4G0IzVzUL2gw/PIxoJ6KWocc4eLSilvg42ttvM9vsjyce7y3z/jKzHmOl5Z1afI4HcZIn6zoJSEACEpCABCQggbVDQEG7do6lLRkyAUQQQitiCDGFCGMCKKyzvEPLJE6IM6yLxI2gjRBDrOa9WIQteSG02E98POIVRxiePBKH8Fg4Uw/CptWFaXjRDtYJjx/Utrbt4UQ8+OEQyTxk4Lu0iFmsszkWsCRem0dN5D8JSEACEpCABCQggaknoKCd+kNoA1aTQEQQIgpLIMOLscwyxJWhrohV9kWMJT5LwhG7iNpYaSOu2EdYxBxLwnARX4i0pCM8+1mfVhdO1D9ilHaF21La1eZFugw93rRpUxW1WGuvu+666om70vKWUjfjSkACEpCABCQgAQmMhoCCdjScLWWKCSC4EJdM/BQxy0REzFTMvghNxCcCFvGUcARvRG+EKqIWR9zESzrSkk+WraBNvpOIkrot1y0mbeIMWhLGAwE48ykfhh5ntmOW8MZai4M3TPMgYbl1Np0EJCABCUhAAhKQwGQQUNBOxnGwFhNMALGJWGKI8fHjx2c/tdOKTdYjUFniCCNdxCoiapAjHh5hhs86IhoB1oo49hE2iS71HFXdUl7EKbzyPi1Dwrdu3VonieI7vu3njyJqY7EdVX0tRwISkIAEJCABCUhg+AQUtMNnao5rjACClHdl23dnEU5Y/hBVCCTEFJ7tCK2Es4x4QpBG4LLe+j420uFSBuvEnzSXNmc5yvqFdcrkGGBJP3HiRHfs2LHuxhtv7LZt2zY7SVTiuZSABCQgAQlIQAISWBsEFLRr4zjailUigKjk0zqIJCy0zKbLdive+qIqQpRl4iUOgqvdfymBSpp+3GyzD5Ecn3JWCcOC2WIl5RuyfI5o48aNs+8Np90LZrDICP382I7lOw8VMryYd2pPnTpVj1tmPc5DiKRZZLFGk4AEJCABCUhAAhKYUAIK2gk9MFZr/AQQjwhOrLNnzpypwoh3NAmPaGJ9sWKSuBFdbeuSRxuW9VbAEY/6sESQIc5Y4iNsk27US+rJBExbtmypnzWifCbDoq4rdS2DhfIKS44PVnQeQiBqEdl8KonwWMsXysv9EpCABCQgAQlIQAKTT0BBO/nHyBqOmQDflcXCt2fPnjrZ0GIF7GpUG0HLkGXEI7P4IiB5RzTfvl2NMhfKEx6Iaob37tu3r9u5c2ednKm1Ri+UxzD2t8IX0cp3fhGyDDnmHVpcBO8wyjMPCUhAAhKQgAQkIIHxE9hQbvBWbkIZfzusgQSGToBTA1HGEGOsfSyxOsYyOvQCF5EhdcJjaUTEItxYp074cTgENmxYwgvRHb/S+izl8hRBi7jGRWizhBHf+401e6X1Mr0EJDAaAku5BlyqRrk+XCqO+8ZPYFjHexQt6f+mBtWdvnAhlz5roXirvb/fntUuz/wlMEwC47kDHmYLzEsCq0SAizuCEeFIh4MgQrDhRnnh73eSbEeYZTnK+vRxUzYeQQ0r6genYXfSi7kxSN3asklH3agj4anbOJmlni4lIAEJSEACEpCABFZGQEG7Mn6mXuMEED1Y9/BxCLaliKukW+6yL2jJJ2HUL0JtufkPI10EJBND4RCNPAwYlmhMey/FPXFSJtv41IX64BKvbvhPAhKQgAQkIAEJSGCqCShop/rwWfnVJIDwQUAh1iKSUl4EXLZXa0n5/bIpizDqx3JUdZmvjZQfC2jiDKpz9i1lGfEJh6xfKn3KpU5hR1jCSduuXyov90lAAhKQgAQkIAEJTD4B36Gd/GNkDcdEAAGFdQ8BFOteqrIYcZW4w1giznAINerT1i1hwyhnpXm0XIYhHMlvOWJ2oXYMo24LleF+CUhg5QTaa8pKcvOcXwm90aYd1jFf7Vr3f1Pz1Tv993z1oQ+fBNdvzyTUyTpIYLEEFLSLJWW8dUmADmoSLvLpKFOXbHNQErZWD1Db1qW0ca1zWQoL40pAAhKQwHgILNSH2VeN57hY6toioKBdW8fT1qwjAnSSdoQXH/D2xkE2F7NxSwISkIAEJCABCaxFAgratXhUbZMEJCABCUhAAhKQgAQkIIF1QGAyBu6vA9A2UQISkIAEJCABCUhAAhKQgASGS0BBO1ye5iYBCUhAAhKQgAQkIAEJSEACIyKgoB0RaIuRgAQkIAEJSEACEpCABCQggeESUNAOl6e5SUACEpCABCQgAQlIQAISkMCICChoRwTaYiQgAQlIQAISkIAEJCABCUhguAQUtMPlaW4SkIAEJCABCUhAAhKQgAQkMCICCtoRgbYYCUhAAhKQgAQkIAEJSEACEhguAQXtcHmamwQkIAEJSEACEpCABCQgAQmMiICCdkSgLUYCEpCABCQgAQlIQAISkIAEhktg3Qrac+fOdfjFuKXEXUx+g+K0dRlFeYPqYJgEJCABCUhAAhKQgAQkIIFpIrBuBe00HSTrKgEJSEACEpCABCQgAQlIQAJzCVwxN2jthLRWz7Rqw4YNdfXvf/97XV5++eXZNWfZT8920s+JXAIW2k+afp6Xym9QGYZJQAISkIAEJCABCUhAAhKQwAyBNStoEY4RrTQ1QhIB24rIS4lQ0uMvu+yy6pNfRHCb9uWXX56Nm/39HxnxiZe6kO98cftp3ZaABCQgAQlIQAISkIAEJCCBiwmsWUGbZv7pT3/q/vjHP3ZXXnll9a94xSvqMvsXWkb8ImZfeuml7q9//Wv3l7/8pebxyle+srviirkIEayUSzwcca699tpZ8Zo8+2VH6EY4I3jni9tP67YEJCABCUhAAhKQgAQkIIH1RmCuGlsjBBCCWD/Pnj3bPf300931119fPWGIW8QiwhE/n3AkLiKTvP72t79Vgfr73/++O3nyZHfdddd1e/bsmRW05IHHYYX93e9+150+fbqmJe62bdsuErXEa8Uq6631tt1HXJ0EJCABCUhAAhKQgAQkIAEJXExgzQraNPPw4cPdd7/73W7v3r3drbfeWj0Cc5DDAvvnP/+5Ct5rrrlmdmgwcdl36tSp7sknn+wOHjzYbdq0qQrkzZs3d1dffXUVxohfRDBxf/3rX3eHDh2qeRAHgXrTTTfNimjixmO9bctLOOXOJ7bZp5OABCQgAQlIQAISkIAEJLCeCaxpQYsw3L9/f/flL3+5u+eee6rQRIi+9rWvHXjMEbNnzpypQhWBicNqikhlqPGJEye6X/7yl90Pf/jDbufOnd3rX//6jmHHWHwpCyGLI+6BAwe6733vezX9LbfcUsVsrLBYe8kXj4V4y5Yts1Zj0hOOi8WXvOO03IaESwlIQAISkIAEJCABCUhgvRNYM4IW0ReBiEhEhPLuKusITd5pff7556vYJC7vt7IPgRiR+Itf/KL75je/2d1xxx3du9/97u41r3lNFbf8SK666qpu69at3Rve8IZqxf3tb3/bfelLX+re9ra3dR/5yEfqEGTKS36sU87x48erEP7DH/7Qbdy4cdZCS9kRqvfee28t79WvfvWcYcnr/Qdq+yUgAQlIQAISkIAEJCABCcxHYKoFbQQh4hCPZRTrJx4BygRQWDlZR+wiaomDwGWiKMIQvhG0P/3pT7vPfe5z3X333VctqrfddtusoMUKu3379ipcb7zxxu5rX/ta94UvfKF75plnune961112DHlUSc8w4jZ5j1a4mApTjkcDOJQtwwp5n1c6slw6MSLhXa+g2e4BCQgAQlIQAISkIAEJCCB9UxgQxFWF8azThEJROnRo0e7xx9/vIpFRGOG8iJuEYOIVYQkw4QZasw7rLt27eoQpKQnXiyqxH/00Ue7Bx54oA4nvuuuu7oPfvCD3Xve856OiaAiSo8dO1aF8W9+85s6rJjJnhjO/OEPf7j76Ec/2v3kJz/pHnrooSqYMxsy1toIV8qLAE/Zb3nLW7q77777oqHO84nZiN0pOlRWVQISkIAEJCABCUhAAhKQwKoQmCoLbbQ3og7xymzDjzzySPeNb3yj+9WvfjU75Jh4EX6ISqyyvB/LO7CIVoQucZIfZAnDMcETw4nzniyWU2ZJ5p1YhiMjoJM/79ligcVay/Dkd7zjHTXdt771rfp+7Z133lmtt7xDi6iNwzJM/SNyeQ8Xi27qPJ+YTXqXEpCABCQgAQlIQAISkIAEJFA+kTpNELBsIiYRnwhErK1sv+pVr+qee+652aYQD2GKR5jef//9dbgwEzkhUHkXlnSxlJIQMZkwBCVDjHk/dvfu3VWsUsYLL7xQhxFjGWb48Qc+8IFq+SUdw5k/+9nPdg8//HD31FNP1fd1seIiuBG7uAhZysUxxJg6vu9976tWXoYbZzKq1KdG9J8EJCABCUhAAhKQgAQkIAEJzCEwVYKW2iMGEXsIWj6Hg3WTYb9YYFvLJvEQkIjQI0eO1CG9DOvFI2qTF2K09aRDMJMXQvSGG26oQ5Uph2/L8u4tVlmGLWORRVRTn29/+9vdz372s/rdW0Tqiy++ODshFPljJcaxL/Vk2DOWWoQsMyZTLvt1EpCABCQgAQlIQAISkIAEJLAwgakTtBGDNI11BCDiEtGIi/WTocVM8oSo/dCHPtTxnipDgJlJGHGKeOxbQZMH+bAPCyqWWtYZEkw5pCfPJ554og41Jow4hPEuLWnwOMQvQ5QZsowI5h3et771rVXAEv/BBx+sIhihzCzI119/fU2Xf5Srk4AEJCABCUhAAhKQgAQkIIHBBKZK0CJgEawRtQg+xCTDdLOPZiJMEZA//vGPqwjFIotYRGgiMvGtoG3zJD1xEa5YgfPuK+UgaimL/M+ePVtFLWKV93T37dtXJ5AiX+IitLEOs40VFgsyFmVmRCYPhkiTlqHMzIac+lC+TgISkIAEJCABCUhAAhKQgAQWJjBVghYB2wpX1ltxiyiMlfXUqVP1/VW+/cr3Z9k+ePBgtbYGC3ERmzjyYRvPDMdvf/vbq7BF0FIunriIX8IQt4heZkA+fPhwHcqMqEWkUhZCFYssYprhx9SBbT4FhBimLqR/73vfW9Pu2LGj5pn6p44uJSABCUhAAhKQgAQkIAEJSGAwgakStDShFbWIULbjEINYRc+cOVOFJgIX6ynWUCykzz77bN0mjPdXSY91FIsq+UTQ8u4sw5MRrbiI5ohNrK8IZeIgZn/+85/XIceE8YkgxOrevXtrHPJmiDPWYcoibyzE1BGBy1Do22+/vb6rq5U2R9KlBCQgAQlIQAISkIAEJCCBhQlMnaClSYhPxF/rEJu8l8r7qIhKLKKve93rqnhEvLKN2OWTPIhJthn6e0v5pA7WVNJG0BIv2ykvopZyEbrMfvz+97+/iuGvf/3rNT4WXATu97///VoGohaXfFknPVbe1I/v11I+dYlrRXrCXEpAAhKQgAQkIAEJSEACEpDAxQSmUtBe3ISZLUQiwvXYsWPdd77znSp677333iomCUdIIjj5Xi0TNeF4V5ZP8/AJHtIjPFnecccd1WKayZ1mSpj5HzGNtZUJobC+4kiLY3gxw5ARxViFGZ5MuViF+bQPkz9h4WVW4y1bttRwZjmmXFyEc93wnwQkIAEJSEACEpCABCQgAQnMS2DNCFoEJcKV2YexmDL50qc//en6nVjELB5ByXdpmf34wIEDVVB+/OMfr0OHIUQeWGaxluKXIy4RvKSjPNbJj3ohbhGzJ06cqN/B5duziFzqS7lYfYnPetLOe9TcIQEJSEACEpCABCQgAQlIQALd1AvaCFkEI4KVJdbOWFIRpnkXluOd92URnVhPsY5iqY2YJC372F6KI358BC0WXsLYxmL72GOPdV/5yleqVRerLd+mxfNZocx23A49Xkr5xpWABCQgAQlIQAISkIAEJLDeCEy9oEWAYulkoiVEI9bQTPSEWMRCisWTJT4iEkGJGMZFvLIk7nJdxCtCOR5RS57UD+ssQ6KpM/WgfNIwUdSb3/zmOoSZ4cjsJ02/fsutl+kkIAEJSEACEpCABCQgAQmsRQJTL2gRsEwExczCP/rRj6pw/MQnPtG96U1vqkOKsXhGGHIAEYuIWZatS5yEL8dKS35JlyUiGtHKJ3p4Z5aJpLAII8KJg3B95zvfWb9RixAnDJf61A3/SUACEpCABCQgAQlIQAISkMAcAlMraBF8iFlmC37qqae6/fv3d/fff3936623dp/61Kfq918ZXoxrRSrpsh3RmLBsJ03EZSzADGcmTt6vzWzJtZDyLyIWAUsa6kZZpGPyqDe+8Y3dJz/5yW7nzp3VQkv9sOAmHfmkLqRL+cnfpQQkIAEJSEACEpCABCQgAQlcIDC1ghYxy2zFhw4d6h544IE63PhjH/tYneBp8+bNVQy2ArUdDpx3W8EQAck6ceISztDgRx55pFqAjx49WoXqPffcU0Xq5z//+Vo+4hWHNRYRStqHHnqo1ov15EW5OOLkXd6I6wx1Tj1rxPP/SB/X1jFhLiUgAQlIQAISkIAEJCABCaxHAlMnaBF3iDrEI5/HOX78eJ0pGKspn8LZtWtXd+rUqerbA4pg5JM67Dt79mxdZ9ZhRCoTQ8UhNhmSTP4bN26s78LyqR8E6unTp+usycygjFX4Bz/4QXfy5Mn67ivpyAuhjTWWcIZCY52lbN6TxWJLHPLH0RbW+fwP+xG5vHsb0doK2dTPpQQkIAEJSEACEpCABCQgAQnMEJgqQYvAQ2giEBF+O3bsqBZThCqTLX31q1+dHU7cP8DERzweOXKkimDE7HPPPdd98Ytf7G666aaaJ2koA4srwvS+++6rkzURlxmUEaTMRkz8rVu3zg4rRoiyH4stwnrfvn1VJJPPo48+2j355JPds88+Wz8XhMDlHVoEcCaoohw+44OwveGGG/pVnxW4c3YYIAEJSEACEpCABCQgAQlIYB0TmCpBy/BcBCdLBOqmTZvqNsIQx/dlscAOchnSi3UWCyjClCHAzDyM5ZX9sYgiOsmTd15vv/32OmsyZVEuSwQtS9Ijklny/i7v8TJb8d13391t27at1pG4lPXwww9XAYzwRvTiELx4yqHM1nJLWYhenQQkIAEJSEACEpCABCQgAQkMJjBVgrZtAqKUT9xg1bzzzjvrcF1EIQJ1kCM+HuGKUIzAxeKLkGVfXCynDF/GYnrbbbfVIcEMcWZoMEORWTIrcYQnQhor7F133VVFMHEyhJi4eMQ0w5EJpw6IWSy7lMOwZ8KpC8I24lpRm6PiUgISkIAEJCABCUhAAhKQwMUEpkrQIu4QehF5iFKsnVhL9+7dW9+LZebh+VxEcIQmeSGCEbWtY5shxwhZhCllMNEUcVnH4soSH0f57N+9e3e3ffv2Krap580339xde+21VcjynVxEONZl9iGcEbXMzByhm/wisLNMuEsJSEACEpCABCQgAQlIQAISmCGwoYi6C1PoTjiV+aoaAcq7tBm22wpB0rHd+ohiLKz9fLONBZbhxGxTRqyxhMXCCzL2I2YpH8GKYEYQEx/xyjKf8CEt9UgZpCcMT1x89rVtIJ5OAhKQgAQkIAEJSEACEpCABC4QmCpBe6HaMyKy3V7M+moJxL4AZTuCNsOLEdqUjxBuBW3WI5ZXq46L4WMcCUhAAhKQgAQkIAEJSEAC00RgagUtkPtCchzgqcN8YpR9CtRxHBXLlIAEJCABCUhAAhKQgATWAwGn0R3CUc7w5X5Witk+EbclIAEJSEACEpCABCQgAQkMj4CCdoUsI1qzXGF2JpeABCQgAQlIQAISkIAEJCCBRRJQ0C4SlNEkIAEJSEACEpCABCQgAQlIYLIITLWg1So6WT8mayMBCUhAAhKQgAQkIAEJSGCUBKZ6UqhRgrIsCUhAAhKQgAQkIAEJSEACEpgsAlNtoZ0slNZGAhKQgAQkIAEJSEACEpCABEZJQEE7StqWJQEJSEACEpCABCQgAQlIQAJDI6CgHRpKM5KABCQgAQlIQAISkIAEJCCBURJQ0I6StmVJQAISkIAEJCABCUhAAhKQwNAIKGiHhtKMJCABCUhAAhKQgAQkIAEJSGCUBBS0o6RtWRKQgAQkIAEJSEACEpCABCQwNAIK2qGhNCMJSEACEpCABCQgAQlIQAISGCUBBe0oaVuWBCQgAQlIQAISkIAEJCABCQyNgIJ2aCjNSAISkIAEJCABCUhAAhKQgARGSUBBO0raliUBCUhAAhKQgAQkIAEJSEACQyOgoB0aSjOSgAQkIAEJSEACEpCABCQggVESQNA+P8oCLUsCEpCABCQgAQlIQAISkIAEJDAEAs8jaE8MISOzkIAEJCABCUhAAhKQgAQkIAEJjJLACQTtM6Ms0bIkIAEJSEACEpCABCQgAQlIQAJDIPCMgnYIFM1CAhKQgAQkIAEJSEACEpCABEZOoAraB0derAVKQAISkIAEJCABCUhAAhKQgARWRuDBDefOndtb8nh8ZfmYWgISkIAEJCABCUhAAhKQgAQkMFICt162YcOGI6XIAyMt1sIkIAEJSEACEpCABCQgAQlIQALLJ3AALcs7tLj/mln4XwISkIAEJCABCUhAAhKQgAQkMPEEqobdQDXLsOPNZYGl9pVs6yQgAQlIQAISkIAEJCABCUhAAhNK4IVSr73FQvtctdCyUgI+M6GVtVoSkIAEJCABCUhAAhKQgAQkIIEQ+Mx5DdtVCy2hxUqLdZbJobawrZOABCQgAQlIQAISkIAEJCABCUwYgWdLfW4tghYrbZd3aLvzAf9Uws6xQycBCUhAAhKQgAQkIAEJSEACEpggAmjVf4qYpV6zgpaNsuP/lcW/s66TgAQkIAEJSEACEpCABCQgAQlMEIF/P69ZZ6s0O+Q4IWXoMWFfLv5/J8ylBCQgAQlIQAISkIAEJCABCUhgjAT+s5T9D0XQXjSi+CILLZU7H+EfyyoJdBKQgAQkIAEJSEACEpCABCQggXESQJv+Y1/MUqE5gpbAEvHFsviH4v+t+IsUcNnWSUACEpCABCQgAQlIQAISkIAEVpsAWvTfiscyi0ad4+YMOe7HKEOQ/1cJ+4/inf24D8dtCUhAAhKQgAQkIAEJSEACElgNAsxmzARQzPM0r1tQ0JLy/Cd9/qWs/mvxfN5HJwEJSEACEpCABCQgAQlIQAISGDYBPsfzmeL/TxGz9dM8lypgUYI2GRRhu7ms/3Px/7P4OxPuUgISkIAEJCABCUhAAhKQgAQksAICB0ra/yr+/xYh+9xi81mSoG0zLeJ2b9n+H8W/tfhtjdeCW2DoJCABCUhAAhKQgAQkIAEJSGAOAayuzzT+wbL+/4uIPTIn5iIC/huk0BKS73kfeQAAAABJRU5ErkJggg==;" vertex="1" parent="1">
                    <mxGeometry x="30" y="467.67999999999995" width="378" height="152.32" as="geometry"/>
                </mxCell>
            </root>
        </mxGraphModel>
    </diagram>
</mxfile>
